<svg width="14" height="12" viewBox="0 0 14 12" fill="none" xmlns="http://www.w3.org/2000/svg">
<path fill-rule="evenodd" clip-rule="evenodd" d="M10.2929 0C11.1869 0 12.0469 0.353333 12.6796 0.987333C13.3129 1.62 13.6669 2.47333 13.6669 3.36667V8.63333C13.6669 10.4933 12.1536 12 10.2929 12H3.70694C1.84628 12 0.333611 10.4933 0.333611 8.63333V3.36667C0.333611 1.50667 1.83961 0 3.70694 0H10.2929ZM11.3536 4.36001L11.4069 4.30668C11.5663 4.11335 11.5663 3.83335 11.3996 3.64001C11.3069 3.54068 11.1796 3.48001 11.0469 3.46668C10.9069 3.45935 10.7736 3.50668 10.6729 3.60001L7.66693 6.00001C7.28026 6.32068 6.72626 6.32068 6.33359 6.00001L3.33359 3.60001C3.12626 3.44668 2.83959 3.46668 2.66693 3.64668C2.48693 3.82668 2.46693 4.11335 2.61959 4.31335L2.70693 4.40001L5.74026 6.76668C6.11359 7.06001 6.56626 7.22001 7.04026 7.22001C7.51293 7.22001 7.97359 7.06001 8.34626 6.76668L11.3536 4.36001Z" fill="#F9BD2C"/>
</svg>
