<svg width="10" height="20" viewBox="0 0 10 20" fill="none" xmlns="http://www.w3.org/2000/svg">
<path d="M3.17377 1.03012C3.97977 0.287667 5.12079 0.0353115 6.20216 0.00608819C7.3435 -0.00365291 8.48484 0.00121764 9.62586 0.00121764C9.63089 1.17076 9.63089 2.33543 9.62586 3.50497C8.89019 3.50497 8.14919 3.50497 7.41352 3.50497C6.94788 3.47575 6.46748 3.82034 6.38239 4.27178C6.37234 5.0532 6.37737 5.83431 6.37737 6.61573C7.45842 6.6206 8.53979 6.61573 9.62084 6.6206C9.54077 7.75118 9.39571 8.87719 9.22553 9.99345C8.26944 10.0032 7.31336 9.99346 6.35727 9.99833C6.34722 13.3322 6.36229 16.6612 6.35225 19.9954C4.93052 20.0003 3.51413 19.9906 2.0924 20.0003C2.06728 16.6664 2.0924 13.3325 2.07733 9.99833C1.38656 9.99346 0.690769 10.0032 0 9.99345C0.00502377 8.87232 0 7.75148 0 6.63521C0.690769 6.62547 1.38656 6.63521 2.07733 6.63034C2.09743 5.54329 2.05723 4.45138 2.09742 3.36433C2.17278 2.49585 2.50812 1.62707 3.17377 1.03012Z" fill="#0163E0"/>
</svg>
