<svg width="41" height="41" viewBox="0 0 41 41" fill="none" xmlns="http://www.w3.org/2000/svg">
<g clip-path="url(#clip0)">
<path d="M20.4957 40.5C31.5414 40.5 40.4957 31.5457 40.4957 20.5C40.4957 9.4543 31.5414 0.5 20.4957 0.5C9.44997 0.5 0.495667 9.4543 0.495667 20.5C0.495667 31.5457 9.44997 40.5 20.4957 40.5Z" fill="#AA60FA"/>
<path d="M13.0808 19.941V13.127H13.2769C13.457 13.127 13.6297 13.0554 13.757 12.9281C13.8843 12.8008 13.9558 12.6281 13.9558 12.448V11.6621C13.9558 11.482 13.8843 11.3094 13.757 11.182C13.6297 11.0547 13.457 10.9832 13.2769 10.9832H9.11444C8.93438 10.9832 8.7617 11.0547 8.63438 11.182C8.50706 11.3094 8.43553 11.482 8.43553 11.6621V12.448C8.43553 12.6281 8.50706 12.8008 8.63438 12.9281C8.7617 13.0554 8.93438 13.127 9.11444 13.127H9.31053V19.941C7.78259 20.3941 6.46893 21.3823 5.60999 22.7247C4.75105 24.0671 4.40429 25.6739 4.6332 27.2511C4.8621 28.8283 5.65135 30.2703 6.85648 31.3131C8.0616 32.356 9.60199 32.9299 11.1957 32.9299C12.7894 32.9299 14.3298 32.356 15.5349 31.3131C16.74 30.2703 17.5293 28.8283 17.7582 27.2511C17.9871 25.6739 17.6403 24.0671 16.7814 22.7247C15.9225 21.3823 14.6088 20.3941 13.0808 19.941Z" fill="#C5EAFF"/>
<path d="M10.6566 19.9402V15.5254C10.6566 15.1153 10.8195 14.7221 11.1095 14.4321C11.3994 14.1422 11.7927 13.9793 12.2027 13.9793H13.0809V13.127H10.4613C10.3721 13.1271 10.2837 13.1096 10.2013 13.0755C10.1188 13.0414 10.0439 12.9914 9.98076 12.9284C9.91763 12.8653 9.86756 12.7905 9.83339 12.708C9.79922 12.6256 9.78164 12.5373 9.78164 12.448V11.6621C9.78184 11.482 9.85354 11.3093 9.98099 11.182C10.1084 11.0547 10.2812 10.9832 10.4613 10.9832H9.11445C8.93432 10.9834 8.76164 11.0551 8.63434 11.1826C8.50704 11.31 8.43554 11.4828 8.43554 11.6629V12.448C8.43554 12.6279 8.50699 12.8004 8.63416 12.9276C8.76133 13.0547 8.93382 13.1262 9.11367 13.1262H9.31054V19.9395C7.72726 20.4099 6.37643 21.454 5.52225 22.8677C4.66808 24.2814 4.372 25.9628 4.69194 27.5833C5.01188 29.2037 5.92482 30.6464 7.25219 31.6294C8.57956 32.6123 10.2259 33.0647 11.8691 32.898C10.3409 32.7422 8.91413 32.0608 7.83242 30.97C6.75072 29.8793 6.08115 28.4469 5.93803 26.9174C5.79491 25.3879 6.18712 23.8562 7.04769 22.5837C7.90826 21.3112 9.18384 20.3769 10.6566 19.9402Z" fill="#A4E1FC"/>
<path d="M16.4535 26.327C16.5757 26.3477 16.6857 26.4132 16.7622 26.5107C16.8386 26.6082 16.8759 26.7308 16.8668 26.8543C16.7525 28.2924 16.0961 29.6334 15.0305 30.6058C13.9649 31.5783 12.5696 32.1096 11.1271 32.0922C9.68456 32.0748 8.30251 31.5101 7.26063 30.5122C6.21874 29.5144 5.59485 28.158 5.51521 26.7176C5.51041 26.621 5.53405 26.5251 5.58321 26.4418C5.63237 26.3584 5.70488 26.2914 5.79178 26.2489C6.43631 25.9301 8.09334 25.245 9.92771 25.5598C10.9417 25.8856 12.0078 26.0181 13.0707 25.9504C13.6185 25.9072 14.1695 25.9316 14.7113 26.0231L16.4535 26.327Z" fill="#DB1B1B"/>
<path d="M14.1355 28.0504C14.5446 28.0504 14.8761 27.7188 14.8761 27.3098C14.8761 26.9007 14.5446 26.5691 14.1355 26.5691C13.7265 26.5691 13.3949 26.9007 13.3949 27.3098C13.3949 27.7188 13.7265 28.0504 14.1355 28.0504Z" fill="#E55151"/>
<path d="M11.041 29.1277C11.45 29.1277 11.7816 28.7961 11.7816 28.3871C11.7816 27.978 11.45 27.6465 11.041 27.6465C10.6319 27.6465 10.3004 27.978 10.3004 28.3871C10.3004 28.7961 10.6319 29.1277 11.041 29.1277Z" fill="#E55151"/>
<path d="M8.38162 26.8449C8.62497 26.8449 8.82224 26.6477 8.82224 26.4043C8.82224 26.1609 8.62497 25.9637 8.38162 25.9637C8.13827 25.9637 7.94099 26.1609 7.94099 26.4043C7.94099 26.6477 8.13827 26.8449 8.38162 26.8449Z" fill="#E55151"/>
<path d="M8.61445 30.4777C8.8578 30.4777 9.05508 30.2805 9.05508 30.0371C9.05508 29.7938 8.8578 29.5965 8.61445 29.5965C8.3711 29.5965 8.17383 29.7938 8.17383 30.0371C8.17383 30.2805 8.3711 30.4777 8.61445 30.4777Z" fill="#E55151"/>
<path d="M13.0809 31.0832C13.3242 31.0832 13.5215 30.8859 13.5215 30.6426C13.5215 30.3992 13.3242 30.202 13.0809 30.202C12.8375 30.202 12.6402 30.3992 12.6402 30.6426C12.6402 30.8859 12.8375 31.0832 13.0809 31.0832Z" fill="#E55151"/>
<path d="M15.0126 22.5361C15.2301 22.3241 15.1269 21.8655 14.782 21.5118C14.4372 21.158 13.9813 21.0432 13.7638 21.2552C13.5464 21.4672 13.6496 21.9258 13.9944 22.2796C14.3393 22.6333 14.7951 22.7482 15.0126 22.5361Z" fill="white"/>
<path d="M16.2447 23.7997C16.4208 23.628 16.3373 23.2567 16.0581 22.9703C15.7789 22.684 15.4098 22.591 15.2337 22.7626C15.0576 22.9343 15.1412 23.3056 15.4204 23.592C15.6996 23.8784 16.0686 23.9714 16.2447 23.7997Z" fill="white"/>
<path d="M13.0027 8.11893C13.4605 8.11893 13.8316 7.74782 13.8316 7.29003C13.8316 6.83223 13.4605 6.46112 13.0027 6.46112C12.5449 6.46112 12.1738 6.83223 12.1738 7.29003C12.1738 7.74782 12.5449 8.11893 13.0027 8.11893Z" fill="#DB1B1B"/>
<path d="M10.5605 6.22031C11.0183 6.22031 11.3894 5.8492 11.3894 5.39141C11.3894 4.93361 11.0183 4.5625 10.5605 4.5625C10.1027 4.5625 9.73163 4.93361 9.73163 5.39141C9.73163 5.8492 10.1027 6.22031 10.5605 6.22031Z" fill="#DB1B1B"/>
<path d="M10.8535 10.3471C11.1499 10.3471 11.3902 10.1068 11.3902 9.81034C11.3902 9.51392 11.1499 9.27362 10.8535 9.27362C10.5571 9.27362 10.3168 9.51392 10.3168 9.81034C10.3168 10.1068 10.5571 10.3471 10.8535 10.3471Z" fill="#DB1B1B"/>
<path d="M11.0441 20.7793C11.5019 20.7793 11.873 20.4082 11.873 19.9504C11.873 19.4926 11.5019 19.1215 11.0441 19.1215C10.5863 19.1215 10.2152 19.4926 10.2152 19.9504C10.2152 20.4082 10.5863 20.7793 11.0441 20.7793Z" fill="#DB1B1B"/>
<path d="M12.8121 25.0243C13.1085 25.0243 13.3488 24.784 13.3488 24.4876C13.3488 24.1912 13.1085 23.9509 12.8121 23.9509C12.5157 23.9509 12.2754 24.1912 12.2754 24.4876C12.2754 24.784 12.5157 25.0243 12.8121 25.0243Z" fill="#DB1B1B"/>
<path d="M11.4535 15.3347C11.7499 15.3347 11.9902 15.0944 11.9902 14.798C11.9902 14.5016 11.7499 14.2613 11.4535 14.2613C11.1571 14.2613 10.9168 14.5016 10.9168 14.798C10.9168 15.0944 11.1571 15.3347 11.4535 15.3347Z" fill="#DB1B1B"/>
<path d="M34.8996 29.8008L29.6496 22.9259C29.0379 22.2544 28.6988 21.3787 28.6988 20.4704V11.7634H24.7926V20.4704C24.7923 21.3792 24.4527 22.2552 23.8402 22.9266L18.5902 29.8016C18.2799 30.1346 18.0991 30.5679 18.0808 31.0227C18.0732 31.2708 18.1155 31.5178 18.2051 31.7492C18.2948 31.9806 18.43 32.1917 18.6028 32.3698C18.7755 32.548 18.9823 32.6896 19.2108 32.7863C19.4394 32.8831 19.685 32.9329 19.9332 32.9329H33.5558C33.8041 32.933 34.0498 32.8832 34.2784 32.7866C34.5071 32.6899 34.7139 32.5483 34.8868 32.3701C35.0596 32.1919 35.1949 31.9809 35.2846 31.7494C35.3743 31.518 35.4166 31.2708 35.409 31.0227C35.3905 30.5677 35.2098 30.1343 34.8996 29.8008Z" fill="#C2E9FF"/>
<path d="M28.6989 11.7624V12.5311H28.07C27.552 12.5311 27.0552 12.7369 26.6889 13.1032C26.3226 13.4694 26.1168 13.9662 26.1168 14.4842V21.242C26.1163 22.151 25.7764 23.0269 25.1637 23.6983L19.9137 30.5733C19.6033 30.9061 19.4218 31.3389 19.402 31.7936C19.39 32.1974 19.5113 32.5939 19.7473 32.9217C19.2808 32.8743 18.8496 32.6518 18.5407 32.2991C18.2318 31.9464 18.068 31.4896 18.0825 31.021C18.1008 30.5661 18.2815 30.1329 18.5918 29.7999L23.8418 22.9249C24.4538 22.2535 24.7929 21.3778 24.7926 20.4694V11.7624H28.6989Z" fill="#AEE4FC"/>
<path d="M28.7418 10.1968H24.684C24.2516 10.1968 23.9012 10.5472 23.9012 10.9796C23.9012 11.4119 24.2516 11.7624 24.684 11.7624H28.7418C29.1741 11.7624 29.5246 11.4119 29.5246 10.9796C29.5246 10.5472 29.1741 10.1968 28.7418 10.1968Z" fill="#86E3FC"/>
<path d="M30.791 25.6563C30.7302 25.5773 30.6521 25.5134 30.5627 25.4694C30.4733 25.4254 30.375 25.4024 30.2754 25.4024H23.216C23.1164 25.4023 23.018 25.4251 22.9286 25.4691C22.8392 25.5132 22.7611 25.5772 22.7004 25.6563L19.6113 29.675C19.4085 29.9389 19.2986 30.2625 19.2988 30.5953C19.2988 30.9957 19.4578 31.3797 19.7409 31.6629C20.0239 31.9461 20.4078 32.1053 20.8082 32.1055H32.6832C32.8816 32.1055 33.078 32.0664 33.2613 31.9905C33.4446 31.9145 33.6111 31.8032 33.7513 31.6629C33.8916 31.5226 34.0028 31.356 34.0786 31.1727C34.1545 30.9894 34.1935 30.7929 34.1934 30.5945C34.1932 30.2618 34.0834 29.9383 33.8809 29.6742L30.791 25.6563Z" fill="#00B564"/>
<path d="M23.8629 25.4013L19.9145 30.5717C19.7177 30.7864 19.5707 31.042 19.484 31.3201C19.3436 31.0629 19.2808 30.7704 19.3034 30.4782C19.326 30.1859 19.433 29.9066 19.6114 29.674L22.7004 25.656C22.7612 25.577 22.8392 25.513 22.9287 25.469C23.0181 25.425 23.1164 25.4021 23.2161 25.4021L23.8629 25.4013Z" fill="#049E54"/>
<path d="M29.6121 27.9043C30.1173 27.9043 30.5269 27.4947 30.5269 26.9894C30.5269 26.4842 30.1173 26.0746 29.6121 26.0746C29.1068 26.0746 28.6973 26.4842 28.6973 26.9894C28.6973 27.4947 29.1068 27.9043 29.6121 27.9043Z" fill="#4ACC97"/>
<path d="M26.2824 31.6194C26.7876 31.6194 27.1972 31.2098 27.1972 30.7046C27.1972 30.1993 26.7876 29.7897 26.2824 29.7897C25.7771 29.7897 25.3675 30.1993 25.3675 30.7046C25.3675 31.2098 25.7771 31.6194 26.2824 31.6194Z" fill="#4ACC97"/>
<path d="M24.4518 27.7059C24.9571 27.7059 25.3667 27.2963 25.3667 26.791C25.3667 26.2858 24.9571 25.8762 24.4518 25.8762C23.9466 25.8762 23.537 26.2858 23.537 26.791C23.537 27.2963 23.9466 27.7059 24.4518 27.7059Z" fill="#4ACC97"/>
<path d="M26.7456 19.8637C27.2509 19.8637 27.6605 19.4541 27.6605 18.9488C27.6605 18.4436 27.2509 18.034 26.7456 18.034C26.2404 18.034 25.8308 18.4436 25.8308 18.9488C25.8308 19.4541 26.2404 19.8637 26.7456 19.8637Z" fill="#4ACC97"/>
<path d="M28.0628 7.25356C28.5681 7.25356 28.9777 6.84397 28.9777 6.33872C28.9777 5.83346 28.5681 5.42387 28.0628 5.42387C27.5576 5.42387 27.148 5.83346 27.148 6.33872C27.148 6.84397 27.5576 7.25356 28.0628 7.25356Z" fill="#4ACC97"/>
<path d="M25.3675 5.15863C25.8728 5.15863 26.2824 4.74904 26.2824 4.24379C26.2824 3.73853 25.8728 3.32894 25.3675 3.32894C24.8623 3.32894 24.4527 3.73853 24.4527 4.24379C24.4527 4.74904 24.8623 5.15863 25.3675 5.15863Z" fill="#4ACC97"/>
<path d="M22.5152 30.382C22.8422 30.382 23.1073 30.1168 23.1073 29.7898C23.1073 29.4627 22.8422 29.1976 22.5152 29.1976C22.1881 29.1976 21.923 29.4627 21.923 29.7898C21.923 30.1168 22.1881 30.382 22.5152 30.382Z" fill="#4ACC97"/>
<path d="M32.2808 31.2969C32.6078 31.2969 32.873 31.0317 32.873 30.7047C32.873 30.3776 32.6078 30.1125 32.2808 30.1125C31.9537 30.1125 31.6886 30.3776 31.6886 30.7047C31.6886 31.0317 31.9537 31.2969 32.2808 31.2969Z" fill="#4ACC97"/>
<path d="M25.6902 9.71172C26.0172 9.71172 26.2824 9.44659 26.2824 9.11953C26.2824 8.79248 26.0172 8.52734 25.6902 8.52734C25.3631 8.52734 25.098 8.79248 25.098 9.11953C25.098 9.44659 25.3631 9.71172 25.6902 9.71172Z" fill="#4ACC97"/>
<path d="M28.6972 24.5493C29.0243 24.5493 29.2894 24.2842 29.2894 23.9571C29.2894 23.6301 29.0243 23.3649 28.6972 23.3649C28.3701 23.3649 28.105 23.6301 28.105 23.9571C28.105 24.2842 28.3701 24.5493 28.6972 24.5493Z" fill="#4ACC97"/>
<path d="M27.198 13.8544C27.5251 13.8544 27.7902 13.5893 27.7902 13.2622C27.7902 12.9352 27.5251 12.6701 27.198 12.6701C26.871 12.6701 26.6059 12.9352 26.6059 13.2622C26.6059 13.5893 26.871 13.8544 27.198 13.8544Z" fill="#4ACC97"/>
<path d="M27.5394 16.3058C27.8962 16.3058 28.1855 15.8357 28.1855 15.2558C28.1855 14.6759 27.8962 14.2058 27.5394 14.2058C27.1826 14.2058 26.8933 14.6759 26.8933 15.2558C26.8933 15.8357 27.1826 16.3058 27.5394 16.3058Z" fill="white"/>
<path d="M27.5394 18.378C27.8285 18.378 28.0629 17.9975 28.0629 17.528C28.0629 17.0586 27.8285 16.678 27.5394 16.678C27.2504 16.678 27.016 17.0586 27.016 17.528C27.016 17.9975 27.2504 18.378 27.5394 18.378Z" fill="white"/>
<path d="M36.1629 32.9322C34.2902 35.2923 31.9084 37.1989 29.1955 38.5095C26.4826 39.8201 23.5086 40.5008 20.4957 40.5008C17.4828 40.5008 14.5088 39.8201 11.7959 38.5095C9.08301 37.1989 6.70125 35.2923 4.82852 32.9322H36.1629Z" fill="#4F4F74"/>
</g>
<defs>
<clipPath id="clip0">
<rect width="40" height="40" fill="white" transform="translate(0.495667 0.5)"/>
</clipPath>
</defs>
</svg>
