<svg width="40" height="40" viewBox="0 0 40 40" fill="none" xmlns="http://www.w3.org/2000/svg">
<g clip-path="url(#clip0)">
<path d="M3.52058 8.66504C2.23085 10.537 1.2507 12.639 0.656372 14.8981H9.75399L3.52058 8.66504Z" fill="#29337A"/>
<path d="M14.3959 0.799805C12.0916 1.47089 9.95749 2.54174 8.07825 3.93847L14.3959 10.2562V0.799805Z" fill="#29337A"/>
<path d="M8.547 36.3938C10.3097 37.6273 12.2791 38.5822 14.3948 39.1983V30.5469L8.547 36.3938Z" fill="#29337A"/>
<path d="M0.885132 25.9043C1.54642 28.0463 2.55976 30.0336 3.85482 31.8014L9.75188 25.9043H0.885132Z" fill="#29337A"/>
<path d="M3.85081 8.2041C3.73901 8.35695 3.6288 8.51199 3.5208 8.66864L9.75421 14.9017H0.656587C0.509146 15.4629 0.388812 16.0348 0.289673 16.6146H12.262L3.85081 8.2041Z" fill="white"/>
<path d="M8.07996 36.0653C8.23213 36.1787 8.38852 36.2867 8.54381 36.3953L14.3916 30.5482V39.1996C14.9535 39.3638 15.5241 39.5056 16.1045 39.6196V28.041L8.07996 36.0653Z" fill="white"/>
<path d="M0.446045 24.1924C0.570179 24.7728 0.716692 25.3444 0.890058 25.9053H9.7569L3.85983 31.8023C4.50119 32.6786 5.21239 33.501 5.98515 34.2614L16.0541 24.1924H0.446045Z" fill="white"/>
<path d="M14.3984 0.80089V10.2572L8.08069 3.93989C7.20972 4.58758 6.39558 5.30663 5.64124 6.08505L16.111 16.5548V0.380859C15.5309 0.495536 14.9603 0.637657 14.3984 0.80089Z" fill="white"/>
<path d="M14.3956 25.8467L14.3357 25.9069H14.3956V25.8467Z" fill="#D32030"/>
<path d="M16.0488 24.195H16.1087V24.1348L16.0488 24.195Z" fill="#D32030"/>
<path d="M23.7461 16.6133H23.6885V16.6713L23.7461 16.6133Z" fill="#D32030"/>
<path d="M14.4503 14.901L14.3914 14.8418V14.901H14.4503Z" fill="#D32030"/>
<path d="M16.1157 16.5547V16.6137H16.1747L16.1157 16.5547Z" fill="#D32030"/>
<path d="M25.4014 34.7707V39.254C27.5447 38.654 29.543 37.7082 31.3304 36.476L26.4726 31.6182C26.0844 32.982 25.9423 33.6872 25.4014 34.7707Z" fill="#252F6C"/>
<path d="M26.4981 9.15838L31.8012 3.85531C29.896 2.4601 27.7348 1.39685 25.4014 0.743164V5.34864C26.0251 6.59758 26.0775 7.54658 26.4981 9.15838Z" fill="#252F6C"/>
<path d="M36.0578 31.9188C37.3933 30.1223 38.4342 28.0943 39.1102 25.9053H30.0442L36.0578 31.9188Z" fill="#252F6C"/>
<path d="M39.3415 14.8994C38.7345 12.5925 37.7249 10.4512 36.3945 8.5498L30.0442 14.8994H39.3415Z" fill="#252F6C"/>
<path d="M27.6659 24.5319L29.0402 25.9062L35.6188 32.4848C35.7682 32.2978 35.9165 32.1115 36.0593 31.9198L30.0457 25.9062H39.1118C39.2845 25.3457 39.4313 24.7738 39.5551 24.1934H27.7944C27.7752 24.4362 27.6889 24.2906 27.6659 24.5319Z" fill="#E7E7E7"/>
<path d="M26.2876 10.1644L32.2501 4.20133C32.1007 4.08547 31.951 3.9702 31.7985 3.8584L26.4954 9.16147C26.5504 9.37115 26.2365 9.94968 26.2876 10.1644Z" fill="#E7E7E7"/>
<path d="M25.3994 4.98217V0.744876C24.8383 0.587639 24.267 0.454384 23.6865 0.345703V2.41258C24.3238 3.10351 24.8951 3.97136 25.3994 4.98217Z" fill="#E7E7E7"/>
<path d="M27.5297 16.6131H39.7063C39.6074 16.0333 39.4868 15.4617 39.3393 14.9003H30.0421L36.3924 8.55065C35.7681 7.65883 35.0743 6.82012 34.3164 6.04297L27.1637 13.195C27.3563 14.4923 27.4425 15.2457 27.5297 16.6131Z" fill="#E7E7E7"/>
<path d="M26.1814 31.3301L31.3285 36.4778C32.1846 35.8882 32.9908 35.232 33.743 34.5196L26.9728 27.749C26.7567 29.0012 26.5003 30.2106 26.1814 31.3301Z" fill="#E7E7E7"/>
<path d="M23.687 37.3513V39.6549C24.2674 39.5469 24.8384 39.413 25.3999 39.2557V34.7725C24.8953 35.7837 24.324 36.6612 23.687 37.3513Z" fill="#E7E7E7"/>
<path d="M27.1651 13.1948L34.3171 6.04283C33.6732 5.38154 32.9829 4.7661 32.2528 4.19922L26.6329 9.81998C26.8827 10.864 26.9961 12.059 27.1651 13.1948Z" fill="#D71F28"/>
<path d="M18.999 0.024658C19.3322 0.00852896 19.6645 0 19.9969 0C19.6625 0 19.3297 0.00852896 18.999 0.024658Z" fill="#D32030"/>
<path d="M19.9967 40.0018C19.6641 40.0018 19.3319 39.9927 18.9994 39.9766C19.3301 39.9933 19.6623 40.0018 19.9967 40.0018Z" fill="#D32030"/>
<path d="M19.9982 40.0004C21.26 40.0004 22.4923 39.8782 23.6891 39.6542V37.3506C22.6385 38.4893 21.4095 40.0004 19.9982 40.0004Z" fill="#D32030"/>
<path d="M39.7008 16.6123H27.6825C27.8417 19.1207 27.8224 21.7001 27.625 24.1913H39.5487C39.8373 22.8387 39.992 21.4373 39.992 19.9992C39.992 18.8439 39.8891 17.7141 39.7008 16.6123Z" fill="#D71F28"/>
<path d="M27.6579 24.5293C27.5467 25.711 27.1595 26.6318 26.9669 27.7466L33.7371 34.5168C34.407 33.882 35.0331 33.2031 35.6104 32.4822L29.0321 25.9033L27.6579 24.5293Z" fill="#D71F28"/>
<path d="M23.6888 2.56072V0.345466C22.4923 0.122192 21.2601 0 19.9978 0C21.4091 0 22.6382 1.42231 23.6888 2.56072Z" fill="#D32030"/>
<path d="M25.4041 35.6352C25.945 34.5514 26.4089 33.3038 26.7973 31.9401L25.4041 30.5469V35.6352Z" fill="#29337A"/>
<path d="M26.9707 8.6903C26.5494 7.0785 26.0278 5.6132 25.4041 4.36426V10.2563L26.9707 8.6903Z" fill="#29337A"/>
<path d="M28.0465 24.9171C28.0692 24.6758 28.0897 24.4336 28.1093 24.1904H27.3198L28.0465 24.9171Z" fill="white"/>
<path d="M25.3994 10.2559V4.36353C24.8948 3.35272 24.3238 2.48428 23.6865 1.79395V12.7639L27.1264 9.32401C27.0746 9.10926 27.0202 8.89891 26.966 8.68923L25.3994 10.2559Z" fill="white"/>
<path d="M23.7429 16.6141H28.1703C28.0835 15.2468 27.9452 13.9015 27.7528 12.6045L23.7429 16.6141Z" fill="white"/>
<path d="M23.687 38.2064C24.3243 37.5155 24.8953 36.6476 25.3999 35.6368V30.5485L26.7932 31.9418C27.1127 30.8217 27.3808 29.6251 27.5975 28.373L23.6871 24.4629L23.687 38.2064Z" fill="white"/>
<path d="M23.6887 38.2057V24.4622L27.5989 28.3726C27.7912 27.2575 27.9425 26.1011 28.0533 24.9191L27.3266 24.1924H28.1161C28.3135 21.7011 28.3327 19.1218 28.1736 16.6135H23.7462L27.7559 12.6039C27.5869 11.4677 27.3779 10.3687 27.1281 9.32435L23.6888 12.7642V1.79429C22.6381 0.655548 21.409 0 19.9977 0C19.6652 0 19.333 0.00852896 18.9998 0.024658C18.0161 0.0738895 17.0514 0.1949 16.1097 0.380594V16.5545L5.63966 6.0847C4.99636 6.74852 4.39798 7.45583 3.85035 8.20334L10.548 14.9009L12.2614 16.6138H0.289214C0.101661 17.7153 -0.00195312 18.8451 -0.00195312 20.0003C-0.00195312 21.4388 0.153426 22.8399 0.441384 24.1924H16.0497L5.98074 34.2614C6.64008 34.9091 7.34208 35.5123 8.08519 36.0643L16.1094 28.04V39.6188C17.0511 39.8045 18.0165 39.9254 19.0002 39.9748C19.3327 39.9909 19.6649 40 19.9975 40C21.409 40 22.6381 39.3445 23.6887 38.2057Z" fill="#E51D35"/>
</g>
<defs>
<clipPath id="clip0">
<rect width="40" height="40" fill="white" transform="translate(-0.00012207)"/>
</clipPath>
</defs>
</svg>
