<svg width="41" height="41" viewBox="0 0 41 41" fill="none" xmlns="http://www.w3.org/2000/svg">
<g clip-path="url(#clip0)">
<path d="M20.4957 40.5C31.5414 40.5 40.4957 31.5457 40.4957 20.5C40.4957 9.4543 31.5414 0.5 20.4957 0.5C9.44997 0.5 0.495667 9.4543 0.495667 20.5C0.495667 31.5457 9.44997 40.5 20.4957 40.5Z" fill="#7EC1EC"/>
<path d="M39.1035 27.844C36.1761 35.2557 28.9472 40.5002 20.4957 40.5002C16.4829 40.4985 12.5632 39.2908 9.24519 37.034C5.92716 34.7773 3.36387 31.5755 1.88785 27.844H4.15347C4.15347 27.844 5.17847 26.6643 4.24097 24.8659C4.22879 24.844 4.22406 24.8188 4.22751 24.7941C4.23095 24.7693 4.24238 24.7464 4.26005 24.7287C4.27772 24.711 4.30068 24.6996 4.32544 24.6962C4.35019 24.6927 4.3754 24.6974 4.39722 24.7096C4.91832 24.9682 5.89488 25.576 6.01441 26.5323C6.01441 26.5323 6.7816 24.6627 8.31519 23.5276C8.33528 23.5124 8.35978 23.5042 8.38495 23.5043C8.41013 23.5043 8.4346 23.5125 8.45467 23.5277C8.47473 23.5429 8.48929 23.5643 8.49612 23.5885C8.50296 23.6127 8.5017 23.6385 8.49253 23.662C8.18629 24.4432 7.51988 26.287 7.81753 26.969C7.81753 26.969 8.66128 26.6627 9.02925 25.8713C9.03902 25.8505 9.05485 25.833 9.07467 25.8212C9.0945 25.8095 9.11741 25.8039 9.14042 25.8054C9.16342 25.8068 9.18547 25.8151 9.20368 25.8293C9.22189 25.8434 9.23543 25.8627 9.24253 25.8846C9.39878 26.3885 9.63316 27.3776 9.21832 27.8448H20.0543C20.0584 27.8361 20.062 27.8273 20.0652 27.8182C20.0957 27.7346 20.1691 27.4581 19.9668 27.0963C19.8435 26.8892 19.6817 26.7075 19.4902 26.5612C19.4762 26.5504 19.4655 26.5359 19.4593 26.5193C19.4531 26.5028 19.4516 26.4848 19.455 26.4675C19.4584 26.4501 19.4666 26.4341 19.4786 26.4211C19.4906 26.4081 19.506 26.3987 19.523 26.394C19.6632 26.3557 19.806 26.3277 19.9503 26.3104C20.2628 26.2729 20.6472 26.2823 20.9839 26.4502C20.9839 26.4502 21.3636 25.237 22.1253 24.3643C22.1381 24.35 22.155 24.3398 22.1737 24.3352C22.1923 24.3306 22.212 24.3318 22.23 24.3386C22.248 24.3453 22.2635 24.3574 22.2745 24.3731C22.2855 24.3889 22.2916 24.4076 22.2917 24.4268C22.2917 25.0127 22.3543 26.4807 22.8839 26.9143C22.8839 26.9143 23.4878 26.0909 24.2199 25.9206C24.2394 25.9143 24.2603 25.9144 24.2797 25.921C24.2991 25.9275 24.3159 25.9402 24.3275 25.957C24.3392 25.9738 24.3451 25.9939 24.3444 26.0144C24.3438 26.0348 24.3365 26.0545 24.3238 26.0706C24.0543 26.4237 23.5003 27.226 23.5003 27.8448H31.7035C31.1316 27.2018 31.7863 25.5792 31.7863 25.5792C31.9511 26.2042 32.4113 26.5854 32.7433 26.7893L32.7519 26.794C32.791 26.8174 32.8277 26.8385 32.8621 26.8573C32.94 26.9009 33.021 26.939 33.1043 26.9713C33.2503 26.637 33.1652 26.0229 33.0035 25.3924C32.9636 25.2362 32.9191 25.0799 32.8722 24.9237C32.716 24.4065 32.5324 23.9229 32.4128 23.6229C32.3347 23.4276 32.2847 23.3104 32.2847 23.3104C32.4279 23.4001 32.5664 23.4971 32.6996 23.601C32.766 23.6518 32.8308 23.7049 32.8941 23.7573C32.9824 23.8307 33.0667 23.9081 33.1488 23.9862C33.1949 24.0307 33.2402 24.0752 33.2847 24.1206C33.4775 24.3156 33.6588 24.5217 33.8277 24.7377C34.0335 25.0003 34.2237 25.2747 34.3972 25.5596L34.4402 25.6307C34.6166 25.9203 34.7732 26.2215 34.9089 26.5323C34.9437 26.2753 35.0364 26.0295 35.18 25.8135C35.2574 25.6957 35.3453 25.5851 35.4425 25.4831C35.5534 25.3667 35.673 25.2591 35.8003 25.1612C35.9558 25.0406 36.1198 24.9315 36.291 24.8346C36.3275 24.8141 36.3695 24.8056 36.4111 24.8103C36.4528 24.815 36.4918 24.8327 36.5228 24.8609C36.5538 24.8891 36.5751 24.9264 36.5837 24.9674C36.5923 25.0084 36.5877 25.051 36.5707 25.0893C35.8246 26.762 36.766 27.8448 36.766 27.8448L39.1035 27.844Z" fill="#6B862D"/>
<path d="M32.2011 34.0091C32.1994 34.2411 32.1443 34.4697 32.0402 34.677C30.9605 36.9138 24.5441 38.6325 16.7886 38.6325C15.0092 38.6355 13.231 38.5405 11.4621 38.3481C8.36009 36.7726 5.72053 34.4184 3.80191 31.5161C5.34488 30.7927 7.54097 30.2075 10.1394 29.8348C10.7967 29.7406 11.4777 29.6601 12.1824 29.5934C12.798 29.5348 13.4324 29.488 14.0769 29.4536L14.2464 29.445L14.4332 29.4356C14.7602 29.421 15.0905 29.4093 15.4238 29.4005L15.6269 29.3958C15.841 29.3911 16.0566 29.3872 16.273 29.3856H16.7878C17.5566 29.3856 18.3121 29.4028 19.0535 29.4348C19.5769 29.4583 20.0925 29.4895 20.5972 29.5278C25.7347 29.9184 29.8425 31.0848 31.4566 32.5864C31.6703 32.7779 31.852 33.0024 31.9949 33.2513C32.1207 33.4725 32.191 33.7211 32.1996 33.9755C32.2011 33.9856 32.2011 33.9973 32.2011 34.0091Z" fill="#5F7629"/>
<path d="M22.9956 34.4998C30.4515 34.4998 36.4956 33.1566 36.4956 31.4998C36.4956 29.8429 30.4515 28.4998 22.9956 28.4998C15.5398 28.4998 9.49564 29.8429 9.49564 31.4998C9.49564 33.1566 15.5398 34.4998 22.9956 34.4998Z" fill="#556826"/>
<path d="M35.649 22.1461C35.649 22.6562 36.0626 25.0305 36.572 25.0305C37.0814 25.0305 37.4957 22.6562 37.4957 22.1461C37.4891 21.9056 37.3889 21.6772 37.2164 21.5094C37.044 21.3417 36.8129 21.2478 36.5723 21.2478C36.3318 21.2478 36.1007 21.3417 35.9282 21.5094C35.7558 21.6772 35.6556 21.9056 35.649 22.1461Z" fill="white"/>
<path d="M36.9499 24.6108C36.8351 24.8641 36.707 25.0306 36.572 25.0306C36.0625 25.0306 35.649 22.6563 35.649 22.1462C35.6489 21.969 35.6999 21.7956 35.7958 21.6467C35.8918 21.4977 36.0286 21.3796 36.1899 21.3064C36.1198 21.439 36.0833 21.5868 36.0835 21.7368C36.0835 22.2266 36.4663 24.4463 36.9499 24.6108Z" fill="#B5B5B5"/>
<path d="M33.754 11.6988C33.754 11.6988 36.5615 11.1516 36.903 21.6356C36.9046 21.6825 36.8965 21.7292 36.8792 21.7729C36.862 21.8165 36.8359 21.8562 36.8028 21.8894C36.7696 21.9226 36.7299 21.9486 36.6862 21.9659C36.6426 21.9831 36.5958 21.9912 36.5489 21.9896C36.5033 21.988 36.4585 21.9773 36.4171 21.9581C36.3757 21.9389 36.3386 21.9116 36.3079 21.8778C36.2773 21.844 36.2537 21.8044 36.2386 21.7614C36.2235 21.7183 36.2172 21.6727 36.22 21.6272C36.2984 20.4187 36.3334 16.2522 33.754 11.6988Z" fill="#535045"/>
<path d="M33.6042 22.6075C33.3341 24.2093 33.3341 28.1084 33.3341 28.1084C33.3341 28.3652 33.2151 28.6619 33.0787 28.918C32.9635 29.1331 32.8308 29.3384 32.6819 29.5317C32.0416 29.8186 31.2124 29.7046 30.7715 29.6101C30.7295 29.6012 30.6904 29.5818 30.6579 29.5536C30.6254 29.5255 30.6006 29.4896 30.5858 29.4492C30.571 29.4089 30.5666 29.3654 30.5732 29.323C30.5797 29.2805 30.5969 29.2404 30.6232 29.2063C30.79 29.0131 30.9778 28.839 31.183 28.6871C31.3906 28.579 31.5611 28.4113 31.6728 28.2057C32.0745 27.5206 32.1382 26.359 32.1123 25.4416C32.0908 24.6818 31.9272 23.9328 31.6302 23.2331C31.2166 22.2597 30.5805 20.707 30.2845 19.9834C30.8632 19.4348 31.9269 18.6468 32.7974 19.2354C32.9778 20.0309 33.2131 20.813 33.5013 21.5761C33.6259 21.9048 33.6614 22.2607 33.6042 22.6075Z" fill="#CCCCCC"/>
<path d="M32.4147 28.2065C32.3028 28.412 32.1322 28.5796 31.9248 28.688C31.7194 28.8396 31.5317 29.0138 31.365 29.2072C31.3388 29.2412 31.3215 29.2812 31.3149 29.3237C31.3084 29.3661 31.3126 29.4095 31.3274 29.4498C31.3421 29.4902 31.3669 29.5261 31.3993 29.5543C31.4317 29.5825 31.4707 29.602 31.5127 29.611C31.692 29.6492 31.8733 29.6775 32.0557 29.6956C31.6256 29.7348 31.1921 29.7062 30.7709 29.611C30.7289 29.6021 30.6898 29.5826 30.6573 29.5545C30.6248 29.5263 30.6 29.4904 30.5852 29.4501C30.5704 29.4097 30.566 29.3663 30.5726 29.3238C30.5791 29.2813 30.5963 29.2412 30.6226 29.2072C30.7894 29.014 30.9772 28.8398 31.1824 28.688C31.3899 28.5798 31.5605 28.4122 31.6722 28.2065C32.0739 27.5215 32.1376 26.3598 32.1117 25.4425C32.0902 24.6827 31.9266 23.9336 31.6295 23.234C31.216 22.2606 30.5799 20.7078 30.2839 19.9843C30.7926 19.5021 31.675 18.8352 32.4721 19.0802C31.9122 19.2257 31.3797 19.6498 31.0263 19.9843C31.3223 20.7078 31.9584 22.2606 32.3713 23.234C32.6689 23.9335 32.8327 24.6826 32.8541 25.4425C32.8835 26.3598 32.8135 27.5215 32.4147 28.2065Z" fill="#B5B5B5"/>
<path d="M29.8203 22.9825L30.5787 23.2961L29.8872 24.9688C29.8457 25.0693 29.7659 25.1491 29.6655 25.1908C29.565 25.2325 29.4522 25.2326 29.3517 25.191C29.2512 25.1495 29.1713 25.0697 29.1296 24.9693C29.0879 24.8689 29.0879 24.756 29.1294 24.6555L29.8209 22.9828L29.8203 22.9825Z" fill="#C7877F"/>
<path d="M30.8411 23.4179L31.6586 23.3415L31.8267 25.1418C31.8317 25.1955 31.8261 25.2496 31.8102 25.301C31.7943 25.3525 31.7684 25.4003 31.7341 25.4418C31.6997 25.4833 31.6575 25.5175 31.6098 25.5427C31.5622 25.5679 31.5101 25.5834 31.4564 25.5884C31.4028 25.5934 31.3487 25.5878 31.2972 25.5719C31.2458 25.556 31.1979 25.5301 31.1565 25.4957C31.115 25.4613 31.0807 25.4191 31.0555 25.3715C31.0304 25.3239 31.0149 25.2717 31.0099 25.2181L30.8418 23.4178L30.8411 23.4179Z" fill="#C7877F"/>
<path d="M33.1193 24.0178L33.3033 24.9548C33.339 25.1752 33.3313 25.3872 33.141 25.5104C33.0957 25.5397 33.0452 25.5598 32.9921 25.5696C32.9391 25.5793 32.8847 25.5785 32.832 25.5672C32.7793 25.5559 32.7293 25.5343 32.685 25.5037C32.6406 25.473 32.6027 25.4339 32.5735 25.3886L32.2992 24.3089C31.8802 24.4046 31.449 24.435 31.0207 24.3992C30.8423 24.3838 30.3209 24.2893 30.223 24.2718H30.2146H30.2076C30.111 24.2487 30.0137 24.2228 29.9172 24.1934C29.5681 24.0873 29.2312 23.9445 28.9123 23.7673L28.2825 24.6707C28.2205 24.7601 28.1255 24.8213 28.0185 24.8407C27.9114 24.8601 27.8009 24.8362 27.7115 24.7742C27.622 24.7123 27.5609 24.6173 27.5415 24.5102C27.522 24.4031 27.5459 24.2927 27.6079 24.2032L28.2307 23.3047C27.4148 22.6253 27.0047 21.7429 27.2454 20.9528C27.6191 19.7261 29.4196 19.188 31.267 19.7506C33.1144 20.3132 34.3096 21.7645 33.9352 22.9912C33.8065 23.4181 33.5007 23.7624 33.1193 24.0178Z" fill="#E79D90"/>
<path d="M17.0561 30.0208C16.9385 30.2937 16.7671 30.8402 16.674 31.1453C16.6334 31.2775 16.6082 31.3643 16.6082 31.3643C16.0904 32.3139 14.5089 32.1341 13.8091 31.999C13.7669 31.9906 13.7276 31.9715 13.695 31.9434C13.6624 31.9153 13.6376 31.8792 13.6231 31.8387C13.6086 31.7981 13.6048 31.7545 13.6121 31.7121C13.6195 31.6697 13.6377 31.6299 13.665 31.5966C13.8684 31.3631 14.0845 31.1409 14.3123 30.9312C14.4595 30.844 14.5929 30.7355 14.7083 30.6093C15.4389 29.8304 15.7804 28.3266 15.9336 27.3239C16.0243 26.7192 15.9885 26.1023 15.8287 25.5122L15.4088 23.9559L14.7042 21.3422L17.3353 21.0623C17.5739 21.5802 17.6852 22.3548 17.7125 23.2365C17.8062 26.0755 17.0561 30.0208 17.0561 30.0208Z" fill="#CCCCCC"/>
<path d="M17.047 25.5122C17.2076 26.1022 17.2433 26.7192 17.152 27.3238C16.9994 28.3266 16.6572 29.8304 15.9267 30.6093C15.8114 30.7357 15.6779 30.8442 15.5306 30.9311C15.3028 31.1409 15.0867 31.3631 14.8833 31.5966C14.856 31.6299 14.8378 31.6697 14.8304 31.7121C14.8231 31.7545 14.8269 31.7981 14.8414 31.8387C14.8559 31.8792 14.8807 31.9152 14.9133 31.9433C14.9459 31.9714 14.9852 31.9906 15.0275 31.999C15.1457 32.0214 15.2885 32.0452 15.4473 32.0648C14.8511 32.1606 14.1954 32.0725 13.8099 31.999C13.7676 31.9906 13.7283 31.9714 13.6957 31.9433C13.6631 31.9152 13.6383 31.8792 13.6238 31.8387C13.6093 31.7981 13.6055 31.7545 13.6128 31.7121C13.6202 31.6697 13.6384 31.6299 13.6657 31.5966C13.8691 31.3631 14.0852 31.1409 14.313 30.9311C14.4602 30.844 14.5937 30.7355 14.7091 30.6093C15.4396 29.8304 15.7811 28.3266 15.9344 27.3238C16.025 26.7192 15.9893 26.1023 15.8294 25.5122L15.4095 23.9559L14.7049 21.3422L17.336 21.0623C17.3542 21.1022 17.3724 21.1435 17.3892 21.1862L15.9197 21.3422L16.6243 23.9559L17.047 25.5122Z" fill="#B5B5B5"/>
<path d="M35.8589 23.9871C35.5888 25.5888 35.5888 29.488 35.5888 29.488C35.5865 29.6024 35.5679 29.716 35.5335 29.8252C35.5035 29.9268 35.4658 30.026 35.4208 30.1219C35.2884 30.4016 35.1263 30.6662 34.9373 30.9113C34.2963 31.1982 33.4678 31.0848 33.0255 30.9897C32.9655 30.9768 32.912 30.9427 32.8751 30.8936C32.8382 30.8444 32.8203 30.7836 32.8247 30.7223C32.828 30.6729 32.8466 30.6257 32.8779 30.5873C32.9811 30.4629 33.0954 30.3482 33.2194 30.2444C33.3432 30.1373 33.4405 30.0674 33.4405 30.0674C33.5989 29.9862 33.7351 29.8675 33.8373 29.7217C33.8936 29.6448 33.9431 29.5631 33.9849 29.4775C34.3348 28.7826 34.3915 27.691 34.3663 26.8183C34.3446 26.0593 34.1811 25.3109 33.8842 24.612C33.7645 24.3321 33.6266 23.999 33.4832 23.6547C32.964 22.4049 32.3783 20.9655 32.3783 20.9655C31.8303 20.2657 31.1453 20.3161 30.5414 20.6079L30.5162 20.6205C29.7205 21.0145 29.0719 21.8101 29.0719 21.8101C26.997 23.153 23.9482 23.3902 21.6277 23.3314C21.4677 23.3272 21.3085 23.3554 21.1596 23.4143C21.0107 23.4731 20.8752 23.5614 20.7613 23.6739C20.6473 23.7863 20.5572 23.9206 20.4964 24.0687C20.4356 24.2168 20.4053 24.3756 20.4073 24.5357L20.4304 26.994C20.3821 28.6545 21.2512 30.2129 21.2512 30.2129C21.1981 30.4774 21.2037 30.8749 21.2191 31.1779C21.2317 31.4263 21.2512 31.6124 21.2512 31.6124C20.9657 32.8587 19.7369 32.8181 19.1107 32.7111C19.0756 32.705 19.0426 32.6906 19.0143 32.6689C18.9861 32.6473 18.9636 32.6191 18.9486 32.5868C18.9337 32.5546 18.9268 32.5191 18.9286 32.4836C18.9304 32.4481 18.9407 32.4135 18.9588 32.3829C19.1722 32.0225 19.4647 31.6131 19.4647 31.6131C19.5371 31.4781 19.5845 31.3311 19.6047 31.1793C19.6712 30.793 19.6677 30.2738 19.6369 29.7798C19.5828 29.0174 19.3758 28.2736 19.0281 27.593C18.6621 26.8596 18.4991 25.9639 18.4991 25.9639C18.502 25.1853 18.3709 24.4119 18.1114 23.6778C18.0791 23.5807 18.027 23.4913 17.9583 23.4154C17.8896 23.3395 17.8059 23.2788 17.7125 23.2369C17.6627 23.2137 17.6103 23.1964 17.5565 23.1851C17.4033 23.1534 17.2439 23.1738 17.1037 23.2432C17.0666 23.2593 17.0324 23.2813 17.0023 23.3083C16.4089 23.7939 15.8763 23.971 15.4089 23.9563C13.8792 23.908 13.0437 21.8122 13.0437 21.8122C12.5398 20.787 10.7134 18.65 9.6505 17.4464C9.52796 17.3079 9.36946 17.2061 9.19257 17.1522C9.01569 17.0984 8.82734 17.0946 8.64843 17.1413C8.58899 17.1556 8.5311 17.1758 8.47559 17.2014C8.26522 17.2969 8.0479 17.3762 7.8255 17.4387C7.99415 17.27 8.40911 16.8159 8.40911 16.8159C8.52107 15.2442 6.88991 15.2442 6.12087 15.331C5.98977 15.3447 5.85945 15.365 5.7304 15.3918C5.90044 14.9811 5.66042 13.0259 5.66042 13.0259C5.34552 12.0595 6.0124 11.0918 6.57222 10.4921C6.77406 10.2743 6.99233 10.0724 7.2251 9.88816C7.69814 9.4599 8.41471 9.82518 8.64773 9.96233C8.66732 9.97353 8.68272 9.98403 8.69531 9.99173L8.7219 10.0092C8.97382 10.3325 9.22224 10.8279 9.42167 11.2961C9.86827 11.384 10.322 11.4309 10.7771 11.436H10.8597C11.67 11.4563 12.5706 11.4172 13.2592 11.3745C13.8678 11.3399 14.4773 11.4223 15.0548 11.6173C16.0387 11.9441 17.7524 12.1071 19.7572 12.1722C23.0462 12.2765 27.1237 12.1092 30.0242 11.9448C32.2236 11.8209 33.7484 11.6985 33.7484 11.6985C35.9695 11.9644 34.7869 17.4429 34.7869 17.4429C34.5678 19.5002 35.3516 21.8997 35.7504 22.9556C35.877 23.2839 35.9144 23.6397 35.8589 23.9871Z" fill="white"/>
<path d="M33.4811 23.6933C33.3708 23.7998 33.249 23.8936 33.118 23.9733C32.8443 23.3092 32.5924 22.6934 32.4595 22.368C32.347 22.0804 32.1356 21.8424 31.8633 21.6969C31.4287 21.4737 30.9536 21.5605 30.5239 21.7669C30.0474 21.9971 29.6205 22.375 29.3518 22.6458C29.0642 22.9362 28.7309 23.1773 28.3651 23.3596L28.3175 23.3826C28.014 23.1506 27.7505 22.8705 27.5373 22.5534C27.8581 22.4382 28.1713 22.3029 28.475 22.1483C28.7931 21.9831 29.0827 21.7681 29.3329 21.5115C29.6002 21.2393 30.0369 20.8467 30.5267 20.6102C30.9585 20.4002 31.4315 20.3149 31.8661 20.5402C32.1384 20.6857 32.3498 20.9237 32.4623 21.2113C32.6505 21.6731 33.0788 22.72 33.4685 23.6605C33.4713 23.6689 33.4762 23.6815 33.4811 23.6933Z" fill="#C7877F"/>
<path d="M6.57221 10.4927C6.43443 10.6402 6.30501 10.7954 6.18453 10.9573L6.09216 10.9496C5.92811 10.9323 5.77532 10.8581 5.66041 10.7397C5.45817 10.5417 5.12998 10.3968 4.75071 10.3646C4.09433 10.3093 3.53311 10.6102 3.49743 11.0364C3.46174 11.4626 3.96417 11.853 4.61705 11.9083C4.99703 11.9405 5.34481 11.853 5.57714 11.6914C5.64545 11.6436 5.72107 11.6072 5.80106 11.5836C5.59113 12.0308 5.49246 12.5276 5.65341 13.0237C5.65341 13.0237 5.89553 14.9789 5.72339 15.3897C5.85243 15.3628 5.98276 15.3425 6.11386 15.3288C6.63448 14.8389 6.99486 13.7949 6.99486 12.585C7.00186 11.7761 6.83952 11.0378 6.57221 10.4927Z" fill="#535045"/>
<path d="M6.19572 13.2155C6.37234 13.2155 6.51552 13.0128 6.51552 12.7627C6.51552 12.5127 6.37234 12.31 6.19572 12.31C6.01911 12.31 5.87593 12.5127 5.87593 12.7627C5.87593 13.0128 6.01911 13.2155 6.19572 13.2155Z" fill="#2B1812"/>
<path d="M21.2512 31.6121C20.9657 32.8584 19.7369 32.8178 19.1106 32.7107C19.0756 32.7047 19.0425 32.6902 19.0143 32.6685C18.9861 32.6469 18.9635 32.6187 18.9486 32.5865C18.9337 32.5542 18.9268 32.5188 18.9286 32.4832C18.9303 32.4477 18.9407 32.4131 18.9588 32.3825C19.1722 32.0221 19.4647 31.6128 19.4647 31.6128C19.5371 31.4777 19.5845 31.3308 19.6047 31.1789C19.8396 31.1042 20.0839 31.0625 20.3303 31.0551C20.6314 31.0446 20.9321 31.0862 21.219 31.1782C21.2316 31.4259 21.2512 31.6121 21.2512 31.6121Z" fill="#535045"/>
<path d="M20.8167 32.3895C20.3184 32.831 19.5571 32.7877 19.1106 32.7114C19.0756 32.7053 19.0425 32.6909 19.0143 32.6692C18.9861 32.6476 18.9635 32.6194 18.9486 32.5871C18.9337 32.5548 18.9268 32.5194 18.9286 32.4839C18.9303 32.4484 18.9407 32.4138 18.9588 32.3832C19.1722 32.0228 19.4647 31.6135 19.4647 31.6135C19.5371 31.4784 19.5845 31.3315 19.6047 31.1796C19.8128 31.1132 20.0283 31.0728 20.2463 31.0592C20.2256 31.1392 20.194 31.2159 20.1526 31.2874C20.1526 31.2874 19.8601 31.6974 19.6466 32.0571C19.6286 32.0877 19.6182 32.1223 19.6164 32.1578C19.6147 32.1933 19.6215 32.2288 19.6365 32.261C19.6514 32.2933 19.6739 32.3215 19.7022 32.3431C19.7304 32.3648 19.7634 32.3792 19.7985 32.3853C20.1349 32.4481 20.4798 32.4495 20.8167 32.3895Z" fill="#403D36"/>
<path d="M16.674 31.1463C16.6334 31.2785 16.6082 31.3653 16.6082 31.3653C16.0904 32.3149 14.5089 32.1351 13.8091 32C13.7669 31.9916 13.7276 31.9725 13.695 31.9444C13.6624 31.9163 13.6376 31.8802 13.6231 31.8397C13.6086 31.7991 13.6048 31.7555 13.6121 31.7131C13.6195 31.6707 13.6377 31.6309 13.665 31.5976C13.8684 31.3641 14.0845 31.1419 14.3123 30.9322C14.4595 30.845 14.5929 30.7365 14.7084 30.6103C14.8116 30.5954 14.9155 30.5863 15.0197 30.583C15.6894 30.562 16.2912 30.7838 16.674 31.1463Z" fill="#535045"/>
<path d="M16.194 31.802C15.5026 32.2442 14.3704 32.1064 13.8099 31.9993C13.7676 31.991 13.7283 31.9718 13.6957 31.9437C13.6631 31.9156 13.6383 31.8795 13.6238 31.839C13.6093 31.7985 13.6055 31.7549 13.6128 31.7124C13.6202 31.67 13.6384 31.6302 13.6657 31.597C13.8691 31.3634 14.0852 31.1413 14.313 30.9315C14.4602 30.8443 14.5937 30.7359 14.7091 30.6096C14.8123 30.5948 14.9162 30.5857 15.0205 30.5823C15.1372 30.5781 15.2541 30.5818 15.3704 30.5935C15.3459 30.6103 15.3207 30.6264 15.2955 30.6404C15.0677 30.8502 14.8516 31.0723 14.6482 31.3059C14.6209 31.3391 14.6027 31.3789 14.5953 31.4213C14.588 31.4638 14.5917 31.5074 14.6063 31.5479C14.6208 31.5884 14.6456 31.6245 14.6782 31.6526C14.7108 31.6807 14.7501 31.6999 14.7923 31.7082C15.2534 31.8007 15.7247 31.8322 16.194 31.802Z" fill="#403D36"/>
<path d="M35.5334 29.8248C35.5034 29.9264 35.4657 30.0256 35.4207 30.1215C35.2883 30.4011 35.1262 30.6658 34.9372 30.9108C34.2962 31.1977 33.4677 31.0844 33.0254 30.9892C32.9654 30.9763 32.9119 30.9422 32.875 30.8931C32.8381 30.844 32.8202 30.7832 32.8246 30.7219C32.8279 30.6724 32.8465 30.6252 32.8778 30.5868C32.9811 30.4625 33.0953 30.3477 33.2193 30.2439C33.3431 30.1369 33.4404 30.0669 33.4404 30.0669C33.5988 29.9857 33.735 29.867 33.8372 29.7212C33.8935 29.6443 33.943 29.5626 33.9848 29.477C34.5215 29.4668 35.0527 29.5861 35.5334 29.8248Z" fill="#535045"/>
<path d="M34.9785 30.8574L34.9372 30.9113C34.2962 31.1982 33.4677 31.0848 33.0254 30.9897C32.9654 30.9768 32.9119 30.9427 32.875 30.8936C32.8381 30.8444 32.8202 30.7836 32.8246 30.7224C32.8279 30.6729 32.8465 30.6257 32.8778 30.5873C32.9811 30.4629 33.0953 30.3482 33.2193 30.2444C33.3431 30.1373 33.4404 30.0674 33.4404 30.0674C33.5988 29.9862 33.735 29.8675 33.8372 29.7217C33.8935 29.6448 33.943 29.5631 33.9848 29.4775C34.158 29.4761 34.331 29.4868 34.5026 29.5096C34.4017 29.6535 34.2668 29.7703 34.1101 29.8497C34.1101 29.8497 34.0128 29.9197 33.889 30.0275C33.7649 30.1308 33.6505 30.2454 33.5475 30.3697C33.5164 30.4085 33.4979 30.4558 33.4943 30.5054C33.49 30.5667 33.508 30.6274 33.5449 30.6765C33.5818 30.7256 33.6351 30.7598 33.6951 30.7727C34.1159 30.8677 34.5489 30.8962 34.9785 30.8574Z" fill="#403D36"/>
<path d="M33.0785 28.9182C32.9633 29.1333 32.8306 29.3386 32.6817 29.5319C32.0415 29.8188 31.2122 29.7048 30.7714 29.6103C30.7293 29.6014 30.6902 29.5819 30.6578 29.5538C30.6253 29.5257 30.6005 29.4897 30.5856 29.4494C30.5708 29.4091 30.5665 29.3656 30.573 29.3231C30.5795 29.2807 30.5968 29.2405 30.623 29.2065C30.7899 29.0133 30.9776 28.8391 31.1828 28.6873C31.3904 28.5792 31.561 28.4115 31.6727 28.2059C32.2703 28.2751 32.7811 28.5404 33.0785 28.9182Z" fill="#535045"/>
<path d="M32.7349 29.4619C32.702 29.5067 32.6817 29.5319 32.6817 29.5319C32.0415 29.8188 31.2122 29.7048 30.7714 29.6103C30.7293 29.6014 30.6902 29.5819 30.6578 29.5538C30.6253 29.5257 30.6005 29.4897 30.5856 29.4494C30.5708 29.4091 30.5665 29.3656 30.573 29.3231C30.5795 29.2807 30.5968 29.2405 30.623 29.2065C30.7899 29.0133 30.9776 28.8391 31.1828 28.6873C31.3904 28.5792 31.561 28.4115 31.6727 28.2059C31.8233 28.2229 31.972 28.2536 32.117 28.2975C32.0498 28.3595 31.9739 28.4113 31.8917 28.4515C31.6863 28.6031 31.4985 28.7773 31.3319 28.9707C31.3056 29.0047 31.2884 29.0447 31.2818 29.0872C31.2752 29.1296 31.2796 29.173 31.2944 29.2133C31.3093 29.2536 31.3341 29.2895 31.3666 29.3176C31.3991 29.3456 31.4382 29.365 31.4802 29.3738C31.8916 29.4667 32.3146 29.4964 32.7349 29.4619Z" fill="#403D36"/>
<path d="M33.748 14.4155C34.0222 14.1632 33.9713 13.6618 33.6343 13.2954C33.2973 12.9291 32.8019 12.8365 32.5277 13.0888C32.2534 13.341 32.3044 13.8424 32.6413 14.2088C32.9783 14.5752 33.4738 14.6677 33.748 14.4155Z" fill="#535045"/>
<path d="M16.8007 14.1656C17.0749 13.9134 17.024 13.4119 16.6871 13.0456C16.3501 12.6792 15.8546 12.5867 15.5804 12.8389C15.3062 13.0911 15.3571 13.5926 15.6941 13.9589C16.0311 14.3253 16.5265 14.4178 16.8007 14.1656Z" fill="#535045"/>
<path d="M24.254 21.7761C24.6677 21.4993 24.8351 21.024 24.6279 20.7144C24.4208 20.4048 23.9176 20.3782 23.5039 20.6549C23.0903 20.9317 22.9228 21.407 23.13 21.7166C23.3371 22.0262 23.8404 22.0528 24.254 21.7761Z" fill="#535045"/>
<path d="M33.2425 17.5539L33.2369 17.5483C33.3202 17.4452 33.387 17.3297 33.4349 17.2061C33.635 16.6939 33.4867 16.1565 33.1032 16.0074C32.7197 15.8584 32.2467 16.1474 32.0466 16.6631C31.9673 16.8728 31.8299 17.0556 31.6505 17.19C31.6285 17.2061 31.6075 17.2234 31.5875 17.2418C31.1768 17.6197 31.253 18.3698 31.7576 18.9212C32.2621 19.4727 33.0038 19.607 33.4139 19.2298C33.824 18.8527 33.747 18.0997 33.2425 17.5539Z" fill="#535045"/>
<path d="M19.0918 17.2036C18.4214 16.4758 17.4753 16.2239 16.835 16.564C16.7911 16.5871 16.7406 16.595 16.6917 16.5862C16.6428 16.5775 16.5981 16.5527 16.5649 16.5157C15.952 15.8427 15.2156 15.2937 14.3956 14.8985C14.5846 14.3485 14.4467 13.7894 14.0458 13.5816C14.0108 13.5635 13.9742 13.5485 13.9366 13.5368C13.695 13.4524 13.49 13.287 13.3565 13.0686C13.2746 12.9435 13.1826 12.8254 13.0815 12.7152C12.5721 12.1617 11.9017 11.8846 11.3286 11.9329C11.2168 11.9418 11.1054 11.9112 11.014 11.8464C10.9225 11.7815 10.8568 11.6866 10.8282 11.5781C10.8149 11.5298 10.8016 11.483 10.7869 11.4382C10.3318 11.433 9.87809 11.3861 9.43149 11.2982C9.22856 10.8301 8.98014 10.3346 8.73172 10.0113L8.70513 9.99384C8.04175 10.4704 7.56871 11.7167 7.56871 13.1778C7.56871 14.4045 7.9018 15.4744 8.39164 16.072C8.50902 16.2112 8.59382 16.3749 8.63983 16.551C8.68583 16.7272 8.69189 16.9114 8.65755 17.0902C8.65755 17.107 8.65055 17.1238 8.64775 17.1413C8.82687 17.0943 9.0155 17.098 9.19266 17.1518C9.36982 17.2057 9.52856 17.3077 9.65122 17.4464C10.7142 18.65 12.5406 20.7871 13.0444 21.8122C13.0444 21.8122 14.4684 25.3845 17.003 23.3083C17.0331 23.2813 17.0673 23.2594 17.1044 23.2433C17.2446 23.1738 17.404 23.1534 17.5572 23.1852C18.117 22.5211 18.3801 21.6534 18.3696 20.7136C18.3659 20.5553 18.4137 20.4 18.5056 20.2711C18.5976 20.1421 18.7289 20.0465 18.8798 19.9984C19.0542 19.9477 19.2147 19.8574 19.3486 19.7346C19.9686 19.1629 19.8538 18.03 19.0918 17.2036Z" fill="#535045"/>
<path d="M16.7532 23.4984C14.374 25.1519 13.0444 21.8133 13.0444 21.8133C12.5406 20.7882 10.7142 18.6511 9.65122 17.4475C9.52869 17.309 9.37018 17.2072 9.1933 17.1534C9.01641 17.0995 8.82806 17.0957 8.64915 17.1424C8.69285 16.9565 8.69231 16.7629 8.64759 16.5771C8.60287 16.3914 8.5152 16.2188 8.39164 16.0732C7.9018 15.4756 7.56871 14.4056 7.56871 13.1789C7.56871 11.7178 8.03825 10.4715 8.69744 9.99288L8.72403 10.0104C8.97594 10.3337 9.22436 10.8291 9.42379 11.2972H9.43149C9.64922 11.3446 9.84123 11.472 9.96952 11.6542C10.0978 11.8364 10.153 12.0602 10.1243 12.2811C10.0833 12.5782 10.063 12.8777 10.0634 13.1775C10.0634 14.4021 10.393 15.4742 10.887 16.0718C11.0101 16.2174 11.0974 16.3898 11.1418 16.5753C11.1861 16.7608 11.1863 16.954 11.1424 17.1396C11.3213 17.0929 11.5097 17.0967 11.6866 17.1506C11.8635 17.2044 12.022 17.3062 12.1445 17.4447C13.2074 18.6483 15.0338 20.7854 15.5377 21.8105C15.5426 21.8133 15.9631 22.8679 16.7532 23.4984Z" fill="#49463D"/>
<path d="M29.9878 15.6772C29.8941 15.8147 29.8367 15.9737 29.8211 16.1394C29.8054 16.3051 29.832 16.472 29.8983 16.6247C30.1922 17.3013 30.1313 18.0158 29.6792 18.4315C29.0592 19.0018 27.9396 18.7925 27.1769 17.9647C27.1075 17.8866 27.0188 17.8283 26.9196 17.7956C26.8204 17.7629 26.7143 17.757 26.6122 17.7786C26.0566 17.9004 25.4888 17.9568 24.9201 17.9465H24.8655C24.7339 17.9434 24.6049 17.9841 24.4989 18.0622C24.3928 18.1404 24.3158 18.2516 24.2798 18.3783C24.2198 18.5928 24.1017 18.7866 23.9383 18.9381C23.3184 19.5091 22.198 19.2992 21.436 18.472C21.0119 18.0109 20.788 17.4553 20.7796 16.9549C20.7748 16.6726 20.6624 16.4028 20.4654 16.2006C20.2381 15.9694 20.0384 15.7125 19.8706 15.435C19.808 15.3287 19.7155 15.2431 19.6047 15.1888C19.4938 15.1346 19.3695 15.1141 19.2471 15.1299C19.0969 15.1518 18.9436 15.1274 18.8076 15.06C18.3493 14.8242 18.2324 14.1377 18.5466 13.5254C18.6704 13.2776 18.86 13.0687 19.0946 12.9215C19.3636 12.7663 19.5822 12.537 19.7243 12.2609C19.739 12.2322 19.7537 12.2028 19.7691 12.1741C23.058 12.2784 27.1356 12.1112 30.0361 11.9467C30.4101 12.4991 30.6065 13.1525 30.599 13.8196C30.5915 14.4866 30.3805 15.1354 29.9941 15.6793L29.9878 15.6772Z" fill="#535045"/>
<path d="M8.42586 13.2155C8.60248 13.2155 8.74565 13.0128 8.74565 12.7627C8.74565 12.5127 8.60248 12.31 8.42586 12.31C8.24924 12.31 8.10606 12.5127 8.10606 12.7627C8.10606 13.0128 8.24924 13.2155 8.42586 13.2155Z" fill="#2B1812"/>
<path d="M8.71203 16.1C8.71203 16.524 8.36845 17.0642 7.88281 17.4008C7.61079 17.6009 7.28407 17.713 6.94652 17.722C6.53785 17.722 6.16488 17.5121 5.87587 17.2161C5.51759 16.8522 5.29017 16.3603 5.29017 15.9908C5.29017 15.48 5.72612 15.3512 6.33982 15.3183C6.52736 15.3085 6.73099 15.3078 6.94442 15.3078C7.18988 15.3054 7.43526 15.318 7.67918 15.3456C8.27118 15.4198 8.71203 15.6192 8.71203 16.1Z" fill="#E79D90"/>
<path d="M7.88286 17.4008C7.61084 17.6009 7.28413 17.713 6.94657 17.722C6.53791 17.722 6.16493 17.5121 5.87593 17.2161C6.42455 16.7263 6.38256 15.7109 6.34198 15.3183C6.52951 15.3085 6.73314 15.3078 6.94657 15.3078C7.19203 15.3054 7.43741 15.318 7.68133 15.3456C7.49519 15.9824 7.71982 16.8858 7.88286 17.4008Z" fill="#C68880"/>
<path d="M6.3454 16.5594C6.43893 16.4717 6.36518 16.2411 6.18067 16.0445C5.99615 15.8478 5.77075 15.7595 5.67721 15.8473C5.58368 15.9351 5.65743 16.1656 5.84194 16.3623C6.02646 16.5589 6.25186 16.6472 6.3454 16.5594Z" fill="#381E14"/>
<path d="M6.35178 16.5583C6.307 16.6003 6.23072 16.6017 6.14185 16.5695C6.14719 16.566 6.15233 16.5623 6.15725 16.5583C6.25032 16.4694 6.17684 16.2392 5.9921 16.0426C5.91046 15.9512 5.80928 15.8795 5.6961 15.8326C5.79687 15.7626 6.00959 15.8543 6.18594 16.0426C6.36228 16.2308 6.44555 16.4694 6.35178 16.5583Z" fill="#2B1812"/>
<path d="M7.89747 16.3553C8.08199 16.1586 8.15574 15.928 8.0622 15.8403C7.96866 15.7525 7.74326 15.8408 7.55875 16.0374C7.37423 16.2341 7.30048 16.4647 7.39402 16.5524C7.48756 16.6402 7.71296 16.5519 7.89747 16.3553Z" fill="#381E14"/>
<path d="M7.39735 16.5583C7.44214 16.6003 7.51841 16.6017 7.60728 16.5695C7.60183 16.5662 7.59668 16.5625 7.59189 16.5583C7.49882 16.4694 7.5723 16.2392 7.75703 16.0426C7.83868 15.9512 7.93985 15.8795 8.05303 15.8326C7.95157 15.7626 7.73954 15.8543 7.5632 16.0426C7.37706 16.2392 7.30289 16.4694 7.39735 16.5583Z" fill="#2B1812"/>
<path d="M9.61404 12.0554C9.58115 12.4249 9.55106 13.1464 9.74069 13.7125C9.80827 13.9047 9.85336 14.104 9.87505 14.3066C9.92893 14.8853 9.89184 15.9322 9.06682 16.5822C9.059 16.5878 9.04955 16.5906 9.03997 16.5902C9.03038 16.5899 9.02118 16.5863 9.01382 16.5802C9.00646 16.574 9.00135 16.5656 8.99929 16.5562C8.99723 16.5468 8.99834 16.537 9.00244 16.5284C9.20397 16.1274 9.68401 15.0505 9.56225 14.0897C9.55376 14.0287 9.54209 13.9682 9.52726 13.9084C9.46219 13.6355 9.27465 12.7048 9.53286 12.0372C9.53704 12.0285 9.54404 12.0215 9.55272 12.0173C9.56141 12.0131 9.57127 12.0119 9.58069 12.0141C9.59011 12.0162 9.59853 12.0214 9.60459 12.0289C9.61065 12.0364 9.61398 12.0458 9.61404 12.0554Z" fill="#403D36"/>
<path d="M30.5239 20.6097L30.5162 20.6223C29.7206 21.0162 29.0719 21.8119 29.0719 21.8119C26.9971 23.1547 23.9482 23.392 21.6278 23.3332C21.6278 23.3332 27.0286 22.5144 30.5239 20.6097Z" fill="#CCCCCC"/>
<path d="M30.661 23.8078C31.0258 23.8078 31.3215 23.6556 31.3215 23.4677C31.3215 23.2799 31.0258 23.1276 30.661 23.1276C30.2961 23.1276 30.0004 23.2799 30.0004 23.4677C30.0004 23.6556 30.2961 23.8078 30.661 23.8078Z" fill="#F0D3D0"/>
<path d="M31.7288 23.6224C31.895 23.6224 32.0297 23.5532 32.0297 23.4678C32.0297 23.3824 31.895 23.3131 31.7288 23.3131C31.5626 23.3131 31.4279 23.3824 31.4279 23.4678C31.4279 23.5532 31.5626 23.6224 31.7288 23.6224Z" fill="#F0D3D0"/>
<path d="M10.6442 11.5522C11.274 11.35 11.6728 10.856 11.5413 10.4494C11.4097 10.0428 10.796 9.87559 10.169 10.0778C9.80585 10.1947 9.51895 10.4095 9.3664 10.6488C9.28082 10.7892 9.14852 10.895 8.99272 10.9476C8.91702 10.9722 8.85416 11.0257 8.81794 11.0966C8.78173 11.1674 8.77512 11.2498 8.79959 11.3255L8.80449 11.3409C8.81641 11.3785 8.83564 11.4133 8.86107 11.4435C8.8865 11.4736 8.91763 11.4984 8.95267 11.5165C8.98772 11.5346 9.02598 11.5456 9.06528 11.5488C9.10457 11.552 9.14412 11.5475 9.18166 11.5354C9.3389 11.4872 9.50812 11.4958 9.6596 11.5599C9.92272 11.6628 10.281 11.6691 10.6442 11.5522Z" fill="#403D36"/>
<path d="M10.393 11.1609C10.687 11.0664 10.8752 10.8348 10.8129 10.6445C10.7506 10.4541 10.463 10.3758 10.1698 10.4702C10.018 10.5143 9.8855 10.6085 9.79405 10.7375C9.75428 10.8035 9.69224 10.8532 9.6191 10.8775C9.60151 10.8831 9.5852 10.8922 9.57113 10.9041C9.55705 10.9161 9.54548 10.9307 9.53709 10.9472C9.5287 10.9637 9.52365 10.9816 9.52223 11C9.52082 11.0185 9.52306 11.037 9.52883 11.0545V11.0615C9.5344 11.0791 9.54338 11.0954 9.55527 11.1095C9.56716 11.1236 9.58171 11.1352 9.5981 11.1437C9.61448 11.1521 9.63238 11.1573 9.65076 11.1588C9.66913 11.1603 9.68763 11.1582 9.70518 11.1525C9.77883 11.1299 9.85808 11.1339 9.9291 11.1637C10.0796 11.2155 10.2432 11.2146 10.393 11.1609Z" fill="#35332D"/>
<path d="M4.75284 10.7802C4.44774 10.7361 4.17693 10.86 4.14754 11.0601C4.11815 11.2603 4.34277 11.4555 4.64787 11.4996C4.80304 11.5282 4.96333 11.5036 5.10272 11.4296C5.16779 11.3883 5.24533 11.3712 5.32175 11.3813C5.34005 11.3841 5.35872 11.3832 5.37667 11.3787C5.39463 11.3742 5.41151 11.3662 5.42635 11.3552C5.44119 11.3441 5.45369 11.3302 5.46312 11.3143C5.47255 11.2983 5.47873 11.2807 5.48129 11.2624V11.2547C5.48397 11.2365 5.48303 11.2179 5.47854 11.2001C5.47404 11.1823 5.46607 11.1655 5.45509 11.1507C5.4441 11.136 5.43032 11.1235 5.41453 11.1141C5.39873 11.1047 5.38123 11.0985 5.36303 11.0958C5.28699 11.0834 5.21768 11.0448 5.1671 10.9867C5.05642 10.8729 4.91034 10.8001 4.75284 10.7802Z" fill="#403D36"/>
</g>
<defs>
<clipPath id="clip0">
<rect width="40" height="40" fill="white" transform="translate(0.495667 0.5)"/>
</clipPath>
</defs>
</svg>
