<svg width="41" height="41" viewBox="0 0 41 41" fill="none" xmlns="http://www.w3.org/2000/svg">
<g clip-path="url(#clip0)">
<path d="M20.4957 40.5C31.5414 40.5 40.4957 31.5457 40.4957 20.5C40.4957 9.4543 31.5414 0.5 20.4957 0.5C9.44997 0.5 0.495667 9.4543 0.495667 20.5C0.495667 31.5457 9.44997 40.5 20.4957 40.5Z" fill="#F7BB38"/>
<path d="M29.6244 8.71704L14.7095 10.4224C14.5847 10.4369 14.4696 10.4967 14.3861 10.5905C14.3026 10.6843 14.2564 10.8055 14.2565 10.9311V24.6293C13.4332 23.9976 12.3375 23.6119 11.1343 23.6119C8.57851 23.6119 6.50681 25.3509 6.50681 27.4951C6.50681 29.6393 8.57787 31.3783 11.1343 31.3783C13.6908 31.3783 15.7619 29.6399 15.7619 27.4951V14.1626L28.6892 12.6488V22.5155C27.8659 21.8838 26.7702 21.4987 25.567 21.4987C23.0112 21.4987 20.9395 23.2371 20.9395 25.382C20.9395 27.5268 23.0106 29.2652 25.567 29.2652C28.0834 29.2652 30.1292 27.5825 30.192 25.481V9.22574C30.1921 9.1538 30.177 9.08266 30.1476 9.01696C30.1183 8.95126 30.0755 8.89248 30.0219 8.84447C29.9684 8.79646 29.9053 8.76029 29.8368 8.73833C29.7683 8.71637 29.6959 8.70912 29.6244 8.71704Z" fill="#FC4581"/>
<path d="M15.6422 28.3759C15.1665 30.0962 13.3291 31.379 11.1337 31.379C8.57792 31.379 6.50621 29.6399 6.50621 27.4957C6.50621 26.6039 6.86476 25.7819 7.46731 25.1263C7.38779 25.4131 7.34752 25.7095 7.34758 26.0071C7.34758 28.1513 9.41864 29.8904 11.9751 29.8904C13.4682 29.8904 14.7956 29.2969 15.6422 28.3759Z" fill="#FA3268"/>
<path d="M13.2022 27.9018C13.7841 27.9018 14.2558 27.4301 14.2558 26.8482C14.2558 26.2663 13.7841 25.7945 13.2022 25.7945C12.6203 25.7945 12.1485 26.2663 12.1485 26.8482C12.1485 27.4301 12.6203 27.9018 13.2022 27.9018Z" fill="#F76B9D"/>
<path d="M11.0076 27.5944C11.4197 27.5944 11.7538 27.2603 11.7538 26.8482C11.7538 26.436 11.4197 26.102 11.0076 26.102C10.5954 26.102 10.2613 26.436 10.2613 26.8482C10.2613 27.2603 10.5954 27.5944 11.0076 27.5944Z" fill="#F76B9D"/>
<path d="M30.0749 26.2612C29.5992 27.9814 27.7618 29.2642 25.5664 29.2642C23.0106 29.2642 20.9389 27.5252 20.9389 25.381C20.9389 24.4891 21.2975 23.6672 21.9 23.0115C21.8205 23.2984 21.7802 23.5947 21.7803 23.8924C21.7803 26.0366 23.8513 27.7756 26.4078 27.7756C27.9009 27.7756 29.2283 27.1821 30.0749 26.2612Z" fill="#FA3268"/>
<path d="M27.635 25.7879C28.2169 25.7879 28.6887 25.3162 28.6887 24.7342C28.6887 24.1523 28.2169 23.6806 27.635 23.6806C27.0531 23.6806 26.5813 24.1523 26.5813 24.7342C26.5813 25.3162 27.0531 25.7879 27.635 25.7879Z" fill="#F76B9D"/>
<path d="M25.4403 25.4805C25.8524 25.4805 26.1865 25.1464 26.1865 24.7342C26.1865 24.3221 25.8524 23.988 25.4403 23.988C25.0281 23.988 24.694 24.3221 24.694 24.7342C24.694 25.1464 25.0281 25.4805 25.4403 25.4805Z" fill="#F76B9D"/>
<path d="M15.7613 14.1592V10.3012L16.8414 10.1782V14.0323L15.7613 14.1592Z" fill="#FA3268"/>
<path d="M7.1363 13.0776C7.13924 12.995 7.12551 12.9126 7.09592 12.8354C7.06633 12.7582 7.02148 12.6877 6.96406 12.6282C6.90664 12.5687 6.83782 12.5214 6.76171 12.4891C6.6856 12.4568 6.60376 12.4401 6.52107 12.4401C6.43837 12.4401 6.35653 12.4568 6.28042 12.4891C6.20431 12.5214 6.13549 12.5687 6.07807 12.6282C6.02065 12.6877 5.9758 12.7582 5.94621 12.8354C5.91662 12.9126 5.90289 12.995 5.90583 13.0776C5.90583 13.4175 6.52068 14.4573 6.52068 14.4573C6.52068 14.4573 7.1363 13.4144 7.1363 13.0776Z" fill="white"/>
<path d="M5.90263 16.3493C5.89968 16.4319 5.91342 16.5143 5.94301 16.5915C5.9726 16.6687 6.01744 16.7392 6.07486 16.7987C6.13228 16.8582 6.2011 16.9055 6.27722 16.9378C6.35333 16.9702 6.43517 16.9868 6.51786 16.9868C6.60055 16.9868 6.6824 16.9702 6.75851 16.9378C6.83462 16.9055 6.90344 16.8582 6.96086 16.7987C7.01828 16.7392 7.06312 16.6687 7.09272 16.5915C7.12231 16.5143 7.13604 16.4319 7.13309 16.3493C7.13309 16.0094 6.51747 14.9696 6.51747 14.9696C6.51747 14.9696 5.90263 16.0094 5.90263 16.3493Z" fill="white"/>
<path d="M8.15183 14.0936C7.81198 14.0936 6.77214 14.7093 6.77214 14.7093C6.77214 14.7093 7.81198 15.3241 8.15183 15.3241C8.23447 15.3271 8.31685 15.3133 8.39407 15.2837C8.47128 15.2541 8.54174 15.2093 8.60125 15.1519C8.66075 15.0945 8.70807 15.0256 8.7404 14.9495C8.77272 14.8734 8.78938 14.7916 8.78938 14.7089C8.78938 14.6262 8.77272 14.5443 8.7404 14.4682C8.70807 14.3921 8.66075 14.3233 8.60125 14.2659C8.54174 14.2085 8.47128 14.1636 8.39407 14.134C8.31685 14.1044 8.23447 14.0907 8.15183 14.0936Z" fill="white"/>
<path d="M4.88079 14.0936C4.79815 14.0907 4.71577 14.1044 4.63856 14.134C4.56134 14.1636 4.49088 14.2085 4.43138 14.2659C4.37187 14.3233 4.32455 14.3921 4.29222 14.4682C4.2599 14.5443 4.24324 14.6262 4.24324 14.7089C4.24324 14.7916 4.2599 14.8734 4.29222 14.9495C4.32455 15.0256 4.37187 15.0945 4.43138 15.1519C4.49088 15.2093 4.56134 15.2541 4.63856 15.2837C4.71577 15.3133 4.79815 15.3271 4.88079 15.3241C5.22064 15.3241 6.26048 14.7093 6.26048 14.7093C6.26048 14.7093 5.22064 14.0936 4.88079 14.0936Z" fill="white"/>
<path d="M22.0909 34.7416C22.0853 34.5823 22.018 34.4313 21.9032 34.3206C21.7884 34.2098 21.6352 34.1479 21.4757 34.1479C21.3162 34.1479 21.163 34.2098 21.0482 34.3206C20.9335 34.4313 20.8662 34.5823 20.8605 34.7416C20.8605 35.0823 21.4753 36.1221 21.4753 36.1221C21.4753 36.1221 22.0909 35.0823 22.0909 34.7416Z" fill="white"/>
<path d="M20.8605 38.0164C20.8662 38.1758 20.9335 38.3267 21.0482 38.4374C21.163 38.5482 21.3162 38.6101 21.4757 38.6101C21.6352 38.6101 21.7884 38.5482 21.9032 38.4374C22.018 38.3267 22.0853 38.1758 22.0909 38.0164C22.0909 37.6758 21.4753 36.6359 21.4753 36.6359C21.4753 36.6359 20.8605 37.6758 20.8605 38.0164Z" fill="white"/>
<path d="M23.1128 35.7632C22.7729 35.7632 21.7331 36.3788 21.7331 36.3788C21.7331 36.3788 22.7729 36.9944 23.1128 36.9944C23.276 36.9944 23.4326 36.9296 23.5481 36.8141C23.6635 36.6987 23.7284 36.5421 23.7284 36.3788C23.7284 36.2155 23.6635 36.0589 23.5481 35.9435C23.4326 35.828 23.276 35.7632 23.1128 35.7632Z" fill="white"/>
<path d="M19.8386 35.7632C19.6753 35.7632 19.5187 35.828 19.4032 35.9435C19.2878 36.0589 19.2229 36.2155 19.2229 36.3788C19.2229 36.5421 19.2878 36.6987 19.4032 36.8141C19.5187 36.9296 19.6753 36.9944 19.8386 36.9944C20.1784 36.9944 21.2183 36.3788 21.2183 36.3788C21.2183 36.3788 20.1784 35.7632 19.8386 35.7632Z" fill="white"/>
<path d="M21.8339 16.7776C21.8339 16.6143 21.7691 16.4577 21.6536 16.3423C21.5382 16.2268 21.3816 16.162 21.2183 16.162C21.055 16.162 20.8985 16.2268 20.783 16.3423C20.6676 16.4577 20.6027 16.6143 20.6027 16.7776C20.6027 17.1174 21.2183 18.1573 21.2183 18.1573C21.2183 18.1573 21.8339 17.1174 21.8339 16.7776Z" fill="white"/>
<path d="M20.6027 20.051C20.6027 20.2143 20.6676 20.3709 20.783 20.4863C20.8985 20.6018 21.055 20.6667 21.2183 20.6667C21.3816 20.6667 21.5382 20.6018 21.6536 20.4863C21.7691 20.3709 21.8339 20.2143 21.8339 20.051C21.8339 19.7112 21.2183 18.6713 21.2183 18.6713C21.2183 18.6713 20.6027 19.7112 20.6027 20.051Z" fill="white"/>
<path d="M22.855 17.7994C22.5152 17.7994 21.4753 18.4142 21.4753 18.4142C21.4753 18.4142 22.5152 19.0299 22.855 19.0299C22.9377 19.0328 23.02 19.0191 23.0973 18.9895C23.1745 18.9599 23.2449 18.915 23.3044 18.8576C23.3639 18.8002 23.4113 18.7314 23.4436 18.6553C23.4759 18.5792 23.4926 18.4973 23.4926 18.4146C23.4926 18.3319 23.4759 18.2501 23.4436 18.174C23.4113 18.0979 23.3639 18.029 23.3044 17.9716C23.2449 17.9142 23.1745 17.8694 23.0973 17.8398C23.02 17.8102 22.9377 17.7964 22.855 17.7994Z" fill="white"/>
<path d="M19.5808 17.7995C19.4214 17.8052 19.2705 17.8725 19.1597 17.9872C19.049 18.102 18.9871 18.2553 18.9871 18.4147C18.9871 18.5742 19.049 18.7275 19.1597 18.8422C19.2705 18.957 19.4214 19.0243 19.5808 19.03C19.9207 19.03 20.9613 18.4143 20.9613 18.4143C20.9613 18.4143 19.9207 17.7995 19.5808 17.7995Z" fill="white"/>
<path d="M18.7456 2.98345C18.7456 2.82018 18.6807 2.66359 18.5653 2.54814C18.4498 2.43269 18.2932 2.36783 18.13 2.36783C17.9667 2.36783 17.8101 2.43269 17.6946 2.54814C17.5792 2.66359 17.5143 2.82018 17.5143 2.98345C17.5143 3.32408 18.13 4.36392 18.13 4.36392C18.13 4.36392 18.7456 3.32408 18.7456 2.98345Z" fill="white"/>
<path d="M17.5143 6.25857C17.5143 6.42184 17.5792 6.57843 17.6946 6.69388C17.8101 6.80933 17.9667 6.87419 18.13 6.87419C18.2932 6.87419 18.4498 6.80933 18.5653 6.69388C18.6807 6.57843 18.7456 6.42184 18.7456 6.25857C18.7456 5.91794 18.13 4.8781 18.13 4.8781C18.13 4.8781 17.5143 5.91794 17.5143 6.25857Z" fill="white"/>
<path d="M19.7667 4.00536C19.4269 4.00536 18.3871 4.62099 18.3871 4.62099C18.3871 4.62099 19.4269 5.23661 19.7667 5.23661C19.8476 5.23661 19.9276 5.22069 20.0023 5.18975C20.077 5.15881 20.1449 5.11347 20.2021 5.0563C20.2592 4.99914 20.3046 4.93127 20.3355 4.85658C20.3664 4.78189 20.3824 4.70183 20.3824 4.62099C20.3824 4.54014 20.3664 4.46009 20.3355 4.3854C20.3046 4.31071 20.2592 4.24284 20.2021 4.18568C20.1449 4.12851 20.077 4.08316 20.0023 4.05223C19.9276 4.02129 19.8476 4.00536 19.7667 4.00536Z" fill="white"/>
<path d="M16.4925 4.00536C16.4117 4.00536 16.3316 4.02129 16.257 4.05223C16.1823 4.08316 16.1144 4.12851 16.0572 4.18568C16.0001 4.24284 15.9547 4.31071 15.9238 4.3854C15.8928 4.46009 15.8769 4.54014 15.8769 4.62099C15.8769 4.70183 15.8928 4.78189 15.9238 4.85658C15.9547 4.93127 16.0001 4.99914 16.0572 5.0563C16.1144 5.11347 16.1823 5.15881 16.257 5.18975C16.3316 5.22069 16.4117 5.23661 16.4925 5.23661C16.8324 5.23661 17.8722 4.62099 17.8722 4.62099C17.8722 4.62099 16.8324 4.00536 16.4925 4.00536Z" fill="white"/>
<path d="M37.6604 20.8484C37.6604 20.6851 37.5956 20.5285 37.4801 20.4131C37.3647 20.2976 37.2081 20.2327 37.0448 20.2327C36.8815 20.2327 36.725 20.2976 36.6095 20.4131C36.4941 20.5285 36.4292 20.6851 36.4292 20.8484C36.4292 21.1882 37.0448 22.2281 37.0448 22.2281C37.0448 22.2281 37.6604 21.1882 37.6604 20.8484Z" fill="white"/>
<path d="M36.4332 24.1227C36.4332 24.286 36.498 24.4425 36.6135 24.558C36.7289 24.6735 36.8855 24.7383 37.0488 24.7383C37.2121 24.7383 37.3687 24.6735 37.4841 24.558C37.5996 24.4425 37.6644 24.286 37.6644 24.1227C37.6644 23.7828 37.0488 22.743 37.0488 22.743C37.0488 22.743 36.4332 23.7813 36.4332 24.1227Z" fill="white"/>
<path d="M38.6824 21.8703C38.3418 21.8703 37.3019 22.4859 37.3019 22.4859C37.3019 22.4859 38.3418 23.1008 38.6824 23.1008C38.8418 23.0951 38.9927 23.0278 39.1034 22.913C39.2142 22.7983 39.2761 22.645 39.2761 22.4855C39.2761 22.326 39.2142 22.1728 39.1034 22.058C38.9927 21.9433 38.8418 21.876 38.6824 21.8703Z" fill="white"/>
<path d="M35.4081 21.8702C35.3255 21.8672 35.2431 21.881 35.1659 21.9106C35.0887 21.9401 35.0182 21.985 34.9587 22.0424C34.8992 22.0998 34.8519 22.1686 34.8196 22.2448C34.7872 22.3209 34.7706 22.4027 34.7706 22.4854C34.7706 22.5681 34.7872 22.6499 34.8196 22.726C34.8519 22.8022 34.8992 22.871 34.9587 22.9284C35.0182 22.9858 35.0887 23.0307 35.1659 23.0603C35.2431 23.0898 35.3255 23.1036 35.4081 23.1006C35.748 23.1006 36.7878 22.4858 36.7878 22.4858C36.7878 22.4858 35.748 21.8702 35.4081 21.8702Z" fill="white"/>
</g>
<defs>
<clipPath id="clip0">
<rect width="40" height="40" fill="white" transform="translate(0.495667 0.5)"/>
</clipPath>
</defs>
</svg>
