<svg width="40" height="40" viewBox="0 0 40 40" fill="none" xmlns="http://www.w3.org/2000/svg">
<path d="M19.9999 40C31.0456 40 39.9999 31.0457 39.9999 20C39.9999 8.9543 31.0456 0 19.9999 0C8.95418 0 -0.00012207 8.9543 -0.00012207 20C-0.00012207 31.0457 8.95418 40 19.9999 40Z" fill="#78C795"/>
<path d="M9.7351 33.044C8.87181 33.044 8.18541 32.8061 7.70611 32.3268C6.54174 31.1625 6.80166 28.7745 8.43799 25.6027C10.0039 22.5673 12.6526 19.1094 15.896 15.866C19.1393 12.6225 22.5973 9.97396 25.6327 8.40802C28.8045 6.77177 31.1924 6.51185 32.3568 7.67615C33.5212 8.84052 33.2613 11.2285 31.6249 14.4003C30.059 17.4357 27.4103 20.8936 24.167 24.137C20.9236 27.3804 17.4656 30.029 14.4303 31.595C12.5641 32.5578 10.9691 33.044 9.7351 33.044ZM30.3219 7.77763C29.2465 7.77763 27.7654 8.23997 26.0125 9.14435C23.0511 10.6722 19.6663 13.2673 16.4818 16.4519C13.2973 19.6365 10.702 23.0212 9.17424 25.9826C7.73791 28.7667 7.41635 30.8656 8.29197 31.7411C9.16752 32.6168 11.2665 32.2951 14.0505 30.8589C17.0119 29.3311 20.3967 26.7359 23.5812 23.5513C26.7657 20.3667 29.361 16.982 30.8888 14.0206C32.3251 11.2365 32.6467 9.13763 31.771 8.26208C31.4467 7.93771 30.9544 7.77763 30.3219 7.77763Z" fill="#DECEE5"/>
<path d="M6.6954 24.1382C6.9661 23.8675 7.28094 23.6636 7.61524 23.5283C8.61665 23.1238 9.80719 23.326 10.6195 24.1383C11.7023 25.2212 11.7007 26.9777 10.6178 28.0606C9.92469 28.7537 8.9543 29.0033 8.06055 28.8108C7.56149 28.6999 7.08524 28.452 6.69548 28.0623C5.61079 26.9776 5.61243 25.2212 6.6954 24.1382Z" fill="#2D2667"/>
<path d="M6.69529 24.1382C6.96599 23.8675 7.28084 23.6636 7.61513 23.5283C8.11748 23.636 8.59529 23.8855 8.98677 24.2769C10.0697 25.3598 10.0697 27.1147 8.98513 28.1993C8.71279 28.4717 8.39794 28.6756 8.06037 28.811C7.5613 28.7 7.08505 28.4521 6.69529 28.0624C5.61068 26.9777 5.61232 25.2212 6.69529 24.1382Z" fill="#6052A3"/>
<path d="M7.56909 27.4338C8.29349 27.4338 8.88073 26.8466 8.88073 26.1222C8.88073 25.3978 8.29349 24.8105 7.56909 24.8105C6.84469 24.8105 6.25745 25.3978 6.25745 26.1222C6.25745 26.8466 6.84469 27.4338 7.56909 27.4338Z" fill="#9175A7"/>
<path d="M30.3281 33.044C29.0941 33.044 27.4993 32.5579 25.6329 31.595C22.5975 30.029 19.1396 27.3804 15.8962 24.137C12.6527 20.8937 10.0041 17.4357 8.43821 14.4003C6.80196 11.2285 6.54196 8.84053 7.70633 7.67616C8.87079 6.51178 11.2588 6.77186 14.4305 8.40803C17.4659 9.97397 20.9238 12.6226 24.1672 15.866C27.4106 19.1094 30.0592 22.5673 31.6252 25.6027C33.2614 28.7745 33.5214 31.1625 32.357 32.3269C31.8778 32.8061 31.1911 33.044 30.3281 33.044ZM9.74125 7.77764C9.1086 7.77764 8.61649 7.93772 8.29211 8.26202C7.41657 9.13756 7.73813 11.2365 9.17438 14.0205C10.7022 16.9819 13.2973 20.3667 16.482 23.5512C19.6666 26.7358 23.0513 29.331 26.0127 30.8588C28.7967 32.2951 30.8957 32.6168 31.7712 31.7411C32.6467 30.8655 32.3252 28.7666 30.8889 25.9826C29.3611 23.0212 26.7659 19.6364 23.5813 16.4519C20.3967 13.2673 17.012 10.6721 14.0506 9.14428C12.2979 8.24006 10.8166 7.77764 9.74125 7.77764Z" fill="#EBD9EA"/>
<path d="M20.0308 37.4316C18.3842 37.4316 16.8794 35.5592 15.7937 32.1594C14.7546 28.9058 14.1824 24.5878 14.1824 20.0009C14.1824 15.4141 14.7546 11.0961 15.7937 7.8425C16.8794 4.44266 18.3842 2.57031 20.0308 2.57031C21.6774 2.57031 23.1822 4.44266 24.268 7.8425C25.307 11.0961 25.8793 15.4141 25.8793 20.0009C25.8793 24.5878 25.307 28.9058 24.268 32.1594C23.1823 35.5592 21.6774 37.4316 20.0308 37.4316ZM20.0308 3.39859C18.7926 3.39859 17.5358 5.11016 16.5828 8.09438C15.5691 11.2687 15.0108 15.4972 15.0108 20.0009C15.0108 24.5045 15.5691 28.733 16.5828 31.9073C17.5359 34.8916 18.7926 36.6031 20.0308 36.6031C21.269 36.6031 22.5258 34.8916 23.4788 31.9073C24.4925 28.733 25.0508 24.5045 25.0508 20.0009C25.0508 15.4972 24.4925 11.2688 23.4788 8.09438C22.5258 5.11016 21.2691 3.39859 20.0308 3.39859Z" fill="white"/>
<path d="M26.5319 7.64481C26.5319 8.0277 26.4534 8.39442 26.3127 8.72652C25.8906 9.72059 24.9058 10.4195 23.7571 10.4195C22.2256 10.4195 20.9847 9.17629 20.9847 7.64481C20.9847 6.66457 21.4944 5.80191 22.2625 5.30606C22.6938 5.0316 23.2058 4.87012 23.7571 4.87012C25.2909 4.87012 26.5319 6.11332 26.5319 7.64481Z" fill="#B82065"/>
<path d="M26.5361 7.6448C26.5361 8.02769 26.4576 8.39441 26.3169 8.72652C25.8857 9.00559 25.3713 9.16707 24.8177 9.16707C23.2862 9.16707 22.0453 7.92621 22.0453 6.39238C22.0453 6.00723 22.1237 5.64043 22.2667 5.30605C22.698 5.0316 23.2101 4.87012 23.7613 4.87012C25.2951 4.87012 26.5361 6.11332 26.5361 7.6448Z" fill="#D7156F"/>
<path d="M24.5102 8.17309C25.2346 8.17309 25.8219 7.58585 25.8219 6.86145C25.8219 6.13705 25.2346 5.5498 24.5102 5.5498C23.7859 5.5498 23.1986 6.13705 23.1986 6.86145C23.1986 7.58585 23.7859 8.17309 24.5102 8.17309Z" fill="#ED72AB"/>
<path d="M24.1714 33.335C23.9007 33.0643 23.6968 32.7495 23.5615 32.4152C23.157 31.4138 23.3592 30.2232 24.1715 29.411C25.2544 28.3281 27.011 28.3297 28.0938 29.4126C28.787 30.1057 29.0365 31.0761 28.8441 31.9699C28.7331 32.4689 28.4853 32.9452 28.0955 33.3349C27.0109 34.4195 25.2543 34.418 24.1714 33.335Z" fill="#BF5E39"/>
<path d="M24.1696 33.3359C23.8989 33.0652 23.695 32.7503 23.5597 32.416C23.6673 31.9137 23.9169 31.4359 24.3083 31.0444C25.3912 29.9615 27.1461 29.9614 28.2307 31.0461C28.503 31.3184 28.707 31.6332 28.8423 31.9708C28.7314 32.4699 28.4835 32.9461 28.0938 33.3359C27.0091 34.4204 25.2525 34.4188 24.1696 33.3359Z" fill="#DD5E26"/>
<path d="M26.1542 33.7717C26.8786 33.7717 27.4658 33.1845 27.4658 32.4601C27.4658 31.7357 26.8786 31.1484 26.1542 31.1484C25.4298 31.1484 24.8425 31.7357 24.8425 32.4601C24.8425 33.1845 25.4298 33.7717 26.1542 33.7717Z" fill="#EA792E"/>
<path d="M23.8502 20.0022C23.8502 20.5296 23.7422 21.0347 23.5483 21.4921C22.967 22.8612 21.6106 23.8238 20.0286 23.8238C17.9193 23.8238 16.2103 22.1115 16.2103 20.0022C16.2103 18.6522 16.9124 17.464 17.9702 16.7811C18.5642 16.403 19.2695 16.1807 20.0287 16.1807C22.1412 16.1807 23.8502 17.8929 23.8502 20.0022Z" fill="#50755C"/>
<path d="M23.8523 20.0013C23.8523 20.5287 23.7443 21.0338 23.5504 21.4912C22.9565 21.8756 22.248 22.0979 21.4856 22.0979C19.3763 22.0979 17.6672 20.3888 17.6672 18.2763C17.6672 17.7459 17.7753 17.2407 17.9722 16.7801C18.5662 16.402 19.2715 16.1797 20.0307 16.1797C22.1433 16.1798 23.8523 17.892 23.8523 20.0013Z" fill="#528F66"/>
<path d="M21.065 20.7284C22.0627 20.7284 22.8715 19.9196 22.8715 18.9218C22.8715 17.9241 22.0627 17.1152 21.065 17.1152C20.0672 17.1152 19.2584 17.9241 19.2584 18.9218C19.2584 19.9196 20.0672 20.7284 21.065 20.7284Z" fill="#53B976"/>
</svg>
