<svg width="41" height="41" viewBox="0 0 41 41" fill="none" xmlns="http://www.w3.org/2000/svg">
<path d="M20.4957 40.5C31.5414 40.5 40.4957 31.5457 40.4957 20.5C40.4957 9.4543 31.5414 0.5 20.4957 0.5C9.44997 0.5 0.495667 9.4543 0.495667 20.5C0.495667 31.5457 9.44997 40.5 20.4957 40.5Z" fill="#22BCE0"/>
<g clip-path="url(#clip0)">
<path d="M26.0772 12.037V19.4293H10.4957V12.214C10.4957 11.5478 10.8918 11.1516 11.381 11.1516H25.1918C25.681 11.1516 26.0772 11.5478 26.0772 12.037Z" fill="#50758D"/>
<path d="M26.0772 19.4293V30.4072C26.0772 30.8963 25.681 31.2925 25.1919 31.2925H11.381C10.8919 31.2925 10.4957 30.8963 10.4957 30.5842V19.4293H26.0772Z" fill="#50758D"/>
<path d="M12.7089 17.0388V13.5418C12.7089 13.1996 12.9864 12.9221 13.3286 12.9221H24.1294C24.4717 12.9221 24.7492 13.1996 24.7492 13.5418V17.0388C24.7492 17.3811 24.4717 17.6585 24.1294 17.6585H13.3286C12.9864 17.6585 12.7089 17.3811 12.7089 17.0388Z" fill="#DEF8FF"/>
<path d="M14.214 17.6585H13.3286C12.9865 17.6585 12.7089 17.381 12.7089 17.0388V13.5418C12.7089 13.1996 12.9865 12.9221 13.3286 12.9221H14.214C13.8718 12.9221 13.5942 13.1996 13.5942 13.5418V17.0388C13.5942 17.381 13.8718 17.6585 14.214 17.6585Z" fill="#D0EEFC"/>
<path d="M24.7049 21.8195V25.3608H18.7069V21.1998H24.0852C24.4274 21.1998 24.7049 21.4774 24.7049 21.8195Z" fill="#F5F5F5"/>
<path d="M18.7069 21.1998V25.3608H12.7089V21.9081C12.7089 21.4774 12.9865 21.1998 13.3286 21.1998H18.7069Z" fill="#F5F5F5"/>
<path d="M18.7069 25.3607V29.5217H13.3286C12.9865 29.5217 12.7089 29.2442 12.7089 28.9905V25.3607H18.7069Z" fill="#F5F5F5"/>
<path d="M24.7049 25.3607V28.902C24.7049 29.2442 24.4274 29.5217 24.0852 29.5217H18.7069V25.3607H24.7049Z" fill="#F5F5F5"/>
<path d="M24.0852 20.868H18.7069H13.3287C12.7861 20.868 12.3769 21.3152 12.3769 21.9082V25.3609V28.9907C12.3769 29.4505 12.8217 29.8539 13.3287 29.8539H18.7069H24.0852C24.61 29.8539 25.0369 29.4269 25.0369 28.9022V25.3609V21.8197C25.0369 21.2949 24.61 20.868 24.0852 20.868ZM24.3729 21.8197V25.0289H19.0389V21.5319H24.0852C24.2438 21.5319 24.3729 21.661 24.3729 21.8197ZM13.0409 21.9082C13.0409 21.6831 13.1566 21.5319 13.3287 21.5319H18.3749V25.0289H13.0409V21.9082ZM13.0409 28.9907V25.6929H18.3749V29.1899H13.3287C13.1624 29.1899 13.0409 29.0501 13.0409 28.9907ZM24.3729 28.9022C24.3729 29.0608 24.2438 29.1899 24.0852 29.1899H19.0389V25.6929H24.3729V28.9022Z" fill="#E6E6E6"/>
<path d="M17.1355 27.7735H14.7452C14.5618 27.7735 14.4132 27.6249 14.4132 27.4415C14.4132 27.2581 14.5618 27.1095 14.7452 27.1095H17.1355C17.3189 27.1095 17.4675 27.2581 17.4675 27.4415C17.4675 27.6249 17.3189 27.7735 17.1355 27.7735Z" fill="#2B597F"/>
<path d="M16.9142 22.9484H16.2723V22.3065C16.2723 22.1231 16.1237 21.9745 15.9404 21.9745C15.757 21.9745 15.6084 22.1231 15.6084 22.3065V22.9484H14.9665C14.7831 22.9484 14.6345 23.097 14.6345 23.2804C14.6345 23.4637 14.7831 23.6123 14.9665 23.6123H15.6084V24.2542C15.6084 24.4376 15.757 24.5862 15.9404 24.5862C16.1237 24.5862 16.2723 24.4376 16.2723 24.2542V23.6123H16.9142C17.0976 23.6123 17.2462 23.4637 17.2462 23.2804C17.2462 23.097 17.0976 22.9484 16.9142 22.9484Z" fill="#2B597F"/>
<path d="M21.9652 23.2808L22.419 22.8269C22.5487 22.6972 22.5487 22.487 22.419 22.3574C22.2893 22.2278 22.0792 22.2278 21.9495 22.3574L21.4956 22.8112L21.0418 22.3574C20.9121 22.2278 20.7019 22.2278 20.5723 22.3574C20.4426 22.4871 20.4426 22.6973 20.5723 22.8269L21.0261 23.2808L20.5723 23.7346C20.4426 23.8643 20.4426 24.0745 20.5723 24.2041C20.6371 24.2689 20.7221 24.3013 20.807 24.3013C20.892 24.3013 20.977 24.2689 21.0418 24.2041L21.4957 23.7503L21.9495 24.2041C22.0144 24.2689 22.0994 24.3013 22.1843 24.3013C22.2693 24.3013 22.3543 24.2689 22.4191 24.2041C22.5488 24.0744 22.5488 23.8643 22.4191 23.7346L21.9652 23.2808Z" fill="#2B597F"/>
<path d="M23.0228 16.707H22.4031C21.976 16.707 21.6285 16.3594 21.6285 15.9323V14.6486C21.6285 14.2215 21.976 13.874 22.4031 13.874H23.0228C23.4499 13.874 23.7975 14.2215 23.7975 14.6486V15.9323C23.7975 16.3594 23.4499 16.707 23.0228 16.707ZM22.4031 14.538C22.3421 14.538 22.2924 14.5876 22.2924 14.6486V15.9323C22.2924 15.9934 22.3421 16.043 22.4031 16.043H23.0228C23.0839 16.043 23.1335 15.9934 23.1335 15.9323V14.6486C23.1335 14.5876 23.0839 14.538 23.0228 14.538H22.4031Z" fill="#2B597F"/>
<path d="M26.0772 19.4293V18.4333H12.045C11.8005 18.4333 11.6023 18.2352 11.6023 17.9907V12.214C11.6023 11.5478 11.9985 11.1516 12.4876 11.1516H11.381C10.8918 11.1516 10.4957 11.5478 10.4957 12.214V18.4333V19.4293V30.5842C10.4957 30.8963 10.8918 31.2925 11.381 31.2925H12.4876C11.9985 31.2925 11.6023 30.8963 11.6023 30.5842V19.872C11.6023 19.6275 11.8005 19.4293 12.045 19.4293H26.0772Z" fill="#2B597F"/>
<path d="M27.9363 24.8391C30.4543 24.8391 32.4956 24.3833 32.4956 23.821C32.4956 23.2587 30.4543 22.8029 27.9363 22.8029C25.4182 22.8029 23.3769 23.2587 23.3769 23.821C23.3769 24.3833 25.4182 24.8391 27.9363 24.8391Z" fill="#FFD873"/>
<path d="M32.4957 30.0419V32.1335C32.4957 32.7975 30.4546 33.1516 27.9363 33.1516C25.418 33.1516 23.3769 32.7975 23.3769 32.1335V30.0419C23.3769 30.7059 25.418 31.06 27.9363 31.06C30.4546 31.06 32.4957 30.7059 32.4957 30.0419Z" fill="#FFD873"/>
<path d="M32.4957 27.9503V30.0419C32.4957 30.7059 30.4546 31.06 27.9363 31.06C25.418 31.06 23.3769 30.7059 23.3769 30.0419V27.9503C23.3769 28.6143 25.418 28.9684 27.9363 28.9684C30.4546 28.9684 32.4957 28.6143 32.4957 27.9503Z" fill="#FFB401"/>
<path d="M32.4957 25.8589V27.9505C32.4957 28.6145 30.4546 28.9686 27.9363 28.9686C25.418 28.9686 23.3769 28.6145 23.3769 27.9505V25.8589C23.3769 26.5229 25.418 26.8771 27.9363 26.8771C30.4546 26.8771 32.4957 26.5229 32.4957 25.8589Z" fill="#FFD873"/>
<path d="M32.4957 23.7674V25.8589C32.4957 26.5229 30.4546 26.877 27.9363 26.877C25.418 26.877 23.3769 26.5229 23.3769 25.8589V23.7674C23.3769 24.4313 25.418 24.7855 27.9363 24.7855C30.4546 24.7855 32.4957 24.4313 32.4957 23.7674Z" fill="#FFB401"/>
<path d="M20.7496 28.532C20.6647 28.532 20.5797 28.4996 20.5148 28.4348C20.3852 28.3051 20.3852 28.0949 20.5148 27.9653L22.0199 26.4603C22.1496 26.3306 22.3597 26.3306 22.4894 26.4603C22.6191 26.59 22.6191 26.8001 22.4894 26.9298L20.9844 28.4348C20.9196 28.4996 20.8346 28.532 20.7496 28.532Z" fill="#2B597F"/>
<path d="M20.8538 26.9325C21.0372 26.9325 21.1858 26.7839 21.1858 26.6005C21.1858 26.4172 21.0372 26.2685 20.8538 26.2685C20.6705 26.2685 20.5218 26.4172 20.5218 26.6005C20.5218 26.7839 20.6705 26.9325 20.8538 26.9325Z" fill="#2B597F"/>
<path d="M22.1818 28.6143C22.3652 28.6143 22.5138 28.4657 22.5138 28.2823C22.5138 28.099 22.3652 27.9503 22.1818 27.9503C21.9985 27.9503 21.8498 28.099 21.8498 28.2823C21.8498 28.4657 21.9985 28.6143 22.1818 28.6143Z" fill="#2B597F"/>
</g>
<g clip-path="url(#clip1)">
<path d="M32.805 15.6181V14.0627C33.1377 14.1188 33.4514 14.2553 33.7197 14.4604C33.7731 14.497 33.8359 14.5169 33.9008 14.5178C34.1089 14.5178 34.2786 14.3503 34.2808 14.1422C34.2813 14.053 34.2464 13.9673 34.1836 13.9036C33.7961 13.5718 33.31 13.376 32.8006 13.3469V12.8255C32.8006 12.6765 32.6799 12.5559 32.531 12.5559C32.5279 12.5555 32.5248 12.5555 32.5217 12.5555C32.3706 12.5533 32.246 12.6739 32.2438 12.8255V13.3292C31.2496 13.3999 30.5735 14.0141 30.5735 14.8315C30.5735 15.8346 31.4264 16.113 32.2438 16.3339V18.1014C31.8125 18.0435 31.406 17.8645 31.0728 17.5844C31.0101 17.5345 30.9323 17.5066 30.8519 17.5049C30.6482 17.519 30.4914 17.6896 30.494 17.8937C30.4936 17.983 30.5285 18.0687 30.5912 18.1323C31.0477 18.5432 31.6345 18.7796 32.2482 18.7995V19.2856C32.2482 19.2887 32.2486 19.2918 32.2486 19.2949C32.2557 19.446 32.3843 19.5626 32.5354 19.5551C32.6843 19.5551 32.805 19.4345 32.805 19.2856V18.7907C34.0113 18.7112 34.4973 17.9777 34.4973 17.2C34.4973 16.1572 33.6224 15.839 32.805 15.6181ZM32.2482 15.4767C31.7666 15.3353 31.391 15.1895 31.391 14.7785C31.391 14.3676 31.7313 14.0715 32.2482 14.0318V15.4767ZM32.805 18.1102V16.5018C33.3043 16.6432 33.6931 16.8332 33.6887 17.2972C33.6887 17.633 33.4589 18.0307 32.805 18.1102Z" fill="#DCEFFB"/>
</g>
<path d="M18.9265 6.26453V5.2826C19.1365 5.31803 19.3346 5.40423 19.5039 5.53366C19.5377 5.55681 19.5773 5.56937 19.6183 5.56992C19.7497 5.56992 19.8568 5.4642 19.8582 5.33281C19.8585 5.27647 19.8364 5.22235 19.7968 5.18218C19.5522 4.97268 19.2453 4.8491 18.9237 4.83069V4.50152C18.9237 4.4075 18.8475 4.33135 18.7535 4.33135C18.7516 4.33107 18.7496 4.33107 18.7476 4.33107C18.6522 4.32968 18.5736 4.40584 18.5722 4.50152V4.81953C17.9445 4.86416 17.5177 5.25192 17.5177 5.76799C17.5177 6.40122 18.0561 6.57697 18.5722 6.71644V7.83228C18.2999 7.79573 18.0433 7.68276 17.8329 7.5059C17.7933 7.47438 17.7442 7.4568 17.6935 7.45569C17.5649 7.46462 17.4658 7.57229 17.4675 7.70118C17.4672 7.75752 17.4893 7.81164 17.5289 7.85181C17.817 8.11124 18.1875 8.26049 18.575 8.27304V8.57989C18.575 8.58184 18.5752 8.5838 18.5752 8.58575C18.5797 8.68115 18.6609 8.7548 18.7563 8.75006C18.8503 8.75006 18.9264 8.6739 18.9264 8.57989V8.26746C19.688 8.21725 19.9949 7.75418 19.9949 7.26321C19.9949 6.60486 19.4425 6.40401 18.9265 6.26453ZM18.575 6.17527C18.2709 6.086 18.0338 5.99395 18.0338 5.73451C18.0338 5.47508 18.2486 5.28818 18.575 5.26308V6.17527ZM18.9265 7.83785V6.82245C19.2417 6.91172 19.4872 7.03167 19.4844 7.32457C19.4844 7.53658 19.3393 7.78764 18.9265 7.83785Z" fill="#DCEFFB"/>
<path d="M6.89439 19.6656V18.6837C7.10444 18.7191 7.3025 18.8053 7.47183 18.9348C7.50559 18.9579 7.5452 18.9705 7.58621 18.971C7.71759 18.971 7.82472 18.8653 7.82611 18.7339C7.82638 18.6776 7.80435 18.6234 7.76474 18.5833C7.52009 18.3738 7.21324 18.2502 6.8916 18.2318V17.9026C6.8916 17.8086 6.81545 17.7324 6.72143 17.7324C6.71948 17.7322 6.71752 17.7322 6.71557 17.7322C6.62017 17.7308 6.5415 17.8069 6.54011 17.9026V18.2206C5.91245 18.2653 5.48565 18.653 5.48565 19.1691C5.48565 19.8023 6.02404 19.9781 6.54011 20.1175V21.2334C6.26784 21.1968 6.0112 21.0838 5.80087 20.907C5.76126 20.8755 5.71215 20.8579 5.66138 20.8568C5.53278 20.8657 5.43376 20.9734 5.43542 21.1023C5.43515 21.1586 5.45718 21.2127 5.49679 21.2529C5.78496 21.5123 6.15542 21.6616 6.54289 21.6741V21.981C6.54289 21.9829 6.54316 21.9849 6.54316 21.9868C6.54762 22.0822 6.6288 22.1559 6.7242 22.1511C6.81822 22.1511 6.89437 22.075 6.89437 21.981V21.6686C7.65592 21.6183 7.96278 21.1553 7.96278 20.6643C7.96279 20.006 7.41047 19.8051 6.89439 19.6656ZM6.5429 19.5764C6.23884 19.4871 6.00173 19.395 6.00173 19.1356C6.00173 18.8762 6.21653 18.6893 6.5429 18.6642V19.5764ZM6.89439 21.2389V20.2235C7.20961 20.3128 7.45509 20.4328 7.4523 20.7257C7.4523 20.9377 7.30724 21.1887 6.89439 21.2389Z" fill="#DCEFFB"/>
<defs>
<clipPath id="clip0">
<rect width="22" height="22" fill="white" transform="translate(10.4957 11.1516)"/>
</clipPath>
<clipPath id="clip1">
<rect width="7" height="7" fill="white" transform="translate(28.9957 12.5556)"/>
</clipPath>
</defs>
</svg>
