<svg width="41" height="41" viewBox="0 0 41 41" fill="none" xmlns="http://www.w3.org/2000/svg">
<g clip-path="url(#clip0)">
<path d="M20.4957 40.5C31.5414 40.5 40.4957 31.5457 40.4957 20.5C40.4957 9.4543 31.5414 0.5 20.4957 0.5C9.44997 0.5 0.495667 9.4543 0.495667 20.5C0.495667 31.5457 9.44997 40.5 20.4957 40.5Z" fill="#4864C8"/>
<path d="M19.6585 12.0719H21.3329V28.9279H19.6585V12.0719Z" fill="#47C070"/>
<rect x="20.793" y="12.5372" width="0.539954" height="19.0292" fill="#5DD987"/>
<path d="M33.8912 10.7439C34.2181 10.417 34.2181 9.88689 33.8912 9.55993L31.2494 6.91813C30.8589 6.52759 30.2257 6.52759 29.8352 6.91813L27.1934 9.55993C26.8665 9.88689 26.8665 10.417 27.1935 10.7439C27.5204 11.0709 28.0505 11.0709 28.3774 10.7439L29.7051 9.41631V28.9276H31.3795V9.41631L32.7072 10.7439C33.0341 11.0709 33.5642 11.0709 33.8912 10.7439Z" fill="#47C070"/>
<rect x="29.7046" y="9.4192" width="0.539954" height="19.0292" fill="#5DD987"/>
<path d="M25.519 34.7884C28.7557 34.7884 31.3796 32.1645 31.3796 28.9278C31.3796 25.6911 28.7557 23.0673 25.519 23.0673C22.2824 23.0673 19.6585 25.6911 19.6585 28.9278C19.6585 32.1645 22.2824 34.7884 25.519 34.7884Z" fill="url(#paint0_linear)"/>
<path d="M25.519 31.4393C26.9062 31.4393 28.0307 30.3148 28.0307 28.9276C28.0307 27.5405 26.9062 26.416 25.519 26.416C24.1319 26.416 23.0074 27.5405 23.0074 28.9276C23.0074 30.3148 24.1319 31.4393 25.519 31.4393Z" fill="url(#paint1_linear)"/>
<path d="M26.6014 28.4485C26.9596 28.4485 27.2499 28.1582 27.2499 27.8001C27.2499 27.4419 26.9596 27.1516 26.6014 27.1516C26.2433 27.1516 25.953 27.4419 25.953 27.8001C25.953 28.1582 26.2433 28.4485 26.6014 28.4485Z" fill="#54769E"/>
<path d="M13.7979 30.2556C13.471 29.9286 12.9409 29.9286 12.6139 30.2556L11.2862 31.5832V12.0719H9.61177V31.5832L8.28416 30.2556C7.95721 29.9286 7.42712 29.9286 7.10017 30.2556C6.77322 30.5825 6.77322 31.1126 7.10016 31.4396L9.74193 34.0814C10.1325 34.4719 10.7656 34.4719 11.1562 34.0814L13.7979 31.4396C14.1249 31.1126 14.1249 30.5825 13.7979 30.2556Z" fill="#47C070"/>
<rect x="9.61182" y="12.5372" width="0.539954" height="19.0292" fill="#5DD987"/>
<path d="M15.4723 17.9321C18.709 17.9321 21.3329 15.3082 21.3329 12.0715C21.3329 8.83485 18.709 6.211 15.4723 6.211C12.2356 6.211 9.61179 8.83485 9.61179 12.0715C9.61179 15.3082 12.2356 17.9321 15.4723 17.9321Z" fill="url(#paint2_linear)"/>
<path d="M18.5618 10.3993C19.2642 10.3993 19.8337 9.82984 19.8337 9.12741C19.8337 8.42497 19.2642 7.85553 18.5618 7.85553C17.8594 7.85553 17.2899 8.42497 17.2899 9.12741C17.2899 9.82984 17.8594 10.3993 18.5618 10.3993Z" fill="#ABD1EC"/>
<path d="M28.6496 27.3153C29.3521 27.3153 29.9215 26.7458 29.9215 26.0434C29.9215 25.341 29.3521 24.7715 28.6496 24.7715C27.9472 24.7715 27.3777 25.341 27.3777 26.0434C27.3777 26.7458 27.9472 27.3153 28.6496 27.3153Z" fill="#ABD1EC"/>
<path d="M15.4723 14.583C16.8595 14.583 17.984 13.4585 17.984 12.0713C17.984 10.6842 16.8595 9.55971 15.4723 9.55971C14.0852 9.55971 12.9607 10.6842 12.9607 12.0713C12.9607 13.4585 14.0852 14.583 15.4723 14.583Z" fill="url(#paint3_linear)"/>
<path d="M16.6415 11.6964C16.9996 11.6964 17.29 11.4061 17.29 11.0479C17.29 10.6898 16.9996 10.3995 16.6415 10.3995C16.2834 10.3995 15.993 10.6898 15.993 11.0479C15.993 11.4061 16.2834 11.6964 16.6415 11.6964Z" fill="#54769E"/>
</g>
<defs>
<linearGradient id="paint0_linear" x1="19.6585" y1="28.9278" x2="31.3796" y2="28.9278" gradientUnits="userSpaceOnUse">
<stop stop-color="#ABD5ED"/>
<stop offset="1" stop-color="#97BEDB"/>
</linearGradient>
<linearGradient id="paint1_linear" x1="23.0073" y1="28.9276" x2="28.0307" y2="28.9276" gradientUnits="userSpaceOnUse">
<stop stop-color="#587AA1"/>
<stop offset="1" stop-color="#455F80"/>
</linearGradient>
<linearGradient id="paint2_linear" x1="9.61186" y1="12.0715" x2="21.3329" y2="12.0715" gradientUnits="userSpaceOnUse">
<stop stop-color="#ABD5ED"/>
<stop offset="1" stop-color="#97BEDB"/>
</linearGradient>
<linearGradient id="paint3_linear" x1="12.9607" y1="12.0713" x2="17.984" y2="12.0713" gradientUnits="userSpaceOnUse">
<stop stop-color="#587AA1"/>
<stop offset="1" stop-color="#455F80"/>
</linearGradient>
<clipPath id="clip0">
<rect width="40" height="40" fill="white" transform="translate(0.495667 0.5)"/>
</clipPath>
</defs>
</svg>
