<svg width="40" height="40" viewBox="0 0 40 40" fill="none" xmlns="http://www.w3.org/2000/svg">
<path d="M39.9999 20C39.9999 28.8055 34.3093 36.282 26.4046 38.9523C26.1124 39.0508 25.8171 39.143 25.5187 39.2289C24.7953 39.4359 24.0538 39.6039 23.2992 39.7289C22.2257 39.907 21.1234 40 19.9999 40C18.8906 40 17.8023 39.9094 16.7421 39.7352C15.9867 39.6125 15.2453 39.4461 14.521 39.2406C14.2226 39.1555 13.9273 39.0641 13.6351 38.9656C5.71009 36.307 -6.10352e-05 28.8203 -6.10352e-05 20C-6.10352e-05 8.95469 8.95463 0 19.9999 0C31.0453 0 39.9999 8.95469 39.9999 20Z" fill="#6052A3"/>
<path d="M19.7463 3.53299C18.7829 15.3363 17.7176 27.905 16.74 39.7361C15.6757 39.5627 14.6462 39.3072 13.633 38.9666C14.286 31.1164 15.0473 21.967 15.6986 14.1439C15.9238 11.4418 16.197 8.15822 16.4197 5.47447L16.5924 3.40338C16.6455 2.76041 17.0768 2.23932 17.6494 2.04088C18.6498 1.6765 19.7668 2.47158 19.7463 3.53299Z" fill="#A26D5A"/>
<path d="M19.7461 3.53263C18.7827 15.3359 17.7175 27.9047 16.7399 39.7358C15.9844 39.6131 15.243 39.4467 14.5188 39.2412C15.2804 30.0876 16.1319 19.8625 16.8907 10.7373C16.9925 9.51076 17.1204 7.97662 17.2227 6.74591C17.2963 5.86826 17.5121 3.27318 17.5875 2.36623C17.5969 2.25373 17.618 2.14435 17.6493 2.04045C18.65 1.67412 19.7665 2.4731 19.7461 3.53263Z" fill="#C17E62"/>
<path d="M26.4009 38.9532C25.3883 39.2948 24.3592 39.5534 23.2955 39.7298C22.877 34.6987 22.2616 27.3157 21.8502 22.361C21.4553 17.6211 20.6784 8.28734 20.2939 3.6657C20.1829 2.5539 21.3265 1.65609 22.3853 2.0407C22.958 2.23913 23.39 2.76023 23.4431 3.4032L23.6158 5.47429C23.6993 6.48804 23.8224 7.96054 23.9064 8.97117C24.7202 18.7472 25.5845 29.1459 26.4009 38.9532Z" fill="#A26D5A"/>
<path d="M25.5132 39.2297C24.7898 39.4368 24.0484 39.6047 23.2937 39.7297C22.5638 30.9625 21.6138 19.5421 20.8804 10.7375C20.7785 9.51105 20.6506 7.97676 20.5484 6.74613C20.4863 5.93652 20.3395 4.35011 20.2867 3.53285C20.2661 2.47566 21.3834 1.67324 22.3835 2.04066C22.4156 2.14457 22.4359 2.25394 22.446 2.36644C22.5232 3.29426 22.7378 5.87168 22.8101 6.74613C23.0222 9.28301 23.2692 12.2639 23.4812 14.8078C24.1286 22.592 24.8622 31.3997 25.5132 39.2297Z" fill="#C17E62"/>
<path d="M26.2823 6.41234V8.03336C26.2855 8.53953 25.8646 8.9739 25.3446 8.97109H14.6949C14.1773 8.97109 13.7572 8.55101 13.7572 8.03336V6.41234C13.7572 5.96125 14.0754 5.58539 14.499 5.495C14.5619 5.48172 14.6275 5.47461 14.6949 5.47461H25.3446C25.8621 5.47461 26.2823 5.89391 26.2823 6.41234Z" fill="#A26D5A"/>
<path d="M26.2803 6.41227C26.2758 6.46828 26.2935 8.22492 26.2652 8.20086C26.2023 8.21414 26.1367 8.22125 26.0694 8.22125H15.4196C14.902 8.22125 14.4819 7.80203 14.4819 7.28352C14.476 7.22813 14.4763 5.47062 14.497 5.495C14.5598 5.48172 14.6255 5.47461 14.6928 5.47461H25.3426C25.8602 5.47453 26.2803 5.89383 26.2803 6.41227Z" fill="#D48D77"/>
<path d="M24.9891 6.74625H16.2378C15.3978 6.71625 15.3932 5.50648 16.2378 5.47461H24.9891C25.8291 5.50461 25.8336 6.71438 24.9891 6.74625Z" fill="#EEA47D"/>
<path d="M33.0847 8.97168H6.91125C6.42375 8.97168 6.02844 9.36699 6.02844 9.85449V29.9209C6.02844 30.4084 6.42375 30.8045 6.91125 30.8045H33.0847C33.573 30.8045 33.9675 30.4084 33.9675 29.9209V9.85449C33.9675 9.36699 33.573 8.97168 33.0847 8.97168ZM32.2011 29.0381H7.79485V10.7381H32.2011V29.0381Z" fill="#A26D5A"/>
<path d="M32.3264 9.67676H7.6686C7.21157 9.67676 6.84204 10.0463 6.84204 10.5025V29.276C6.84204 29.7314 7.21157 30.101 7.6686 30.101H32.3264C32.7827 30.101 33.153 29.7314 33.153 29.276V10.5025C33.153 10.0463 32.7827 9.67676 32.3264 9.67676ZM32.1999 29.0393H7.7936V10.7393H32.1999V29.0393Z" fill="#D48D77"/>
<path d="M7.79528 14.0171V22.1389C7.79528 22.4016 7.58231 22.6146 7.31958 22.6146C7.05684 22.6146 6.84387 22.4016 6.84387 22.1389V14.0171C6.8645 13.3897 7.77293 13.3854 7.79528 14.0171Z" fill="#EEA47D"/>
<path d="M33.1525 18.3442V26.4661C33.1525 26.7288 32.9395 26.9418 32.6768 26.9418C32.414 26.9418 32.201 26.7288 32.201 26.4661V18.3442C32.2217 17.7169 33.1301 17.7125 33.1525 18.3442Z" fill="#EEA47D"/>
<path d="M20.2643 10.7389H11.1975C10.9043 10.7389 10.6664 10.5012 10.6664 10.2078C10.6664 9.91457 10.9042 9.67676 11.1975 9.67676H20.2643C20.9646 9.69988 20.9695 10.714 20.2643 10.7389Z" fill="#EEA47D"/>
<path d="M28.8898 30.1012H17.1641C16.4647 30.0785 16.4581 29.0642 17.1641 29.0391H28.8898C29.5892 29.0616 29.5958 30.0759 28.8898 30.1012Z" fill="#EEA47D"/>
<path d="M7.79163 10.7383H32.1985V29.0383H7.79163V10.7383Z" fill="white"/>
<path d="M15.1191 14.1123V19.4064H20.4132C20.4132 16.4825 18.043 14.1123 15.1191 14.1123Z" fill="#DF3D81"/>
<path d="M11.1552 23.9066C14.4223 27.2134 20.2069 24.8693 20.1927 20.1631H14.8987L11.1552 23.9066Z" fill="#53B976"/>
<path d="M14.3596 14.3301C9.651 14.3166 7.31068 20.1021 10.6162 23.3677L14.3596 19.6242V14.3301Z" fill="#22BCE0"/>
<path d="M29.8272 20.5385H22.3759C22.016 20.5385 21.7243 20.2468 21.7243 19.8869C21.7243 19.5271 22.016 19.2354 22.3759 19.2354H29.8272C30.6885 19.2663 30.6923 20.506 29.8272 20.5385Z" fill="#9175A7"/>
<path d="M29.8272 23.4047H22.3759C22.016 23.4047 21.7243 23.113 21.7243 22.7531C21.7243 22.3933 22.016 22.1016 22.3759 22.1016H29.8272C30.6885 22.1325 30.6923 23.3722 29.8272 23.4047Z" fill="#9175A7"/>
<path d="M29.8272 26.2719H22.3759C22.016 26.2719 21.7243 25.9802 21.7243 25.6203C21.7243 25.2605 22.016 24.9688 22.3759 24.9688H29.8272C30.6885 24.9997 30.6923 26.2394 29.8272 26.2719Z" fill="#9175A7"/>
<path d="M29.8272 17.6732H22.3759C22.016 17.6732 21.7243 17.3815 21.7243 17.0217C21.7243 16.6618 22.016 16.3701 22.3759 16.3701H29.8272C30.6885 16.4011 30.6923 17.6407 29.8272 17.6732Z" fill="#9175A7"/>
<path d="M29.8272 14.808H22.3759C22.016 14.808 21.7243 14.5163 21.7243 14.1564C21.7243 13.7966 22.016 13.5049 22.3759 13.5049H29.8272C30.6885 13.5358 30.6923 14.7755 29.8272 14.808Z" fill="#9175A7"/>
</svg>
