<svg width="41" height="41" viewBox="0 0 41 41" fill="none" xmlns="http://www.w3.org/2000/svg">
<g clip-path="url(#clip0)">
<path d="M20.4957 40.5C31.5414 40.5 40.4957 31.5457 40.4957 20.5C40.4957 9.4543 31.5414 0.5 20.4957 0.5C9.44997 0.5 0.495667 9.4543 0.495667 20.5C0.495667 31.5457 9.44997 40.5 20.4957 40.5Z" fill="#E85656"/>
<g clip-path="url(#clip1)">
<path d="M31.5435 9.30395C31.5435 9.02781 31.3197 8.80396 31.0435 8.80396H28.5224C28.2463 8.80396 28.0224 9.02781 28.0224 9.30396V29.8156C28.0224 30.0917 28.2463 30.3156 28.5224 30.3156H31.0435C31.3197 30.3156 31.5435 30.0917 31.5435 29.8156V9.30395Z" fill="#0DD8CE"/>
<path d="M28.0224 13.1001C28.0224 12.824 27.7986 12.6001 27.5224 12.6001H25.0014C24.7252 12.6001 24.5014 12.824 24.5014 13.1001V29.8156C24.5014 30.0917 24.7252 30.3156 25.0014 30.3156H27.5224C27.7986 30.3156 28.0224 30.0917 28.0224 29.8156V13.1001Z" fill="#18CDC3"/>
<path d="M24.5014 16.0527C24.5014 15.7765 24.2775 15.5527 24.0014 15.5527H21.4803C21.2041 15.5527 20.9803 15.7765 20.9803 16.0527V29.8156C20.9803 30.0917 21.2041 30.3156 21.4803 30.3156H24.0014C24.2775 30.3156 24.5014 30.0917 24.5014 29.8156V16.0527Z" fill="#24B7B0"/>
<path d="M20.9803 19.0053C20.9803 18.7291 20.7564 18.5053 20.4803 18.5053H17.9592C17.683 18.5053 17.4592 18.7291 17.4592 19.0053V29.8156C17.4592 30.0917 17.683 30.3156 17.9592 30.3156H20.4803C20.7564 30.3156 20.9803 30.0917 20.9803 29.8156V19.0053Z" fill="#32C8BF"/>
<path d="M17.4592 21.9578C17.4592 21.6817 17.2353 21.4578 16.9592 21.4578H14.4381C14.162 21.4578 13.9381 21.6817 13.9381 21.9578V29.8156C13.9381 30.0917 14.162 30.3156 14.4381 30.3156H16.9592C17.2353 30.3156 17.4592 30.0917 17.4592 29.8156V21.9578Z" fill="#3C9592"/>
<path d="M13.9381 24.9104C13.9381 24.6343 13.7142 24.4104 13.4381 24.4104H10.917C10.6409 24.4104 10.417 24.6343 10.417 24.9104V29.8156C10.417 30.0917 10.6409 30.3156 10.917 30.3156H13.4381C13.7142 30.3156 13.9381 30.0917 13.9381 29.8156V24.9104Z" fill="#308B88"/>
<path d="M32.4238 30.2938C32.4238 30.0729 32.2447 29.8938 32.0238 29.8938H6.41566C6.19474 29.8938 6.01566 30.0729 6.01566 30.2938V30.3374C6.01566 30.5583 6.19474 30.7374 6.41566 30.7374H32.0238C32.2447 30.7374 32.4238 30.5583 32.4238 30.3374V30.2938Z" fill="#FFB401"/>
<path d="M23.6211 31.981C23.6211 31.7601 23.442 31.581 23.2211 31.581H22.2605C22.0396 31.581 21.8605 31.7601 21.8605 31.981V32.0246C21.8605 32.2455 22.0396 32.4246 22.2605 32.4246H23.2211C23.442 32.4246 23.6211 32.2455 23.6211 32.0246V31.981Z" fill="#FFB401"/>
<path d="M27.1422 31.981C27.1422 31.7601 26.9631 31.581 26.7422 31.581H25.7816C25.5607 31.581 25.3816 31.7601 25.3816 31.981V32.0246C25.3816 32.2455 25.5607 32.4246 25.7816 32.4246H26.7422C26.9631 32.4246 27.1422 32.2455 27.1422 32.0246V31.981Z" fill="#FFB401"/>
<path d="M30.6633 31.981C30.6633 31.7601 30.4842 31.581 30.2633 31.581H29.3027C29.0818 31.581 28.9027 31.7601 28.9027 31.981V32.0246C28.9027 32.2455 29.0818 32.4246 29.3027 32.4246H30.2633C30.4842 32.4246 30.6633 32.2455 30.6633 32.0246V31.981Z" fill="#FFB401"/>
<path d="M20.1 31.981C20.1 31.7601 19.9209 31.581 19.7 31.581H18.7395C18.5185 31.581 18.3395 31.7601 18.3395 31.981V32.0246C18.3395 32.2455 18.5185 32.4246 18.7395 32.4246H19.7C19.9209 32.4246 20.1 32.2455 20.1 32.0246V31.981Z" fill="#FFB401"/>
<path d="M16.5789 31.981C16.5789 31.7601 16.3998 31.581 16.1789 31.581H15.2184C14.9975 31.581 14.8184 31.7601 14.8184 31.981V32.0246C14.8184 32.2455 14.9975 32.4246 15.2184 32.4246H16.1789C16.3998 32.4246 16.5789 32.2455 16.5789 32.0246V31.981Z" fill="#FFB401"/>
<path d="M13.0578 31.981C13.0578 31.7601 12.8787 31.581 12.6578 31.581H11.6973C11.4764 31.581 11.2973 31.7601 11.2973 31.981V32.0246C11.2973 32.2455 11.4764 32.4246 11.6973 32.4246H12.6578C12.8787 32.4246 13.0578 32.2455 13.0578 32.0246V31.981Z" fill="#FFB401"/>
<path d="M15.1029 17.1457L14.5298 16.5054L8.36995 21.5686L8.94304 22.2089L15.1029 17.1457Z" fill="#FFD873"/>
<path d="M22.1456 11.2396L21.5823 10.5917L16.3021 14.8085L16.8655 15.4564L22.1456 11.2396Z" fill="#FFD873"/>
<path d="M8.21633 23.9668C8.21633 23.7459 8.03725 23.5668 7.81633 23.5668H7.73606C7.51515 23.5668 7.33606 23.7459 7.33606 23.9668V26.963C7.33606 27.1839 7.51515 27.363 7.73606 27.363H7.81633C8.03725 27.363 8.21633 27.1839 8.21633 26.963V23.9668Z" fill="#FFD873"/>
<path d="M25.7767 8.11085C25.952 7.97642 25.9793 7.72997 25.8377 7.5604L25.8003 7.51561C25.6587 7.34605 25.4018 7.31757 25.2265 7.45201L23.6603 8.65317C23.485 8.78761 23.4577 9.03406 23.5993 9.20363L23.6367 9.24841C23.7782 9.41798 24.0351 9.44646 24.2104 9.31202L25.7767 8.11085Z" fill="#FFD873"/>
<path d="M8.21633 28.6066C8.21633 28.3857 8.03725 28.2066 7.81633 28.2066H7.73606C7.51515 28.2066 7.33606 28.3857 7.33606 28.6066V28.6502C7.33606 28.8711 7.51515 29.0502 7.73606 29.0502H7.81633C8.03725 29.0502 8.21633 28.8711 8.21633 28.6502V28.6066Z" fill="#FFD873"/>
<path d="M8.6966 21.1578C9.0832 21.1578 9.3966 21.4712 9.3966 21.8578V23.5886C9.3966 23.9752 9.0832 24.2886 8.6966 24.2886H6.85579C6.46919 24.2886 6.15579 23.9752 6.15579 23.5886V21.8578C6.15579 21.4712 6.46919 21.1578 6.85579 21.1578H8.6966Z" fill="#FFB401" stroke="#FFD873" stroke-width="0.6"/>
<path d="M17.019 15.1091C17.019 14.8882 16.84 14.7091 16.619 14.7091H14.7782C14.5573 14.7091 14.3782 14.8882 14.3782 15.1091V16.8399C14.3782 17.0608 14.5573 17.2399 14.7782 17.2399H16.619C16.84 17.2399 17.019 17.0608 17.019 16.8399V15.1091Z" fill="#FFB401"/>
<path d="M24.0612 9.20396C24.0612 8.98304 23.8821 8.80396 23.6612 8.80396H21.8204C21.5995 8.80396 21.4204 8.98304 21.4204 9.20396V10.9347C21.4204 11.1556 21.5995 11.3347 21.8204 11.3347H23.6612C23.8821 11.3347 24.0612 11.1556 24.0612 10.9347V9.20396Z" fill="#FFB401"/>
<path d="M16.619 14.4091C17.0056 14.4091 17.319 14.7225 17.319 15.1091V16.8399C17.319 17.2265 17.0056 17.5399 16.619 17.5399H14.7782C14.3916 17.5399 14.0782 17.2265 14.0782 16.8399V15.1091C14.0782 14.7225 14.3916 14.4091 14.7782 14.4091H16.619Z" fill="#FFB401" stroke="#FFD873" stroke-width="0.6"/>
<path d="M23.6612 8.50396C24.0478 8.50396 24.3612 8.81736 24.3612 9.20396V10.9347C24.3612 11.3213 24.0478 11.6347 23.6612 11.6347H21.8204C21.4338 11.6347 21.1204 11.3213 21.1204 10.9347V9.20396C21.1204 8.81736 21.4338 8.50396 21.8204 8.50396H23.6612Z" fill="#FFB401" stroke="#FFD873" stroke-width="0.6"/>
<line x1="0.3" y1="-0.3" x2="0.649277" y2="-0.3" transform="matrix(3.72427e-08 1 1 -5.13038e-08 7.51559 21.8327)" stroke="#FFD873" stroke-width="0.6" stroke-linecap="round" stroke-linejoin="round"/>
<line x1="0.3" y1="-0.3" x2="0.649279" y2="-0.3" transform="matrix(3.72426e-08 1 1 -5.13039e-08 15.3743 15.0255)" stroke="#FFD873" stroke-width="0.6" stroke-linecap="round" stroke-linejoin="round"/>
<line x1="0.3" y1="-0.3" x2="0.64928" y2="-0.3" transform="matrix(3.72426e-08 1 1 -5.13039e-08 22.3934 9.08078)" stroke="#FFD873" stroke-width="0.6" stroke-linecap="round" stroke-linejoin="round"/>
<line opacity="0.5" x1="0.3" y1="-0.3" x2="0.64928" y2="-0.3" transform="matrix(3.72426e-08 1 1 -5.13039e-08 31.1395 9.24094)" stroke="white" stroke-width="0.6" stroke-linecap="round" stroke-linejoin="round"/>
<line opacity="0.5" x1="0.3" y1="-0.3" x2="0.64928" y2="-0.3" transform="matrix(3.72426e-08 1 1 -5.13039e-08 27.5852 13.0251)" stroke="white" stroke-width="0.6" stroke-linecap="round" stroke-linejoin="round"/>
<line opacity="0.5" x1="0.3" y1="-0.3" x2="0.64928" y2="-0.3" transform="matrix(3.72426e-08 1 1 -5.13039e-08 24.0613 16.031)" stroke="white" stroke-width="0.6" stroke-linecap="round" stroke-linejoin="round"/>
<line opacity="0.5" x1="0.3" y1="-0.3" x2="0.64928" y2="-0.3" transform="matrix(3.72426e-08 1 1 -5.13039e-08 20.5868 18.8825)" stroke="white" stroke-width="0.6" stroke-linecap="round" stroke-linejoin="round"/>
<line opacity="0.5" x1="0.3" y1="-0.3" x2="0.64928" y2="-0.3" transform="matrix(3.72426e-08 1 1 -5.13039e-08 17.019 21.9851)" stroke="white" stroke-width="0.6" stroke-linecap="round" stroke-linejoin="round"/>
<line opacity="0.5" x1="0.3" y1="-0.3" x2="0.64928" y2="-0.3" transform="matrix(3.72426e-08 1 1 -5.13039e-08 13.4666 24.9373)" stroke="white" stroke-width="0.6" stroke-linecap="round" stroke-linejoin="round"/>
</g>
</g>
<defs>
<clipPath id="clip0">
<rect width="40" height="40" fill="white" transform="translate(0.495667 0.5)"/>
</clipPath>
<clipPath id="clip1">
<rect width="28.1687" height="26.995" fill="white" transform="matrix(-1 0 0 1 33.3041 6.27316)"/>
</clipPath>
</defs>
</svg>
