<svg width="41" height="41" viewBox="0 0 41 41" fill="none" xmlns="http://www.w3.org/2000/svg">
<path d="M40.4957 20.5C40.4957 23.9133 39.6402 27.1266 38.1324 29.9375C37.9785 30.2266 37.8168 30.5109 37.6472 30.7914C37.4504 31.1195 37.2433 31.4422 37.0277 31.7578C36.8425 32.0297 36.6511 32.2969 36.4519 32.5586C32.8011 37.3828 27.0121 40.5 20.4957 40.5C9.45035 40.5 0.495667 31.5453 0.495667 20.5C0.495667 9.45469 9.45035 0.5 20.4957 0.5C31.541 0.5 40.4957 9.45469 40.4957 20.5Z" fill="#6C53A2"/>
<path d="M23.4258 32.374C22.6964 30.8653 21.0909 27.5496 20.3481 26.0157C19.9076 25.2579 19.3779 23.4668 18.485 23.1013C17.4302 22.6046 15.8911 22.7469 15.215 23.789C15.2358 23.6333 13.3217 27.6828 13.2954 27.7064L11.0368 32.3739C10.3347 33.8071 11.4376 35.4464 12.9498 35.425H21.5129C23.0429 35.4582 24.1283 33.7435 23.4258 32.374Z" fill="#C1B7D3"/>
<path d="M15.2151 19.1748H19.2471V25.2673H15.2151V19.1748Z" fill="#C1B7D3"/>
<path d="M23.6101 33.6585H15.5107C13.9427 33.6585 12.9139 32.0182 13.5971 30.6067L17.352 22.8496H17.4833C18.2979 22.8496 19.0414 23.316 19.3962 24.0488L23.4257 32.3738C23.6314 32.7983 23.6818 33.2434 23.6101 33.6585Z" fill="#EBD9EA"/>
<path d="M19.4931 25.4877H19.2662C18.8996 25.4877 18.5653 25.6974 18.4055 26.0274L16.5927 29.7725C16.2854 30.4075 16.7479 31.1453 17.4534 31.1453H21.3058C22.0113 31.1453 22.4739 30.4075 22.1665 29.7725L20.3537 26.0274C20.194 25.6974 19.8597 25.4877 19.4931 25.4877Z" fill="white"/>
<path d="M16.7775 20.4505H19.2472V24.3166H16.7775V20.4505Z" fill="#EBD9EA"/>
<path d="M18.4692 24.317C18.0395 24.317 17.6912 23.9687 17.6912 23.539V21.8164C17.6912 21.3867 18.0395 21.0384 18.4692 21.0384C18.8989 21.0384 19.2472 21.3867 19.2472 21.8164V23.539C19.2472 23.9686 18.8989 24.317 18.4692 24.317Z" fill="white"/>
<path d="M22.4368 35.2161C22.1615 35.3495 21.8497 35.425 21.5128 35.425H12.9498C12.6129 35.425 12.3011 35.3494 12.0258 35.2167C12.1193 34.8155 12.4789 34.517 12.9086 34.517H21.5539C21.8046 34.517 22.0315 34.6184 22.196 34.7829C22.3128 34.9004 22.3976 35.049 22.4368 35.2161Z" fill="#9F90AE"/>
<path d="M21.1845 19.4605C21.1845 19.6993 21.1009 19.9189 20.961 20.0907C20.7772 20.3168 20.4973 20.4608 20.1836 20.4608H14.2784C14.0018 20.4608 13.7524 20.3486 13.5714 20.1675C13.5468 20.143 13.5236 20.1178 13.5024 20.0906V20.09C13.3618 19.9182 13.2782 19.6993 13.2782 19.4605C13.2782 19.2131 13.3684 18.9863 13.5176 18.8111C13.7007 18.5962 13.9733 18.4596 14.2784 18.4596H20.1836C20.4596 18.4596 20.7103 18.5717 20.8914 18.7528C20.91 18.7714 20.9279 18.7912 20.9451 18.8111C21.0943 18.9863 21.1845 19.2131 21.1845 19.4605Z" fill="#EBD9EA"/>
<path d="M20.961 20.0908C20.7772 20.317 20.4973 20.4609 20.1836 20.4609H14.2784C14.0018 20.4609 13.7524 20.3488 13.5714 20.1677C13.5468 20.1432 13.5236 20.1179 13.5024 20.0907V20.0901C13.6854 19.864 13.9647 19.72 14.2784 19.72H20.1836C20.4596 19.72 20.7103 19.8322 20.8914 20.0133C20.9158 20.0377 20.9391 20.0636 20.961 20.0908Z" fill="#C1B7D3"/>
<path d="M20.945 18.8111C20.7613 19.0261 20.4887 19.1627 20.1836 19.1627H14.2783C14.0018 19.1627 13.7523 19.0506 13.5713 18.8695C13.5527 18.8509 13.5348 18.8311 13.5175 18.8111C13.7006 18.5962 13.9732 18.4596 14.2783 18.4596H20.1836C20.4595 18.4596 20.7102 18.5717 20.8913 18.7528C20.9099 18.7714 20.9278 18.7913 20.945 18.8111Z" fill="white"/>
<path d="M20.3428 33.6351H20.3422C20.2586 33.651 20.173 33.659 20.0841 33.659H14.3785C14.2478 33.659 14.1231 33.6417 14.005 33.6099C13.1806 33.3883 12.7057 32.4485 13.1036 31.626L15.252 27.188L15.7886 26.079C16.0247 25.5908 16.5202 25.2797 17.0627 25.2797H17.399C17.4858 25.2797 17.5708 25.2876 17.6543 25.3036H17.655C18.0934 25.3838 18.4748 25.6691 18.6738 26.079L18.9968 26.7469L20.669 30.2012L21.3581 31.626C21.7748 32.4856 21.2375 33.4739 20.3428 33.6351Z" fill="#D7156F"/>
<path d="M20.3428 33.6348C20.3428 33.6348 20.3428 33.6355 20.3421 33.6348C19.9037 33.5545 19.523 33.2699 19.324 32.8594L16.639 27.313C16.2232 26.4527 16.7604 25.4651 17.6545 25.3032C17.6545 25.3032 17.6545 25.3026 17.6551 25.3032C18.0936 25.3834 18.475 25.6687 18.6739 26.0786L21.3582 31.6256C21.7748 32.4853 21.2375 33.4736 20.3428 33.6348Z" fill="#DF3D81"/>
<path d="M16.1535 29.172L14.0051 33.61C13.1807 33.3884 12.7057 32.4486 13.1037 31.6261L15.2521 27.188C16.0765 27.4096 16.5514 28.3488 16.1535 29.172Z" fill="#B82065"/>
<path d="M20.6691 30.201H19.584C19.4532 30.201 19.3286 30.1837 19.2105 30.1519C18.3861 29.9304 17.9111 28.9905 18.3091 28.168L18.9969 26.7466L20.6691 30.201Z" fill="#ED72AB"/>
<path d="M30.1584 25.2302L31.2676 24.121L33.37 26.2234L32.2608 27.3326L30.1584 25.2302Z" fill="#C1B7D3"/>
<path d="M31.2735 24.1205L33.3763 26.2232C33.1466 26.4529 32.7741 26.4532 32.5441 26.2232L31.2735 24.9526C31.0439 24.723 31.0439 24.3501 31.2735 24.1205Z" fill="#EBD9EA"/>
<path d="M32.2669 27.3323L30.5695 25.6349C30.7549 25.4495 31.0556 25.4492 31.2413 25.6349L32.2669 26.6605C32.4523 26.8459 32.4523 27.1469 32.2669 27.3323Z" fill="#9F90AE"/>
<path d="M31.2735 24.1205L32.6946 25.5415C32.465 25.7712 32.0925 25.7715 31.8625 25.5415L31.2735 24.9526C31.0439 24.723 31.0439 24.3501 31.2735 24.1205Z" fill="white"/>
<path d="M38.1324 29.9371C37.9785 30.2262 37.8168 30.5105 37.6472 30.791C37.4504 31.1191 37.2433 31.4418 37.0277 31.7574C36.8425 32.0293 36.6511 32.2965 36.4519 32.5582L32.473 28.5793C32.1613 28.2676 32.0136 27.8551 32.0293 27.4465C32.0332 27.3434 32.048 27.2402 32.073 27.1387C32.1129 26.9746 32.1808 26.816 32.2761 26.6707C32.3324 26.5848 32.398 26.5043 32.473 26.4293C32.5199 26.3824 32.5699 26.3387 32.6207 26.2996C32.6238 26.2973 32.6261 26.2949 32.6293 26.2934C32.6504 26.2777 32.6714 26.2621 32.6933 26.2473C32.7144 26.2324 32.7363 26.2184 32.7589 26.2051C32.7691 26.1988 32.7793 26.1926 32.7894 26.1863C32.8066 26.1762 32.8238 26.1668 32.8418 26.1582C32.8582 26.1488 32.8746 26.141 32.891 26.1332C32.9847 26.0879 33.0824 26.0527 33.1816 26.0285C33.1933 26.0254 33.2043 26.023 33.216 26.0207L33.2605 26.0113C33.3558 25.9926 33.4519 25.9832 33.5488 25.9832C33.9379 25.9832 34.3269 26.1316 34.6238 26.4285L38.1324 29.9371Z" fill="#22BCE0"/>
<path d="M37.0277 31.7577C36.8425 32.0295 36.6511 32.2967 36.4519 32.5585L32.473 28.5795C32.1613 28.2678 32.0136 27.8553 32.0293 27.4467C32.048 27.446 32.0675 27.446 32.0863 27.446C32.4754 27.446 32.8644 27.5944 33.1613 27.8913L37.0277 31.7577Z" fill="#22A8B9"/>
<path d="M38.1324 29.9371C37.9785 30.2262 37.8168 30.5105 37.6472 30.791C37.291 30.7684 36.9418 30.6207 36.6699 30.348L32.9605 26.6387L32.6207 26.2996C32.6238 26.2973 32.6261 26.2949 32.6293 26.2934C32.6504 26.2777 32.6714 26.2621 32.6933 26.2473C32.7144 26.2324 32.7363 26.2184 32.7589 26.2051C32.7808 26.191 32.8027 26.1785 32.8254 26.1668C32.8472 26.1543 32.8691 26.1434 32.891 26.1332C32.9097 26.1238 32.9285 26.1152 32.948 26.1074C32.9668 26.0988 32.9863 26.091 33.0058 26.084C33.023 26.077 33.041 26.0707 33.0582 26.0652C33.0988 26.0512 33.1402 26.0387 33.1816 26.0285C33.1886 26.0269 33.1949 26.0254 33.2019 26.0238C33.223 26.0191 33.2433 26.0145 33.2644 26.0105C33.2707 26.009 33.2761 26.0082 33.2824 26.0074C33.3066 26.0027 33.3308 25.9996 33.355 25.9965C33.3605 25.9949 33.3668 25.9941 33.373 25.9941C33.3964 25.991 33.4199 25.9887 33.4433 25.9879C33.4519 25.9863 33.4613 25.9855 33.4699 25.9855C33.4957 25.984 33.5222 25.9832 33.5488 25.9832C33.9379 25.9832 34.3269 26.1316 34.6238 26.4285L38.1324 29.9371Z" fill="#4FCAE8"/>
<path d="M33.5485 25.9834C33.938 25.9834 34.3268 26.1316 34.6239 26.4287L36.7317 28.5364C36.1354 28.9971 35.2753 28.9539 34.7283 28.4068L32.6209 26.2994C32.8934 26.0888 33.2211 25.9838 33.5485 25.9834Z" fill="#83D5EF"/>
<path d="M27.8566 17.0224C25.2113 17.0224 23.0668 19.167 23.0668 21.8123C23.0668 24.4584 25.2113 26.6021 27.8566 26.6021C28.8964 26.6021 29.8582 26.2717 30.6433 25.7084C30.7379 25.642 30.8293 25.5709 30.9183 25.4967C31.0816 25.3607 31.2363 25.2146 31.38 25.0584C31.5136 24.9138 31.6386 24.7599 31.7535 24.5998C32.316 23.8146 32.6472 22.8521 32.6472 21.8123C32.6472 19.167 30.5027 17.0224 27.8566 17.0224ZM27.8566 18.4287C29.7253 18.4287 31.2402 19.9435 31.2402 21.8123C31.2402 23.681 29.7253 25.1959 27.8566 25.1959C25.9886 25.1959 24.4738 23.681 24.4738 21.8123C24.4738 19.9435 25.9886 18.4287 27.8566 18.4287Z" fill="#F39E22"/>
<path d="M27.8566 17.7646C25.6214 17.7646 23.8089 19.5763 23.8089 21.8123C23.8089 24.0474 25.6214 25.8599 27.8566 25.8599C30.0925 25.8599 31.905 24.0474 31.905 21.8123C31.905 19.5763 30.0925 17.7646 27.8566 17.7646ZM27.8566 25.1959C25.9886 25.1959 24.4738 23.681 24.4738 21.8123C24.4738 19.9435 25.9886 18.4287 27.8566 18.4287C29.7254 18.4287 31.2402 19.9435 31.2402 21.8123C31.2402 23.681 29.7254 25.1959 27.8566 25.1959Z" fill="#DD8C29"/>
<path d="M30.1595 22.2123C29.9389 22.2123 29.76 22.0334 29.76 21.8128C29.76 20.7634 28.9062 19.9097 27.8569 19.9097C27.6363 19.9097 27.4574 19.7308 27.4574 19.5102C27.4574 19.2896 27.6363 19.1107 27.8569 19.1107C29.3468 19.1107 30.559 20.3229 30.559 21.8128C30.5589 22.0334 30.3801 22.2123 30.1595 22.2123Z" fill="white"/>
<path d="M27.8569 24.5143C26.367 24.5143 25.1548 23.3021 25.1548 21.8122C25.1548 21.5916 25.3337 21.4127 25.5543 21.4127C25.775 21.4127 25.9539 21.5916 25.9539 21.8122C25.9539 22.8616 26.8076 23.7153 27.857 23.7153C28.0776 23.7153 28.2565 23.8942 28.2565 24.1148C28.2565 24.3354 28.0775 24.5143 27.8569 24.5143Z" fill="#C2AACF"/>
<path d="M11.0975 6.89861C14.0762 8.33447 18.9737 10.6954 14.9503 14.7189C10.9268 18.7423 8.5659 13.8449 7.13004 10.8661C6.32231 9.19057 6.47715 7.69979 7.20418 6.97275C7.93121 6.24572 9.42199 6.09088 11.0975 6.89861Z" fill="#53B976"/>
<path d="M14.3111 14.0802L7.84332 7.61225C8.01981 7.43577 8.01981 7.14968 7.84332 6.97319C7.66684 6.79671 7.38074 6.79671 7.20426 6.97319C6.47723 7.70022 6.32239 9.19093 7.13012 10.8666C8.56606 13.8452 10.9269 18.7427 14.9503 14.7193C15.1268 14.5428 15.1268 14.2567 14.9503 14.0802C14.7739 13.9037 14.4876 13.9037 14.3111 14.0802Z" fill="#528F66"/>
<path d="M11.0942 7.54961C13.5814 8.7486 17.6708 10.7198 14.3111 14.0795C10.9515 17.4391 8.98028 13.3497 7.78129 10.8625C7.10684 9.46344 7.23613 8.21868 7.84324 7.61157C8.45035 7.00446 9.69512 6.87516 11.0942 7.54961Z" fill="#53B976"/>
<path d="M10.6818 11.784C10.5504 11.9154 10.3372 11.9154 10.2058 11.784L9.78668 11.3649C9.65527 11.2335 9.65527 11.0203 9.78668 10.8889C9.91809 10.7575 10.1312 10.7575 10.2626 10.8889L10.6818 11.3081C10.8132 11.4395 10.8132 11.6526 10.6818 11.784Z" fill="#78C795"/>
<path d="M8.61105 9.7132C8.47965 9.8446 8.26652 9.8446 8.13512 9.7132L7.71598 9.29406C7.58457 9.16265 7.58457 8.94953 7.71598 8.81812C7.84738 8.68671 8.06051 8.68671 8.19191 8.81812L8.61105 9.23726C8.74246 9.36867 8.74246 9.58171 8.61105 9.7132Z" fill="#78C795"/>
<path d="M13.0605 14.1633C12.9291 14.2947 12.716 14.2947 12.5846 14.1633L12.1654 13.7442C12.034 13.6128 12.034 13.3997 12.1654 13.2682C12.2968 13.1368 12.51 13.1368 12.6414 13.2682L13.0605 13.6874C13.1919 13.8189 13.1919 14.0319 13.0605 14.1633Z" fill="#78C795"/>
<path d="M15.2885 13.4341C15.1773 13.5452 14.9996 13.5663 14.8639 13.4756C14.7093 13.3724 14.6677 13.1634 14.7709 13.0088C15.4018 12.0638 15.4067 11.2367 14.7862 10.4059C14.675 10.2569 14.7061 10.0458 14.8545 9.93484C15.0034 9.82359 15.2143 9.85421 15.3254 10.0031C16.1178 11.064 16.1195 12.201 15.3307 13.3826C15.318 13.4015 15.3039 13.4187 15.2885 13.4341Z" fill="#9ACDAE"/>
<path d="M13.7136 9.06322C13.6039 9.17291 13.429 9.19525 13.2933 9.10783C12.9493 8.88587 12.5546 8.65994 12.0869 8.41697C11.922 8.33126 11.8578 8.12814 11.9435 7.96322C12.0289 7.79822 12.2323 7.73407 12.3972 7.8197C12.8838 8.07244 13.2962 8.30876 13.6582 8.5422C13.8143 8.64291 13.8593 8.85126 13.7586 9.00736C13.7453 9.02798 13.7302 9.04658 13.7136 9.06322Z" fill="#9ACDAE"/>
<path d="M10.6694 7.5228C10.5834 7.60882 10.4536 7.64507 10.3296 7.60577C9.76644 7.42741 9.23176 7.38694 8.78316 7.48897C8.60191 7.53022 8.4216 7.41671 8.38035 7.23538C8.3391 7.05421 8.45262 6.87382 8.63394 6.83257C9.1991 6.70405 9.85574 6.7496 10.5328 6.96413C10.71 7.02022 10.8082 7.20937 10.752 7.38655C10.7351 7.43983 10.7063 7.48585 10.6694 7.5228Z" fill="#9ACDAE"/>
<path d="M14.1647 9.31536C14.0211 9.2013 13.8098 9.23927 13.711 9.39365L12.6686 11.0229C12.4693 11.3344 12.1007 11.3799 11.8453 11.1245L11.0195 10.2987C10.7641 10.0433 10.7186 9.5838 10.9179 9.27232L11.611 8.18903C11.7115 8.03193 11.6524 7.82224 11.4847 7.74075L11.2886 7.64552C11.1464 7.57646 10.9751 7.62474 10.89 7.75786L10.31 8.66435C10.1107 8.97583 9.74207 9.0213 9.48668 8.76591L8.72238 8.00161C8.72238 8.00161 8.67621 7.95544 8.6609 7.94013C8.17285 7.45208 7.87934 7.01341 7.87934 7.01341C7.76027 6.89435 7.62106 7.08958 7.49824 7.20482C7.48754 7.21482 7.47707 7.22505 7.46676 7.23536C7.46449 7.23763 7.46223 7.23989 7.45996 7.24224C7.34152 7.36239 7.34699 7.55755 7.46629 7.67685L8.1952 8.40575L8.23231 8.44286L9.02098 9.23154C9.27637 9.48693 9.2309 9.85552 8.91942 10.0548L7.98613 10.6519C7.85301 10.7371 7.80473 10.9084 7.87371 11.0506L7.96887 11.2466C8.05035 11.4144 8.26004 11.4736 8.41723 11.373L9.52739 10.6628C9.83887 10.4635 10.2984 10.509 10.5538 10.7643L11.3796 11.5901C11.635 11.8455 11.5895 12.2141 11.278 12.4134L9.62051 13.4739C9.46621 13.5726 9.42824 13.7838 9.54207 13.9272C9.5909 13.9888 9.64043 14.0491 9.69059 14.108C9.79129 14.2262 9.9645 14.2508 10.0953 14.1671L11.8861 13.0214C12.1975 12.8221 12.6571 12.8676 12.9125 13.1229L13.5903 13.8008L14.2354 14.4458L14.3669 14.5774C14.488 14.6985 14.6849 14.7001 14.806 14.5791L14.8082 14.5769C14.8172 14.5679 14.8259 14.5591 14.8347 14.5503C14.9549 14.4287 14.9532 14.2326 14.8323 14.1115L14.8879 14.0277C14.8879 14.0277 14.3858 13.6651 14.0558 13.3351C13.8864 13.1657 13.378 12.6573 13.378 12.6573C13.1226 12.4019 13.0772 11.9424 13.2765 11.6309L14.404 9.86865C14.4875 9.73794 14.4632 9.56497 14.3452 9.46419C14.2864 9.4138 14.2261 9.36427 14.1647 9.31536Z" fill="#528F66"/>
<path d="M23.4281 6.89861C20.4494 8.33447 15.5519 10.6954 19.5754 14.7189C23.5988 18.7423 25.9597 13.8449 27.3956 10.8661C28.2033 9.19057 28.0485 7.69979 27.3214 6.97275C26.5944 6.24572 25.1036 6.09088 23.4281 6.89861Z" fill="#53B976"/>
<path d="M20.2145 14.0802L26.6824 7.61225C26.5059 7.43577 26.5059 7.14968 26.6824 6.97319C26.8589 6.79671 27.145 6.79671 27.3215 6.97319C28.0485 7.70022 28.2033 9.19093 27.3956 10.8666C25.9597 13.8452 23.5989 18.7427 19.5753 14.7192C19.3989 14.5427 19.3989 14.2566 19.5753 14.0802C19.7518 13.9037 20.038 13.9037 20.2145 14.0802Z" fill="#528F66"/>
<path d="M23.4314 7.54961C20.9443 8.7486 16.8549 10.7198 20.2145 14.0795C23.5741 17.4391 25.5453 13.3497 26.7443 10.8625C27.4188 9.46344 27.2895 8.21868 26.6824 7.61157C26.0753 7.00446 24.8305 6.87516 23.4314 7.54961Z" fill="#53B976"/>
<path d="M23.8439 11.784C23.9753 11.9154 24.1884 11.9154 24.3198 11.784L24.739 11.3649C24.8704 11.2335 24.8704 11.0203 24.739 10.8889C24.6075 10.7575 24.3944 10.7575 24.263 10.8889L23.8439 11.3081C23.7125 11.4395 23.7125 11.6526 23.8439 11.784Z" fill="#78C795"/>
<path d="M25.9146 9.7132C26.046 9.8446 26.2591 9.8446 26.3905 9.7132L26.8096 9.29406C26.941 9.16265 26.941 8.94953 26.8096 8.81812C26.6782 8.68671 26.4651 8.68671 26.3337 8.81812L25.9146 9.23726C25.7832 9.36867 25.7832 9.58171 25.9146 9.7132Z" fill="#78C795"/>
<path d="M21.4651 14.1633C21.5965 14.2947 21.8096 14.2947 21.9411 14.1633L22.3602 13.7442C22.4916 13.6128 22.4916 13.3997 22.3602 13.2682C22.2288 13.1368 22.0157 13.1368 21.8843 13.2682L21.4651 13.6874C21.3337 13.8189 21.3337 14.0319 21.4651 14.1633Z" fill="#78C795"/>
<path d="M19.2372 13.4341C19.3484 13.5452 19.5261 13.5663 19.6618 13.4756C19.8164 13.3724 19.858 13.1634 19.7548 13.0088C19.1239 12.0638 19.119 11.2367 19.7395 10.4059C19.8507 10.2569 19.8196 10.0458 19.6712 9.93484C19.5223 9.82359 19.3114 9.85421 19.2003 10.0031C18.4079 11.064 18.4062 12.201 19.195 13.3826C19.2076 13.4015 19.2218 13.4187 19.2372 13.4341Z" fill="#9ACDAE"/>
<path d="M20.8121 9.06322C20.9218 9.17291 21.0966 9.19525 21.2323 9.10783C21.5764 8.88587 21.971 8.65994 22.4387 8.41697C22.6036 8.33126 22.6678 8.12814 22.5821 7.96322C22.4967 7.79822 22.2933 7.73407 22.1284 7.8197C21.6418 8.07244 21.2294 8.30876 20.8675 8.5422C20.7113 8.64291 20.6663 8.85126 20.7671 9.00736C20.7803 9.02798 20.7954 9.04658 20.8121 9.06322Z" fill="#9ACDAE"/>
<path d="M23.8562 7.5228C23.9422 7.60882 24.0721 7.64507 24.1961 7.60577C24.7592 7.42741 25.2939 7.38694 25.7425 7.48897C25.9237 7.53022 26.104 7.41671 26.1453 7.23538C26.1865 7.05421 26.073 6.87382 25.8917 6.83257C25.3265 6.70405 24.6699 6.7496 23.9928 6.96413C23.8156 7.02022 23.7175 7.20937 23.7736 7.38655C23.7905 7.43983 23.8193 7.48585 23.8562 7.5228Z" fill="#9ACDAE"/>
<path d="M20.3611 9.31536C20.5046 9.2013 20.7159 9.23927 20.8147 9.39365L21.8572 11.0229C22.0565 11.3344 22.425 11.3799 22.6804 11.1245L23.5062 10.2987C23.7616 10.0433 23.8071 9.5838 23.6078 9.27232L22.9147 8.18903C22.8142 8.03193 22.8733 7.82224 23.0411 7.74075L23.2371 7.64552C23.3793 7.57646 23.5506 7.62474 23.6358 7.75786L24.2158 8.66435C24.415 8.97583 24.7836 9.0213 25.039 8.76591L25.8033 8.00161C25.8033 8.00161 25.8495 7.95544 25.8648 7.94013C26.3529 7.45208 26.6464 7.01341 26.6464 7.01341C26.7654 6.89435 26.9047 7.08958 27.0275 7.20482C27.0382 7.21482 27.0486 7.22505 27.059 7.23536C27.0612 7.23763 27.0635 7.23989 27.0657 7.24224C27.1842 7.36239 27.1787 7.55755 27.0594 7.67685L26.3305 8.40575L26.2934 8.44286L25.5047 9.23154C25.2493 9.48693 25.2948 9.85552 25.6063 10.0548L26.5396 10.6519C26.6727 10.7371 26.721 10.9084 26.652 11.0506L26.5568 11.2466C26.4754 11.4144 26.2657 11.4736 26.1085 11.373L24.9983 10.6628C24.6868 10.4635 24.2273 10.509 23.9719 10.7643L23.1461 11.5901C22.8908 11.8455 22.9362 12.2141 23.2477 12.4134L24.9052 13.4739C25.0595 13.5726 25.0975 13.7838 24.9836 13.9272C24.9348 13.9888 24.8853 14.0491 24.8351 14.108C24.7344 14.2262 24.5612 14.2508 24.4304 14.1671L22.6397 13.0214C22.3282 12.8221 21.8686 12.8676 21.6133 13.1229L20.9354 13.8008L20.2904 14.4458L20.1588 14.5774C20.0377 14.6985 19.8408 14.7001 19.7197 14.5791C19.719 14.5783 19.7183 14.5776 19.7175 14.5769C19.7086 14.5679 19.6998 14.5591 19.6911 14.5503C19.5708 14.4287 19.5725 14.2326 19.6934 14.1115L19.6379 14.0277C19.6379 14.0277 20.1399 13.6651 20.4699 13.3351C20.6393 13.1657 21.1477 12.6573 21.1477 12.6573C21.4031 12.4019 21.4486 11.9424 21.2493 11.6309L20.1218 9.86865C20.0382 9.73794 20.0625 9.56497 20.1805 9.46419C20.2393 9.4138 20.2995 9.36427 20.3611 9.31536Z" fill="#528F66"/>
<path d="M17.7847 14.5818V18.4599H16.6785V14.5818C16.6785 14.4287 16.7402 14.2904 16.8402 14.1904C16.9121 14.1185 17.0019 14.0669 17.1035 14.0435C17.1449 14.0333 17.1871 14.0279 17.2316 14.0279C17.5371 14.0279 17.7847 14.2763 17.7847 14.5818Z" fill="#53B976"/>
<path d="M17.2316 14.0279V18.4599H16.6785V14.5818C16.6785 14.4287 16.7402 14.2904 16.8402 14.1904C16.9121 14.1185 17.0019 14.0669 17.1035 14.0435C17.1449 14.0333 17.1871 14.0279 17.2316 14.0279Z" fill="#528F66"/>
</svg>
