<svg width="40" height="40" viewBox="0 0 40 40" fill="none" xmlns="http://www.w3.org/2000/svg">
<path d="M39.9999 20C39.9999 27.9266 35.3874 34.7773 28.7007 38.0125C28.2937 38.2102 27.8788 38.3937 27.457 38.5633C27.2257 38.6562 26.9913 38.7453 26.7554 38.8297C26.3781 38.9648 25.9953 39.0898 25.6078 39.2031C25.3499 39.2781 25.0898 39.3484 24.8273 39.4133C24.2499 39.5562 23.6624 39.675 23.0663 39.7664C22.5523 39.8453 22.0312 39.9055 21.5046 39.9437C21.0078 39.9813 20.5062 40 19.9999 40C19.7663 40 19.5343 39.9961 19.3031 39.9883C19.0413 39.9789 18.7812 39.9648 18.5226 39.9461C17.9281 39.9031 17.3406 39.8336 16.7617 39.7383C16.2343 39.6531 15.7132 39.5469 15.1999 39.4195C14.5007 39.2477 13.8156 39.0383 13.1476 38.7945C12.7265 38.6414 12.3117 38.4742 11.9038 38.293C11.6671 38.1883 11.4335 38.0797 11.2023 37.9656C4.56791 34.7109 -6.10352e-05 27.8883 -6.10352e-05 20C-6.10352e-05 8.95469 8.95463 0 19.9999 0C31.0453 0 39.9999 8.95469 39.9999 20Z" fill="#78C795"/>
<path d="M21.6488 16.8919C19.879 16.4326 17.8654 17.0274 16.6324 18.3536C16.6324 18.3544 16.6324 18.3544 16.6316 18.3544C16.0597 18.9588 15.6356 19.6826 15.4004 20.4966C15.2668 20.9559 15.1957 21.4427 15.1957 21.945V39.4184C16.5353 39.7497 17.9133 39.939 19.2988 39.9872V34.4497H21.5004V39.9427C22.8946 39.8404 24.2678 39.5907 25.6035 39.202V21.945C25.6035 19.5013 23.9191 17.4505 21.6488 16.8919Z" fill="#50755C"/>
<path d="M25.6055 21.9439V39.201C24.7713 39.4434 23.9288 39.6312 23.064 39.7643V34.4486H19.3008V39.9861C18.4494 39.9561 17.5927 39.8739 16.7593 39.7361V21.9439C16.7597 21.5801 16.7968 21.2156 16.8726 20.8604C17.2525 18.9939 18.737 17.4209 20.5758 16.9283C20.7757 16.8742 20.977 16.8287 21.1828 16.7979C21.3414 16.8213 21.4969 16.8525 21.6508 16.8908C23.9211 17.4494 25.6055 19.5002 25.6055 21.9439Z" fill="#53B976"/>
<path d="M24.825 21.9453V39.4125C24.2476 39.5555 23.6601 39.6742 23.064 39.7656V34.45H18.5203V39.9453C17.9257 39.9024 17.3382 39.8328 16.7593 39.7375V21.9453C16.7597 21.5815 16.7968 21.217 16.8726 20.8617C17.2501 19.0079 18.717 17.4423 20.5398 16.9398C20.6231 16.9156 20.707 16.8955 20.7914 16.875C23.0902 17.4018 24.8277 19.4719 24.825 21.9453Z" fill="#528F66"/>
<path d="M15.1957 30.7266V39.4187C16.5353 39.75 17.9133 39.9393 19.2988 39.9875V34.45H21.5004V39.943C22.8946 39.8407 24.2678 39.591 25.6035 39.2023V30.7266H15.1957Z" fill="#22A8B9"/>
<path d="M25.6055 30.7266V39.2023C24.7713 39.4448 23.9288 39.6326 23.064 39.7656V34.45H19.3008V39.9875C18.4494 39.9575 17.5927 39.8753 16.7593 39.7375V30.7266H25.6055Z" fill="#CDE6F6"/>
<path d="M24.825 30.7266V39.4125C24.2476 39.5555 23.6601 39.6742 23.064 39.7657V34.45H18.5203V39.9453C17.9257 39.9024 17.3382 39.8328 16.7593 39.7375V30.7266H24.825Z" fill="#83D5EF"/>
<path d="M17.6255 12.8866C17.6822 13.5747 17.1517 14.1864 16.4528 14.1826H15.462C13.893 14.1412 13.8929 11.7552 15.462 11.7139H16.4528C17.1004 11.7139 17.6255 12.2389 17.6255 12.8866Z" fill="#F9D6BF"/>
<path d="M26.4252 12.8866C26.4819 13.5747 25.9514 14.1864 25.2525 14.1826H24.2618C22.6927 14.1412 22.6927 11.7552 24.2618 11.7139H25.2525C25.9002 11.7139 26.4252 12.2389 26.4252 12.8866Z" fill="#F9D6BF"/>
<path d="M18.0409 12.9488C18.0409 13.2204 17.8207 13.4406 17.5491 13.4406H15.7043C15.4327 13.4406 15.2125 13.2204 15.2125 12.9488C15.2125 12.6772 15.4327 12.457 15.7043 12.457H17.5491C17.8207 12.457 18.0409 12.6772 18.0409 12.9488Z" fill="#EAB39B"/>
<path d="M25.5013 12.9488C25.5013 13.2204 25.2811 13.4406 25.0095 13.4406H23.1646C22.8931 13.4406 22.6729 13.2204 22.6729 12.9488C22.6729 12.6772 22.8931 12.457 23.1646 12.457H25.0095C25.2811 12.457 25.5013 12.6772 25.5013 12.9488Z" fill="#EAB39B"/>
<path d="M21.5909 16.1081V17.3358C21.5909 17.9107 21.1973 18.3937 20.6648 18.5311C19.9003 18.7373 19.1106 18.1311 19.1223 17.3358V16.1081C19.1107 15.313 19.9003 14.7063 20.6648 14.9128C21.2043 15.0528 21.5905 15.5372 21.5909 16.1081Z" fill="#EAB39B"/>
<path d="M21.5923 16.1084V17.3361C21.5923 17.911 21.1987 18.3941 20.6662 18.5314C20.1346 18.3941 19.741 17.911 19.741 17.3361V16.1084C19.741 15.5335 20.1346 15.0505 20.6662 14.9131C21.2057 15.0531 21.5919 15.5375 21.5923 16.1084Z" fill="#F9D6BF"/>
<path d="M21.5909 16.1081V17.2386C21.3015 17.3041 21.0006 17.3389 20.6919 17.3389C20.2049 17.3389 19.5918 17.3606 19.1223 17.2386V16.1081C19.1107 15.313 19.9003 14.7063 20.6648 14.9128C21.2043 15.0528 21.5905 15.5372 21.5909 16.1081Z" fill="#EAB39B"/>
<path d="M24.752 9.87512V12.6562C24.7603 14.9045 22.903 16.7292 20.6885 16.719H20.0171C17.7732 16.719 15.9543 14.9002 15.9543 12.6562V9.87512C15.9543 7.63033 17.7732 5.81156 20.0171 5.81156H20.6885C22.9031 5.80161 24.7603 7.62589 24.752 9.87512Z" fill="#F9D6BF"/>
<path d="M24.7515 9.87547V12.6566C24.7515 14.7925 23.1032 16.5434 21.0081 16.707C18.9138 16.5434 17.2656 14.7925 17.2656 12.6566V9.87547C17.2656 7.73873 18.9138 5.98781 21.0081 5.82422C23.1032 5.98788 24.7515 7.7388 24.7515 9.87547Z" fill="#FFE9D7"/>
<path d="M20.3624 14.7495C19.8586 14.7495 19.4037 14.5959 19.1753 14.3485C19.058 14.2167 19.2506 14.0382 19.373 14.1661C19.7385 14.5806 20.9865 14.5805 21.3518 14.1661C21.4732 14.0385 21.6675 14.2164 21.5494 14.3485C21.321 14.5959 20.8662 14.7495 20.3624 14.7495Z" fill="#EAB39B"/>
<path d="M21.038 13.3559H19.6845C19.5081 13.353 19.5074 13.0899 19.6845 13.0869H21.038C21.2144 13.0897 21.2151 13.3528 21.038 13.3559Z" fill="#F3C3AA"/>
<path d="M19.2771 11.853C19.2771 11.5195 19.0066 11.249 18.6731 11.249C17.8722 11.28 17.8724 12.4262 18.6731 12.457C19.0066 12.457 19.2771 12.1866 19.2771 11.853Z" fill="#EAB39B"/>
<path d="M22.6584 11.853C22.6584 11.5195 22.388 11.249 22.0544 11.249C21.2536 11.28 21.2538 12.4262 22.0544 12.457C22.3881 12.457 22.6584 12.1866 22.6584 11.853Z" fill="#EAB39B"/>
<path d="M19.2381 12.0793C19.2381 11.7685 18.9861 11.5166 18.6753 11.5166C17.9297 11.5442 17.9299 12.6146 18.6753 12.642C18.9861 12.642 19.2381 12.3901 19.2381 12.0793Z" fill="#122894"/>
<path d="M19.0671 12.0896C19.3276 11.8155 18.9358 11.4237 18.6618 11.6842C18.4012 11.9583 18.7931 12.3501 19.0671 12.0896Z" fill="#E8F3FC"/>
<path d="M22.6245 12.0793C22.6245 11.7685 22.3725 11.5166 22.0618 11.5166C21.3161 11.5442 21.3163 12.6146 22.0618 12.642C22.3725 12.642 22.6245 12.3901 22.6245 12.0793Z" fill="#122894"/>
<path d="M22.4484 12.0896C22.7089 11.8155 22.3171 11.4237 22.0431 11.6842C21.7826 11.9583 22.1745 12.3501 22.4484 12.0896Z" fill="#E8F3FC"/>
<path d="M25.4483 9.80688V11.7321C25.3156 11.702 24.8981 11.7181 24.7569 11.7144C24.7572 11.7138 24.7567 9.87687 24.7569 9.87627C24.574 9.86699 21.0622 9.68026 17.4531 8.67019C17.0596 8.56059 16.6645 8.44023 16.2725 8.30985C16.0703 8.79216 15.9592 9.32147 15.9592 9.87707V11.7144C15.793 11.719 15.3862 11.6986 15.2292 11.7383V9.80688C15.2253 7.5678 16.8058 5.66855 18.9162 5.20157C19.4596 5.06225 20.1674 5.08659 20.7289 5.08659C21.2014 5.0874 21.673 5.15733 22.124 5.29645C24.0688 5.8899 25.4621 7.74155 25.4483 9.80688Z" fill="#DD5E26"/>
<path d="M25.4473 9.80682V11.7321C25.3145 11.702 24.897 11.718 24.7558 11.7143V9.87702C24.5738 9.86552 21.0615 9.68115 17.4521 8.67014C17.966 7.01491 19.5093 5.81348 21.3327 5.81348H22.0041C22.6561 5.81348 23.2719 5.96705 23.8175 6.23944C24.846 7.13627 25.4436 8.40098 25.4473 9.80682Z" fill="#EA792E"/>
<path d="M23.5569 10.7952C22.9312 10.5252 21.9398 10.5254 21.3151 10.7952C21.1717 10.8518 21.0781 10.9894 21.0781 11.1435V11.9831C21.1495 13.7842 23.7226 13.7839 23.7939 11.9831V11.1436C23.7939 10.9894 23.7003 10.8519 23.5569 10.7952Z" fill="#E8F3FC"/>
<path d="M22.4371 13.4982C21.6018 13.4982 20.9223 12.8186 20.9223 11.9834H21.236C21.3021 13.5772 23.5725 13.576 23.6382 11.9834H23.9518C23.9518 12.8186 23.2723 13.4982 22.4371 13.4982Z" fill="#9175A7"/>
<path d="M23.9474 11.9828H23.6337V11.1433C23.6337 11.0534 23.5796 10.9739 23.496 10.9409C22.9079 10.6852 21.9561 10.6856 21.3693 10.9409C21.2857 10.9739 21.2315 11.0533 21.2315 11.1433V11.9828H20.9178V11.1433C20.9178 10.9237 21.0499 10.7298 21.2542 10.6491C21.5055 10.5499 21.9139 10.4316 22.4326 10.4316C22.9512 10.4316 23.3597 10.5499 23.611 10.6491C23.8153 10.7298 23.9473 10.9238 23.9473 11.1433V11.9828H23.9474Z" fill="#57409B"/>
<path d="M19.4461 10.7903C18.8255 10.5255 17.8447 10.5258 17.2252 10.7903C17.0753 10.8487 16.9778 10.9929 16.9778 11.1538V11.9821C17.0492 13.7831 19.6222 13.783 19.6936 11.9821V11.1538C19.6936 10.993 19.5961 10.8487 19.4461 10.7903Z" fill="#E8F3FC"/>
<path d="M18.3354 13.4982C17.5001 13.4982 16.8206 12.8186 16.8206 11.9834H17.1343C17.2005 13.5772 19.4709 13.576 19.5365 11.9834H19.8501C19.8501 12.8186 19.1706 13.4982 18.3354 13.4982Z" fill="#9175A7"/>
<path d="M19.8501 11.9829H19.5365V11.1547C19.5365 11.0575 19.4785 10.9721 19.3889 10.9371C18.8069 10.6866 17.8627 10.687 17.2819 10.9371C17.1922 10.972 17.1343 11.0574 17.1343 11.1546V11.9828H16.8206V11.1546C16.8206 10.9271 16.9569 10.727 17.168 10.6448C17.4173 10.5476 17.8224 10.4316 18.3353 10.4316C18.8482 10.4316 19.2533 10.5476 19.5027 10.6448C19.7137 10.727 19.8501 10.9272 19.8501 11.1546V11.9829H19.8501Z" fill="#57409B"/>
<path d="M20.9356 11.6756C20.8261 11.5623 19.9432 11.562 19.8336 11.6739C19.8337 11.6737 19.8522 11.6548 19.8507 11.6102L19.5372 11.6201C19.5629 11.3332 19.9343 11.2816 20.3816 11.2754C21.1214 11.2754 21.2319 11.4883 21.2319 11.6152H20.9182C20.9182 11.6576 20.9354 11.6755 20.9356 11.6756Z" fill="#57409B"/>
<path d="M24.8557 11.0626H23.7949C23.7083 11.0626 23.6381 10.9924 23.6381 10.9058C23.6381 10.8193 23.7083 10.749 23.7949 10.749H24.8557C25.0614 10.7524 25.062 11.0591 24.8557 11.0626Z" fill="#57409B"/>
<path d="M16.9753 11.0627H15.9146C15.7088 11.0593 15.7083 10.7526 15.9146 10.749H16.9753C17.1811 10.7525 17.1816 11.0592 16.9753 11.0627Z" fill="#57409B"/>
<path d="M19.2833 11.6079C19.2833 11.2689 19.0086 10.9941 18.6696 10.9941C17.8564 11.0242 17.8566 12.1916 18.6696 12.2216C19.0085 12.2216 19.2833 11.9469 19.2833 11.6079Z" fill="#98CBEF"/>
<path d="M22.719 11.6079C22.719 11.2689 22.4443 10.9941 22.1053 10.9941C21.2921 11.0242 21.2923 12.1916 22.1053 12.2216C22.4443 12.2216 22.719 11.9469 22.719 11.6079Z" fill="#98CBEF"/>
<path d="M19.2375 11.8364C19.2375 11.5207 18.9815 11.2646 18.6657 11.2646C17.9088 11.2908 17.909 12.3822 18.6657 12.4082C18.9815 12.4083 19.2375 12.1523 19.2375 11.8364Z" fill="#122894"/>
<path d="M19.066 11.8484C19.3307 11.57 18.9325 11.1719 18.6541 11.4366C18.3894 11.7151 18.7876 12.1131 19.066 11.8484Z" fill="#E8F3FC"/>
<path d="M22.6753 11.8364C22.6753 11.5207 22.4193 11.2646 22.1035 11.2646C21.3465 11.2908 21.3467 12.3822 22.1035 12.4082C22.4193 12.4083 22.6753 12.1523 22.6753 11.8364Z" fill="#122894"/>
<path d="M22.5018 11.8484C22.7664 11.57 22.3683 11.1719 22.0899 11.4366C21.8252 11.7151 22.2234 12.1131 22.5018 11.8484Z" fill="#E8F3FC"/>
<path d="M34.0104 27.6416C34.0158 28.3544 33.4188 28.9645 32.6932 28.9588H7.30574C6.57839 28.9588 5.98855 28.369 5.98855 27.6416C5.98417 26.916 6.5887 26.3211 7.30574 26.3252H32.6932C33.4206 26.3252 34.0104 26.9143 34.0104 27.6416Z" fill="#DEB36F"/>
<path d="M34.0059 27.6414C34.0059 27.7937 33.9801 27.9406 33.9317 28.0773C33.7779 28.109 8.54424 28.0775 8.3758 28.0883C7.48611 28.1056 6.82455 27.167 7.13322 26.3359C7.28697 26.3041 32.5206 26.3357 32.689 26.325C33.416 26.325 34.0059 26.914 34.0059 27.6414Z" fill="#FBCB74"/>
<path d="M29.209 28.0885H14.9949C14.5079 28.0885 14.1132 27.6938 14.1132 27.2068C14.1132 26.7199 14.5079 26.3252 14.9949 26.3252H29.209C30.3748 26.3706 30.3823 28.0397 29.209 28.0885Z" fill="#FBD9A3"/>
<path d="M30.6806 28.959V32.7027C30.6806 33.766 29.8439 34.6332 28.7947 34.6832C28.5819 34.6889 11.4144 34.6869 11.1994 34.6832C10.1501 34.6332 9.31342 33.766 9.31342 32.7027V28.959H30.6806Z" fill="#C68132"/>
<path d="M29.0525 31.6234V33.7805C29.0525 34.1125 28.9564 34.4227 28.79 34.6828C28.5771 34.6874 11.4096 34.6874 11.1946 34.6828C11.0282 34.4227 10.9321 34.1125 10.9321 33.7805V31.6234C10.9321 31.0609 11.3876 30.6055 11.9501 30.6055H28.0345C28.597 30.6055 29.0525 31.0609 29.0525 31.6234Z" fill="#DD8C29"/>
<path d="M25.4665 32.6453H17.8444C17.2812 32.6453 16.8245 32.1887 16.8245 31.6254C16.8245 31.0621 17.2812 30.6055 17.8444 30.6055H25.4665C26.8177 30.6592 26.8213 32.59 25.4665 32.6453Z" fill="#F39E22"/>
<path d="M13.1502 34.6816V38.7934C12.4864 38.5518 11.8376 38.2752 11.2049 37.9645V34.6816H13.1502Z" fill="#A583BB"/>
<path d="M13.1504 35.6359V38.7937C12.7293 38.6405 12.3144 38.4733 11.9066 38.2921V35.6359C11.9356 34.8129 13.122 34.8127 13.1504 35.6359Z" fill="#C2AACF"/>
<path d="M12.5286 37.9226C12.1853 37.9226 11.9069 37.6442 11.9069 37.3008V36.5143C11.9373 35.6907 13.12 35.6904 13.1504 36.5143V37.3008C13.1504 37.6442 12.872 37.9226 12.5286 37.9226Z" fill="#DECEE5"/>
<path d="M28.7025 34.6816V38.0113C28.0708 38.318 27.4201 38.5913 26.7572 38.8285V34.6816H28.7025Z" fill="#A583BB"/>
<path d="M28.7027 35.6349V38.0107C28.2957 38.2083 27.8809 38.3919 27.459 38.5615V35.6349C27.488 34.812 28.6744 34.8116 28.7027 35.6349Z" fill="#C2AACF"/>
<path d="M28.0809 37.9226C27.7376 37.9226 27.4592 37.6442 27.4592 37.3008V36.5143C27.4896 35.6907 28.6723 35.6904 28.7027 36.5143V37.3008C28.7027 37.6442 28.4243 37.9226 28.0809 37.9226Z" fill="#DECEE5"/>
<path d="M20.8858 23.374H27.5011C28.2574 23.39 28.2595 24.551 27.5011 24.5676C27.1168 24.5679 20.1641 24.5674 20.0055 24.5676L20.289 23.9708C20.4296 23.6614 20.5562 23.374 20.8858 23.374Z" fill="white"/>
<path d="M19.1258 23.374H12.5106C11.7543 23.39 11.7522 24.551 12.5106 24.5676C12.8949 24.5679 19.8475 24.5674 20.0061 24.5676L19.7226 23.9708C19.582 23.6614 19.4554 23.374 19.1258 23.374Z" fill="#EBD9EA"/>
<path d="M29.5971 25.4443C29.6011 25.9177 29.2073 26.3258 28.7192 26.3231H11.2901C10.805 26.3231 10.412 25.93 10.4122 25.4443C10.4122 24.9595 10.8054 24.5664 11.2901 24.5664H28.7192C29.2039 24.5663 29.5974 24.9597 29.5971 25.4443Z" fill="#C0405C"/>
<path d="M29.5953 25.4442C29.5953 25.5217 29.585 25.5964 29.567 25.6682H12.4913C12.187 25.6682 11.9404 25.4216 11.9404 25.1173C11.9404 24.9651 12.0018 24.8272 12.1019 24.728C12.2012 24.6278 12.3391 24.5664 12.4912 24.5664H28.7174C29.2021 24.5662 29.5956 24.9596 29.5953 25.4442Z" fill="#E9465E"/>
</svg>
