<svg width="41" height="41" viewBox="0 0 41 41" fill="none" xmlns="http://www.w3.org/2000/svg">
<g clip-path="url(#clip0)">
<path d="M20.0043 40.5C31.05 40.5 40.0043 31.5457 40.0043 20.5C40.0043 9.4543 31.05 0.5 20.0043 0.5C8.95864 0.5 0.0043335 9.4543 0.0043335 20.5C0.0043335 31.5457 8.95864 40.5 20.0043 40.5Z" fill="#4864C8"/>
</g>
<mask id="path-2-inside-1" fill="white">
<path d="M9.63988 7.47962C9.82667 7.4021 10.0418 7.4447 10.1849 7.58762L33.184 30.5867C33.3795 30.7817 33.3799 31.0983 33.1849 31.2938C33.0909 31.3881 32.9631 31.441 32.83 31.4407H9.83084C9.55471 31.4407 9.33084 31.2169 9.33084 30.9407V7.94161C9.33093 7.73926 9.4529 7.55692 9.63988 7.47962Z"/>
</mask>
<path d="M9.63988 7.47962L10.0232 8.40323L10.0219 8.40377L9.63988 7.47962ZM10.1849 7.58762L10.8915 6.88005L10.892 6.88051L10.1849 7.58762ZM33.184 30.5867L32.4778 31.2948L32.4769 31.2938L33.184 30.5867ZM33.1849 31.2938L33.8929 32L33.8929 32L33.1849 31.2938ZM32.83 31.4407V30.4407L32.8318 30.4407L32.83 31.4407ZM9.33084 7.94161H8.33084V7.94114L9.33084 7.94161ZM9.25653 6.55602C9.81682 6.32347 10.4621 6.45124 10.8915 6.88005L9.47823 8.29519C9.62139 8.43817 9.83652 8.48072 10.0232 8.40323L9.25653 6.55602ZM10.892 6.88051L33.8911 29.8796L32.4769 31.2938L9.47777 8.29473L10.892 6.88051ZM33.8902 29.8787C34.4768 30.4638 34.4778 31.4136 33.8929 32L32.4768 30.5876C32.2819 30.7831 32.2822 31.0996 32.4778 31.2948L33.8902 29.8787ZM33.8929 32C33.6108 32.2828 33.2277 32.4414 32.8282 32.4407L32.8318 30.4407C32.6986 30.4405 32.5709 30.4934 32.4769 30.5876L33.8929 32ZM32.83 32.4407H9.83084V30.4407H32.83V32.4407ZM9.83084 32.4407C9.00243 32.4407 8.33084 31.7691 8.33084 30.9407H10.3308C10.3308 30.6646 10.107 30.4407 9.83084 30.4407V32.4407ZM8.33084 30.9407V7.94161H10.3308V30.9407H8.33084ZM8.33084 7.94114C8.33112 7.33435 8.6969 6.78736 9.25785 6.55547L10.0219 8.40377C10.2089 8.32647 10.3307 8.14416 10.3308 7.94207L8.33084 7.94114Z" fill="#455A64" mask="url(#path-2-inside-1)"/>
<path d="M31.4259 24.551C31.702 24.551 31.9259 24.3271 31.9259 24.051V22.051C31.9259 21.7749 31.702 21.551 31.4259 21.551C31.1497 21.551 30.9259 21.7749 30.9259 22.051V22.844L28.1673 20.1843C27.9687 19.9925 27.6522 19.998 27.4604 20.1966C27.2732 20.3903 27.2732 20.6975 27.4604 20.8912L31.0729 24.4049C31.1666 24.4985 31.2935 24.551 31.4259 24.551Z" fill="white"/>
<path d="M29.4259 24.5508H31.4259C31.702 24.5508 31.9259 24.3269 31.9259 24.0508C31.9259 23.7746 31.702 23.5508 31.4259 23.5508H29.4259C29.1498 23.5508 28.9259 23.7746 28.9259 24.0508C28.9259 24.3269 29.1498 24.5508 29.4259 24.5508Z" fill="white"/>
<path d="M16.2776 9.12677C16.0015 9.12677 15.7776 9.35064 15.7776 9.62677V11.6267C15.7776 11.9028 16.0015 12.1267 16.2776 12.1267C16.5537 12.1267 16.7776 11.9028 16.7776 11.6267V10.8338L19.5361 13.4935C19.7348 13.6853 20.0513 13.6798 20.2431 13.4812C20.4303 13.2874 20.4303 12.9802 20.2431 12.7865L16.6306 9.27283C16.5369 9.17927 16.41 9.12677 16.2776 9.12677Z" fill="white"/>
<path d="M18.2776 9.12696H16.2776C16.0015 9.12696 15.7776 9.35083 15.7776 9.62696C15.7776 9.90309 16.0015 10.127 16.2776 10.127H18.2776C18.5537 10.127 18.7776 9.90309 18.7776 9.62696C18.7776 9.35083 18.5537 9.12696 18.2776 9.12696Z" fill="white"/>
<path d="M19.8305 25.4393C20.1066 25.4393 20.3305 25.2154 20.3305 24.9393V20.9395C20.3305 20.6633 20.1066 20.4395 19.8305 20.4395C19.5544 20.4395 19.3305 20.6633 19.3305 20.9395V23.7323L18.6846 23.0864C18.4859 22.8945 18.1694 22.9001 17.9776 23.0987C17.7904 23.2924 17.7904 23.5996 17.9776 23.7934L19.4775 25.2933C19.5712 25.3867 19.6981 25.4392 19.8305 25.4393Z" fill="#FAFAFA"/>
<path d="M19.8305 25.4396C19.9632 25.4398 20.0906 25.3873 20.1845 25.2936L21.6844 23.7936C21.8762 23.595 21.8708 23.2785 21.6721 23.0866C21.4784 22.8995 21.1712 22.8995 20.9775 23.0866L19.4775 24.5866C19.2826 24.7821 19.2831 25.0987 19.4786 25.2937C19.572 25.3868 19.6985 25.4393 19.8305 25.4396Z" fill="#FAFAFA"/>
<path d="M9.83087 31.4394H32.83C33.1061 31.4399 33.3304 31.2165 33.3309 30.9404C33.3311 30.8073 33.2782 30.6795 33.184 30.5855L10.1849 7.58634C9.98986 7.39083 9.67328 7.39045 9.47777 7.58545C9.3835 7.67947 9.33064 7.8072 9.33087 7.94032V30.9395C9.33087 31.2156 9.55474 31.4394 9.83087 31.4394Z" fill="#6EBD61"/>
<path d="M11.6973 29.8603H28.9634C29.1707 29.8607 29.339 29.6929 29.3394 29.4856C29.3396 29.3857 29.2999 29.2898 29.2291 29.2192L11.963 11.953C11.8166 11.8063 11.579 11.806 11.4322 11.9524C11.3614 12.023 11.3217 12.1189 11.3219 12.2188V29.4849C11.3219 29.6922 11.49 29.8603 11.6973 29.8603Z" fill="#69B052"/>
<path d="M24.2006 21.3936C24.3333 21.3939 24.4607 21.3414 24.5546 21.2476L28.0545 17.7477C28.2497 17.5525 28.2497 17.236 28.0545 17.0408L24.0546 13.0409C23.8594 12.8457 23.5429 12.8457 23.3477 13.0409L19.8478 16.5408C19.6526 16.736 19.6526 17.0525 19.8478 17.2478L23.8476 21.2476C23.9414 21.3411 24.0683 21.3936 24.2006 21.3936Z" fill="#D44444"/>
<path d="M18.0677 22.5426C18.0677 22.8187 18.2916 23.0426 18.5677 23.0426H20.5676C20.8438 23.0426 21.0676 22.8187 21.0676 22.5426C21.0676 22.2664 20.8438 22.0426 20.5676 22.0426H19.7747L23.9041 17.8142C24.0959 17.6156 24.0905 17.2991 23.8919 17.1073C23.6981 16.9201 23.3909 16.9201 23.1972 17.1073L18.2137 22.1896C18.1202 22.2833 18.0677 22.4102 18.0677 22.5426Z" fill="white"/>
<path d="M18.0668 20.5437V22.5436C18.0668 22.8197 18.2906 23.0436 18.5668 23.0436C18.8429 23.0436 19.0668 22.8197 19.0668 22.5436V20.5437C19.0668 20.2675 18.8429 20.0437 18.5668 20.0437C18.2906 20.0437 18.0668 20.2675 18.0668 20.5437Z" fill="white"/>
<line x1="23.749" y1="14.2246" x2="24.1477" y2="14.6233" stroke="#EA5C5C" stroke-linecap="round" stroke-linejoin="round"/>
<line x1="12.5158" y1="14.9531" x2="12.5158" y2="16.4677" stroke="#81C96A" stroke-linecap="round" stroke-linejoin="round"/>
<line x1="21.8309" y1="28.667" x2="26.4496" y2="28.667" stroke="#81C96A" stroke-linecap="round" stroke-linejoin="round"/>
<defs>
<clipPath id="clip0">
<rect width="40" height="40" fill="white" transform="translate(0.0043335 0.5)"/>
</clipPath>
</defs>
</svg>
