<svg width="40" height="40" viewBox="0 0 40 40" fill="none" xmlns="http://www.w3.org/2000/svg">
<g clip-path="url(#clip0)">
<path d="M20.0006 39.9993C31.0458 39.9993 39.9997 31.0454 39.9997 20.0001C39.9997 8.9549 31.0458 0.000976562 20.0006 0.000976562C8.95533 0.000976562 0.00140381 8.9549 0.00140381 20.0001C0.00140381 31.0454 8.95533 39.9993 20.0006 39.9993Z" fill="white"/>
<path d="M38.8515 13.332H26.5291C27.064 17.6044 27.0675 22.3119 26.5392 26.5895H38.878C39.598 24.5258 39.9943 22.3097 39.9943 20.0006C39.9946 17.6611 39.5891 15.4177 38.8515 13.332Z" fill="#D32027"/>
<path d="M26.5341 13.3326H38.8565C38.8543 13.3263 38.8524 13.321 38.8502 13.3152C36.2904 6.09787 29.7065 0.787872 21.7957 0.0830078C24.857 1.7611 25.751 7.07777 26.5341 13.3326Z" fill="#0B0B0B"/>
<path d="M21.796 39.9168C29.721 39.2106 36.3144 33.8823 38.864 26.6457C38.8707 26.6264 38.8764 26.6075 38.8833 26.5889H26.5441C25.7677 32.8775 24.8699 38.2317 21.796 39.9168Z" fill="#F3C515"/>
<path d="M-6.10352e-05 20.0006C-6.10352e-05 22.31 0.39624 24.5258 1.11622 26.5895H27.574C28.1023 22.3115 28.0988 17.6044 27.5639 13.332H1.14282C0.405107 15.4178 -6.10352e-05 17.6612 -6.10352e-05 20.0006Z" fill="#DB2727"/>
<path d="M1.14366 13.3143C1.14147 13.32 1.13952 13.3254 1.13733 13.3317H27.5588C26.7757 7.07684 24.8518 1.76026 21.7909 0.0821652C21.1987 0.0297247 20.6 0 19.9944 0C11.2941 0 3.8948 5.55666 1.14366 13.3143Z" fill="#151515"/>
<path d="M27.5755 26.5889H1.11774C1.12441 26.6075 1.1304 26.6264 1.13699 26.6457C3.87741 34.4233 11.2865 39.9994 20.0009 39.9994C20.6067 39.9994 21.2054 39.9697 21.7974 39.9167C24.8714 38.2318 26.799 32.8775 27.5755 26.5889Z" fill="#F8D12E"/>
</g>
<defs>
<clipPath id="clip0">
<rect width="40" height="40" fill="white"/>
</clipPath>
</defs>
</svg>
