<svg width="40" height="40" viewBox="0 0 40 40" fill="none" xmlns="http://www.w3.org/2000/svg">
<g clip-path="url(#clip0)">
<path d="M26.6641 1.14258L24.3301 7.61373C26.4845 14.7234 26.4845 25.2758 24.3301 32.3858L26.6641 38.8562C34.4309 36.1099 39.9963 28.7064 39.9963 19.9989C39.9963 11.2928 34.4309 3.88905 26.6641 1.14258Z" fill="#E61E25"/>
<path d="M26.6679 7.61394V1.14279C24.5821 0.405165 22.3388 0 20 0C23.084 0 18.8079 10.4519 26.6679 7.61394Z" fill="#E4E4E4"/>
<path d="M20.001 40.0001C22.3397 40.0001 24.5831 39.5949 26.6689 38.8572V32.3867C18.8879 31.6101 20.001 40.0001 20.001 40.0001Z" fill="#E4E4E4"/>
<path d="M-6.10352e-05 20.0006C-6.10352e-05 28.7373 5.60325 36.1602 13.4102 38.8844V1.11816C5.60325 3.84243 -6.10352e-05 11.2654 -6.10352e-05 20.0006Z" fill="#3757A6"/>
<path d="M26.6686 7.61426V32.3863C28.8233 25.2763 28.8233 14.7238 26.6686 7.61426Z" fill="#EF4F4E"/>
<path d="M26.6711 32.3862V7.61394C25.3095 3.11904 23.0872 0 20.0032 0C17.6936 0 15.4777 0.396636 13.4137 1.11695V38.8834C15.4777 39.6037 17.6936 39.9998 20.0032 39.9998C23.0872 39.9997 25.3095 36.8806 26.6711 32.3862Z" fill="#F3F4F5"/>
</g>
<defs>
<clipPath id="clip0">
<rect width="40" height="40" fill="white"/>
</clipPath>
</defs>
</svg>
