<svg width="40" height="40" viewBox="0 0 40 40" fill="none" xmlns="http://www.w3.org/2000/svg">
<g clip-path="url(#clip0)">
<path d="M19.9999 39.9993C26.3991 39.9993 32.0913 36.9914 35.752 32.3154H25.2183C23.8585 36.8483 23.0996 39.9993 19.9999 39.9993Z" fill="#C42126"/>
<path d="M18.8121 39.9664C18.8083 39.9664 18.8048 39.9658 18.801 39.9658C18.8048 39.9658 18.8086 39.9664 18.8121 39.9664Z" fill="#C42126"/>
<path d="M25.2183 7.68387H35.7523C32.0913 3.00857 26.399 0 19.9999 0C23.0996 0 23.8585 3.15095 25.2183 7.68387Z" fill="#C42126"/>
<path d="M18.801 0.0338326C18.8048 0.0338326 18.8083 0.0332415 18.8121 0.0332415C18.8086 0.033157 18.8048 0.033157 18.801 0.0338326Z" fill="#C42126"/>
<path d="M35.7477 7.68457H25.2135C27.3394 14.7704 27.3394 25.232 25.2135 32.3168H35.7467C38.4057 28.9213 39.9951 24.6483 39.9951 20.0008C39.9954 15.3537 38.4059 11.0803 35.7477 7.68457Z" fill="#FFC40C"/>
<path d="M20.0012 40.0002C19.6033 40.0002 19.2079 39.9886 18.8151 39.9658C19.2135 39.9879 19.6096 40.0002 20.0012 40.0002Z" fill="#C42126"/>
<path d="M18.8151 0.0350453C19.2078 0.0116536 19.6033 0 20.0012 0C19.6096 0 19.2135 0.0129203 18.8151 0.0350453Z" fill="#C42126"/>
<path d="M26.6937 32.3154H4.25256C7.68303 36.6977 12.8987 39.615 18.8068 39.9642C18.8106 39.9642 18.8141 39.9648 18.8179 39.9648C19.2107 39.9876 19.6061 39.9993 20.004 39.9993C23.1038 39.9993 25.3336 36.8483 26.6937 32.3154Z" fill="#D32030"/>
<path d="M4.25256 7.68387H26.6938C25.3336 3.15095 23.1038 0 20.0041 0C19.6062 0 19.2108 0.0116536 18.818 0.0350453C18.8142 0.0350453 18.8107 0.0356364 18.8069 0.0356364C12.8987 0.384654 7.68303 3.30228 4.25256 7.68387Z" fill="#D32030"/>
<path d="M0.000854492 20.0008C0.000854492 24.6483 1.59022 28.9213 4.24919 32.3168H26.6904C28.8163 25.2316 28.8163 14.77 26.6904 7.68457H4.24919C1.59022 11.0803 0.000854492 15.3537 0.000854492 20.0008Z" fill="#FFD034"/>
</g>
<defs>
<clipPath id="clip0">
<rect width="40" height="40" fill="white" transform="translate(-0.00012207)"/>
</clipPath>
</defs>
</svg>
