<svg width="40" height="40" viewBox="0 0 40 40" fill="none" xmlns="http://www.w3.org/2000/svg">
<path d="M19.9999 40C31.0456 40 39.9999 31.0457 39.9999 20C39.9999 8.9543 31.0456 0 19.9999 0C8.95418 0 -0.00012207 8.9543 -0.00012207 20C-0.00012207 31.0457 8.95418 40 19.9999 40Z" fill="#22BCE0"/>
<path d="M28.505 15.8856V32.8265C28.505 33.2725 28.391 33.6911 28.1904 34.0561C27.9493 34.4953 27.5827 34.8562 27.1384 35.0899C26.7833 35.2773 26.3779 35.383 25.9485 35.383H14.0529C13.6219 35.383 13.2165 35.2765 12.8606 35.0882C12.418 34.8546 12.0522 34.4946 11.8111 34.0561C11.6104 33.6911 11.4965 33.2725 11.4965 32.8265V15.8856C11.4965 14.9046 12.0489 14.0525 12.8606 13.6239C13.2165 13.4356 13.6219 13.3291 14.0529 13.3291H25.9485C26.3779 13.3291 26.7834 13.4348 27.1385 13.6222C27.951 14.0508 28.505 14.9029 28.505 15.8856Z" fill="#E9465E"/>
<path d="M14.2238 15.8857V32.8267C14.2238 33.8077 13.6713 34.6598 12.8596 35.0884C12.417 34.8547 12.0512 34.4947 11.8101 34.0562C11.6095 33.6912 11.4955 33.2726 11.4955 32.8267V15.8857C11.4955 14.9047 12.0479 14.0526 12.8596 13.624C13.6713 14.0526 14.2238 14.9047 14.2238 15.8857Z" fill="#C0405C"/>
<path d="M28.507 15.8854V32.8263C28.507 33.2723 28.393 33.6909 28.1924 34.0559C27.9513 34.4952 27.5847 34.856 27.1404 35.0897C26.3279 34.6611 25.7738 33.809 25.7738 32.8263V15.8854C25.7738 14.9028 26.3279 14.0507 27.1404 13.6221C27.9529 14.0507 28.507 14.9028 28.507 15.8854Z" fill="#EE6781"/>
<path d="M28.1893 34.0545C27.9482 34.4938 27.5816 34.8547 27.1373 35.0883C26.7822 35.2758 26.3768 35.3815 25.9474 35.3815H14.0518C13.6208 35.3815 13.2153 35.275 12.8595 35.0867C12.4169 34.853 12.051 34.493 11.8099 34.0545C12.2443 33.2634 13.0857 32.7275 14.0518 32.7275H25.9474C26.9135 32.7275 27.755 33.2634 28.1893 34.0545Z" fill="#C0405C"/>
<path d="M27.1404 27.7011C26.3857 27.7011 25.7738 27.0893 25.7738 26.3345V21.0307C25.7738 20.2759 26.3857 19.6641 27.1404 19.6641C27.8951 19.6641 28.5069 20.2759 28.5069 21.0307V26.3345C28.507 27.0893 27.8952 27.7011 27.1404 27.7011Z" fill="#F0A6B3"/>
<path d="M23.9543 14.7471H19.2196C18.828 14.7471 18.5106 14.4296 18.5106 14.0381C18.5106 13.6465 18.828 13.3291 19.2196 13.3291H23.9543C24.3459 13.3291 24.6633 13.6465 24.6633 14.0381C24.6633 14.4296 24.3459 14.7471 23.9543 14.7471Z" fill="#F0A6B3"/>
<path d="M24.2987 19.9209H16.7042C16.3127 19.9209 15.9952 19.6035 15.9952 19.2119C15.9952 18.8204 16.3127 18.5029 16.7042 18.5029H24.2987C24.6902 18.5029 25.0077 18.8204 25.0077 19.2119C25.0077 19.6035 24.6902 19.9209 24.2987 19.9209Z" fill="#C0405C"/>
<path d="M27.2226 16.1495V17.0982C27.2226 17.135 27.2207 17.1718 27.218 17.2077C27.1628 17.932 26.5572 18.5016 25.8192 18.5016H14.1871C13.4491 18.5016 12.8435 17.932 12.7883 17.2077C12.7856 17.1719 12.7837 17.135 12.7837 17.0982V16.1495C12.7837 15.3746 13.4122 14.7461 14.1871 14.7461H25.8191C26.594 14.746 27.2226 15.3746 27.2226 16.1495Z" fill="#2D2C33"/>
<path d="M27.2203 17.2079C27.1651 17.9321 26.5596 18.5018 25.8215 18.5018H14.1895C13.4514 18.5018 12.8459 17.9321 12.7906 17.2079C12.8459 16.4827 13.4514 15.9131 14.1895 15.9131H25.8215C26.5596 15.913 27.1651 16.4827 27.2203 17.2079Z" fill="#334353"/>
<path d="M15.713 17.5264C15.713 17.642 15.6476 17.6997 15.5168 17.6997H14.2739C14.2172 17.6997 14.1725 17.6829 14.1397 17.649C14.107 17.6152 14.0907 17.5732 14.0907 17.5231C14.0907 17.4577 14.1157 17.3988 14.166 17.3464L14.9117 16.5451C15.0033 16.4449 15.0703 16.3527 15.1129 16.2687C15.1554 16.1848 15.1766 16.1014 15.1766 16.0185C15.1766 15.916 15.1472 15.8375 15.0883 15.783C15.0295 15.7286 14.9454 15.7012 14.8365 15.7012C14.747 15.7012 14.6603 15.7181 14.5764 15.7519C14.4924 15.7858 14.4079 15.8321 14.323 15.891C14.3012 15.9063 14.2793 15.9188 14.2576 15.9286C14.2358 15.9384 14.214 15.9433 14.1922 15.9433C14.1551 15.9433 14.1229 15.9259 14.0957 15.891C14.0684 15.8561 14.0548 15.8147 14.0548 15.7667C14.0548 15.7339 14.0607 15.7057 14.0728 15.6816C14.0847 15.6576 14.1038 15.6347 14.13 15.6129C14.226 15.5366 14.3382 15.4761 14.4669 15.4314C14.5955 15.3867 14.7242 15.3643 14.8529 15.3643C15.0775 15.3643 15.2568 15.421 15.391 15.5344C15.5251 15.6478 15.5922 15.8004 15.5922 15.9923C15.5922 16.1254 15.5638 16.2502 15.5072 16.3668C15.4504 16.4835 15.3545 16.6138 15.2193 16.7577L14.6535 17.3595H15.517C15.6476 17.3595 15.713 17.4151 15.713 17.5264Z" fill="#CDE6F6"/>
<path d="M18.4823 16.6609C18.5095 16.6882 18.5232 16.7225 18.5232 16.7639C18.5232 16.8054 18.5095 16.8397 18.4823 16.867C18.455 16.8943 18.4207 16.9079 18.3793 16.9079H17.869V17.4147C17.869 17.4562 17.8554 17.4911 17.8282 17.5193C17.8008 17.5477 17.7665 17.5619 17.7251 17.5619C17.6836 17.5619 17.6493 17.5477 17.6221 17.5193C17.5947 17.4911 17.5812 17.4561 17.5812 17.4147V16.9079H17.071C17.0295 16.9079 16.9951 16.8943 16.9679 16.867C16.9406 16.8397 16.927 16.8054 16.927 16.7639C16.927 16.7225 16.9406 16.6882 16.9679 16.6609C16.9951 16.6336 17.0295 16.62 17.071 16.62H17.5812V16.1098C17.5812 16.0683 17.5948 16.034 17.6221 16.0067C17.6493 15.9795 17.6836 15.9658 17.7251 15.9658C17.7665 15.9658 17.8008 15.9794 17.8282 16.0067C17.8554 16.034 17.869 16.0683 17.869 16.1098V16.62H18.3793C18.4207 16.62 18.455 16.6336 18.4823 16.6609Z" fill="#CDE6F6"/>
<path d="M21.4095 17.5264C21.4095 17.642 21.3441 17.6997 21.2133 17.6997H19.9703C19.9136 17.6997 19.8689 17.6829 19.8361 17.649C19.8034 17.6152 19.7871 17.5732 19.7871 17.5231C19.7871 17.4577 19.8122 17.3988 19.8624 17.3464L20.6082 16.5451C20.6997 16.4449 20.7668 16.3527 20.8093 16.2687C20.8518 16.1848 20.8731 16.1014 20.8731 16.0185C20.8731 15.916 20.8436 15.8375 20.7848 15.783C20.726 15.7286 20.6419 15.7012 20.5329 15.7012C20.4435 15.7012 20.3568 15.7181 20.2729 15.7519C20.1889 15.7858 20.1044 15.8321 20.0194 15.891C19.9976 15.9063 19.9758 15.9188 19.954 15.9286C19.9322 15.9384 19.9104 15.9433 19.8886 15.9433C19.8515 15.9433 19.8193 15.9259 19.7921 15.891C19.7648 15.8561 19.7512 15.8147 19.7512 15.7667C19.7512 15.7339 19.7572 15.7057 19.7692 15.6816C19.7811 15.6576 19.8002 15.6347 19.8265 15.6129C19.9224 15.5366 20.0347 15.4761 20.1633 15.4314C20.2919 15.3867 20.4206 15.3643 20.5493 15.3643C20.7739 15.3643 20.9533 15.421 21.0874 15.5344C21.2215 15.6478 21.2885 15.8004 21.2885 15.9923C21.2885 16.1254 21.2601 16.2502 21.2036 16.3668C21.1468 16.4835 21.0509 16.6138 20.9158 16.7577L20.3499 17.3595H21.2134C21.3441 17.3595 21.4095 17.4151 21.4095 17.5264Z" fill="#CDE6F6"/>
<path d="M15.6696 21.231V22.1385C15.6696 22.2095 15.6547 22.2764 15.6266 22.3367C15.5515 22.5051 15.3822 22.6224 15.1857 22.6224H13.2666C13.0701 22.6224 12.9008 22.5051 12.8257 22.3367C12.7976 22.2764 12.7827 22.2095 12.7827 22.1385V21.231C12.7827 20.9643 12.999 20.7471 13.2666 20.7471H15.1857C15.4532 20.7471 15.6696 20.9643 15.6696 21.231Z" fill="#334353"/>
<path d="M15.6243 22.3356C15.5491 22.504 15.3799 22.6213 15.1834 22.6213H13.2643C13.0678 22.6213 12.8985 22.504 12.8234 22.3356C12.8985 22.168 13.0678 22.0508 13.2643 22.0508H15.1834C15.3799 22.0508 15.5491 22.168 15.6243 22.3356Z" fill="#2E3140"/>
<path d="M15.6717 21.231V21.7751H13.9699C13.7023 21.7751 13.486 21.5588 13.486 21.2912V20.7471H15.1878C15.4553 20.7471 15.6717 20.9643 15.6717 21.231Z" fill="#3E4E60"/>
<path d="M19.5181 21.231V22.1385C19.5181 22.2095 19.5033 22.2764 19.4751 22.3367C19.4 22.5051 19.2307 22.6224 19.0342 22.6224H17.1151C16.9186 22.6224 16.7494 22.5051 16.6742 22.3367C16.6461 22.2764 16.6312 22.2095 16.6312 22.1385V21.231C16.6312 20.9643 16.8476 20.7471 17.1151 20.7471H19.0342C19.3017 20.7471 19.5181 20.9643 19.5181 21.231Z" fill="#334353"/>
<path d="M19.4728 22.3356C19.3977 22.504 19.2284 22.6213 19.0319 22.6213H17.1128C16.9163 22.6213 16.747 22.504 16.6719 22.3356C16.747 22.168 16.9163 22.0508 17.1128 22.0508H19.0319C19.2284 22.0508 19.3977 22.168 19.4728 22.3356Z" fill="#2E3140"/>
<path d="M19.5203 21.231V21.7751H17.8184C17.5508 21.7751 17.3345 21.5588 17.3345 21.2912V20.7471H19.0363C19.3038 20.7471 19.5203 20.9643 19.5203 21.231Z" fill="#3E4E60"/>
<path d="M23.3722 21.231V22.1385C23.3722 22.2095 23.3574 22.2764 23.3293 22.3367C23.2541 22.5051 23.0848 22.6224 22.8883 22.6224H20.9693C20.7728 22.6224 20.6035 22.5051 20.5283 22.3367C20.5003 22.2764 20.4854 22.2095 20.4854 22.1385V21.231C20.4854 20.9643 20.7017 20.7471 20.9693 20.7471H22.8883C23.1558 20.7471 23.3722 20.9643 23.3722 21.231Z" fill="#334353"/>
<path d="M23.3269 22.3356C23.2518 22.504 23.0825 22.6213 22.886 22.6213H20.9669C20.7705 22.6213 20.6012 22.504 20.526 22.3356C20.6012 22.168 20.7705 22.0508 20.9669 22.0508H22.886C23.0826 22.0508 23.2518 22.168 23.3269 22.3356Z" fill="#2E3140"/>
<path d="M23.3743 21.231V21.7751H21.6724C21.4049 21.7751 21.1885 21.5588 21.1885 21.2912V20.7471H22.8904C23.1579 20.7471 23.3743 20.9643 23.3743 21.231Z" fill="#3E4E60"/>
<path d="M27.2207 21.231V22.1385C27.2207 22.2095 27.2059 22.2764 27.1778 22.3367C27.1026 22.5051 26.9333 22.6224 26.7368 22.6224H24.8178C24.6213 22.6224 24.452 22.5051 24.3768 22.3367C24.3488 22.2764 24.3339 22.2095 24.3339 22.1385V21.231C24.3339 20.9643 24.5502 20.7471 24.8178 20.7471H26.7368C27.0043 20.7471 27.2207 20.9643 27.2207 21.231Z" fill="#334353"/>
<path d="M27.1755 22.3356C27.1003 22.504 26.931 22.6213 26.7345 22.6213H24.8155C24.619 22.6213 24.4497 22.504 24.3745 22.3356C24.4497 22.168 24.619 22.0508 24.8155 22.0508H26.7345C26.931 22.0508 27.1003 22.168 27.1755 22.3356Z" fill="#2E3140"/>
<path d="M27.2229 21.231V21.7751H25.521C25.2534 21.7751 25.0371 21.5588 25.0371 21.2912V20.7471H26.739C27.0065 20.7471 27.2229 20.9643 27.2229 21.231Z" fill="#3E4E60"/>
<path d="M15.6696 23.9312V24.8387C15.6696 24.9097 15.6547 24.9766 15.6266 25.0369C15.5515 25.2053 15.3822 25.3226 15.1857 25.3226H13.2666C13.0701 25.3226 12.9008 25.2053 12.8257 25.0369C12.7976 24.9766 12.7827 24.9097 12.7827 24.8387V23.9312C12.7827 23.6645 12.999 23.4473 13.2666 23.4473H15.1857C15.4532 23.4473 15.6696 23.6645 15.6696 23.9312Z" fill="#334353"/>
<path d="M15.6243 25.0359C15.5491 25.2043 15.3799 25.3216 15.1834 25.3216H13.2643C13.0678 25.3216 12.8985 25.2043 12.8234 25.0359C12.8985 24.8682 13.0678 24.751 13.2643 24.751H15.1834C15.3799 24.7511 15.5491 24.8683 15.6243 25.0359Z" fill="#2E3140"/>
<path d="M15.6717 23.9312V24.4753H13.9699C13.7023 24.4753 13.486 24.259 13.486 23.9914V23.4473H15.1878C15.4553 23.4473 15.6717 23.6645 15.6717 23.9312Z" fill="#3E4E60"/>
<path d="M19.5181 23.9312V24.8387C19.5181 24.9097 19.5033 24.9766 19.4751 25.0369C19.4 25.2053 19.2307 25.3226 19.0342 25.3226H17.1151C16.9186 25.3226 16.7494 25.2053 16.6742 25.0369C16.6461 24.9766 16.6312 24.9097 16.6312 24.8387V23.9312C16.6312 23.6645 16.8476 23.4473 17.1151 23.4473H19.0342C19.3017 23.4473 19.5181 23.6645 19.5181 23.9312Z" fill="#334353"/>
<path d="M19.4728 25.0359C19.3977 25.2043 19.2284 25.3216 19.0319 25.3216H17.1128C16.9163 25.3216 16.747 25.2043 16.6719 25.0359C16.747 24.8682 16.9163 24.751 17.1128 24.751H19.0319C19.2284 24.7511 19.3977 24.8683 19.4728 25.0359Z" fill="#2E3140"/>
<path d="M19.5203 23.9312V24.4753H17.8184C17.5508 24.4753 17.3345 24.259 17.3345 23.9914V23.4473H19.0363C19.3038 23.4473 19.5203 23.6645 19.5203 23.9312Z" fill="#3E4E60"/>
<path d="M23.3722 23.9312V24.8387C23.3722 24.9097 23.3574 24.9766 23.3293 25.0369C23.2541 25.2053 23.0848 25.3226 22.8883 25.3226H20.9693C20.7728 25.3226 20.6035 25.2053 20.5283 25.0369C20.5003 24.9766 20.4854 24.9097 20.4854 24.8387V23.9312C20.4854 23.6645 20.7017 23.4473 20.9693 23.4473H22.8883C23.1558 23.4473 23.3722 23.6645 23.3722 23.9312Z" fill="#334353"/>
<path d="M23.3269 25.0359C23.2518 25.2043 23.0825 25.3216 22.886 25.3216H20.9669C20.7705 25.3216 20.6012 25.2043 20.526 25.0359C20.6012 24.8682 20.7705 24.751 20.9669 24.751H22.886C23.0826 24.7511 23.2518 24.8683 23.3269 25.0359Z" fill="#2E3140"/>
<path d="M23.3743 23.9312V24.4753H21.6724C21.4049 24.4753 21.1885 24.259 21.1885 23.9914V23.4473H22.8904C23.1579 23.4473 23.3743 23.6645 23.3743 23.9312Z" fill="#3E4E60"/>
<path d="M27.2207 23.9312V24.8387C27.2207 24.9097 27.2059 24.9766 27.1778 25.0369C27.1026 25.2053 26.9333 25.3226 26.7368 25.3226H24.8178C24.6213 25.3226 24.452 25.2053 24.3768 25.0369C24.3488 24.9766 24.3339 24.9097 24.3339 24.8387V23.9312C24.3339 23.6645 24.5502 23.4473 24.8178 23.4473H26.7368C27.0043 23.4473 27.2207 23.6645 27.2207 23.9312Z" fill="#334353"/>
<path d="M27.1755 25.0359C27.1003 25.2043 26.931 25.3216 26.7345 25.3216H24.8155C24.619 25.3216 24.4497 25.2043 24.3745 25.0359C24.4497 24.8682 24.619 24.751 24.8155 24.751H26.7345C26.931 24.7511 27.1003 24.8683 27.1755 25.0359Z" fill="#2E3140"/>
<path d="M27.2229 23.9312V24.4753H25.521C25.2534 24.4753 25.0371 24.259 25.0371 23.9914V23.4473H26.739C27.0065 23.4473 27.2229 23.6645 27.2229 23.9312Z" fill="#3E4E60"/>
<path d="M15.6696 26.6323V27.5398C15.6696 27.6109 15.6547 27.6777 15.6266 27.738C15.5515 27.9065 15.3822 28.0238 15.1857 28.0238H13.2666C13.0701 28.0238 12.9008 27.9065 12.8257 27.738C12.7976 27.6777 12.7827 27.6109 12.7827 27.5398V26.6323C12.7827 26.3656 12.999 26.1484 13.2666 26.1484H15.1857C15.4532 26.1484 15.6696 26.3656 15.6696 26.6323Z" fill="#334353"/>
<path d="M15.6243 27.737C15.5491 27.9054 15.3799 28.0227 15.1834 28.0227H13.2643C13.0678 28.0227 12.8985 27.9054 12.8234 27.737C12.8985 27.5693 13.0678 27.4521 13.2643 27.4521H15.1834C15.3799 27.4521 15.5491 27.5694 15.6243 27.737Z" fill="#2E3140"/>
<path d="M15.6717 26.6323V27.1765H13.9699C13.7023 27.1765 13.486 26.9601 13.486 26.6926V26.1484H15.1878C15.4553 26.1484 15.6717 26.3656 15.6717 26.6323Z" fill="#3E4E60"/>
<path d="M19.5181 26.6323V27.5398C19.5181 27.6109 19.5033 27.6777 19.4751 27.738C19.4 27.9065 19.2307 28.0238 19.0342 28.0238H17.1151C16.9186 28.0238 16.7494 27.9065 16.6742 27.738C16.6461 27.6777 16.6312 27.6109 16.6312 27.5398V26.6323C16.6312 26.3656 16.8476 26.1484 17.1151 26.1484H19.0342C19.3017 26.1484 19.5181 26.3656 19.5181 26.6323Z" fill="#334353"/>
<path d="M19.4728 27.737C19.3977 27.9054 19.2284 28.0227 19.0319 28.0227H17.1128C16.9163 28.0227 16.747 27.9054 16.6719 27.737C16.747 27.5693 16.9163 27.4521 17.1128 27.4521H19.0319C19.2284 27.4521 19.3977 27.5694 19.4728 27.737Z" fill="#2E3140"/>
<path d="M19.5203 26.6323V27.1765H17.8184C17.5508 27.1765 17.3345 26.9601 17.3345 26.6926V26.1484H19.0363C19.3038 26.1484 19.5203 26.3656 19.5203 26.6323Z" fill="#3E4E60"/>
<path d="M23.3722 26.6323V27.5398C23.3722 27.6109 23.3574 27.6777 23.3293 27.738C23.2541 27.9065 23.0848 28.0238 22.8883 28.0238H20.9693C20.7728 28.0238 20.6035 27.9065 20.5283 27.738C20.5003 27.6777 20.4854 27.6109 20.4854 27.5398V26.6323C20.4854 26.3656 20.7017 26.1484 20.9693 26.1484H22.8883C23.1558 26.1484 23.3722 26.3656 23.3722 26.6323Z" fill="#334353"/>
<path d="M23.3269 27.737C23.2518 27.9054 23.0825 28.0227 22.886 28.0227H20.9669C20.7705 28.0227 20.6012 27.9054 20.526 27.737C20.6012 27.5693 20.7705 27.4521 20.9669 27.4521H22.886C23.0826 27.4521 23.2518 27.5694 23.3269 27.737Z" fill="#2E3140"/>
<path d="M23.3743 26.6323V27.1765H21.6724C21.4049 27.1765 21.1885 26.9601 21.1885 26.6926V26.1484H22.8904C23.1579 26.1484 23.3743 26.3656 23.3743 26.6323Z" fill="#3E4E60"/>
<path d="M27.2207 26.6323V27.5398C27.2207 27.6109 27.2059 27.6777 27.1778 27.738C27.1026 27.9065 26.9333 28.0238 26.7368 28.0238H24.8178C24.6213 28.0238 24.452 27.9065 24.3768 27.738C24.3488 27.6777 24.3339 27.6109 24.3339 27.5398V26.6323C24.3339 26.3656 24.5502 26.1484 24.8178 26.1484H26.7368C27.0043 26.1484 27.2207 26.3656 27.2207 26.6323Z" fill="#334353"/>
<path d="M27.1755 27.737C27.1003 27.9054 26.931 28.0227 26.7345 28.0227H24.8155C24.619 28.0227 24.4497 27.9054 24.3745 27.737C24.4497 27.5693 24.619 27.4521 24.8155 27.4521H26.7345C26.931 27.4521 27.1003 27.5694 27.1755 27.737Z" fill="#2E3140"/>
<path d="M27.2229 26.6323V27.1765H25.521C25.2534 27.1765 25.0371 26.9601 25.0371 26.6926V26.1484H26.739C27.0065 26.1484 27.2229 26.3656 27.2229 26.6323Z" fill="#3E4E60"/>
<path d="M15.6696 29.3335V30.241C15.6696 30.312 15.6547 30.3789 15.6266 30.4392C15.5515 30.6077 15.3822 30.7249 15.1857 30.7249H13.2666C13.0701 30.7249 12.9008 30.6077 12.8257 30.4392C12.7976 30.3789 12.7827 30.312 12.7827 30.241V29.3335C12.7827 29.0668 12.999 28.8496 13.2666 28.8496H15.1857C15.4532 28.8497 15.6696 29.0669 15.6696 29.3335Z" fill="#334353"/>
<path d="M15.6243 30.4382C15.5491 30.6066 15.3799 30.7239 15.1834 30.7239H13.2643C13.0678 30.7239 12.8985 30.6066 12.8234 30.4382C12.8985 30.2705 13.0678 30.1533 13.2643 30.1533H15.1834C15.3799 30.1533 15.5491 30.2706 15.6243 30.4382Z" fill="#2E3140"/>
<path d="M15.6717 29.3335V29.8777H13.9699C13.7023 29.8777 13.486 29.6613 13.486 29.3938V28.8496H15.1878C15.4553 28.8497 15.6717 29.0669 15.6717 29.3335Z" fill="#3E4E60"/>
<path d="M19.5181 29.3335V30.241C19.5181 30.312 19.5033 30.3789 19.4751 30.4392C19.4 30.6077 19.2307 30.7249 19.0342 30.7249H17.1151C16.9186 30.7249 16.7494 30.6077 16.6742 30.4392C16.6461 30.3789 16.6312 30.312 16.6312 30.241V29.3335C16.6312 29.0668 16.8476 28.8496 17.1151 28.8496H19.0342C19.3017 28.8497 19.5181 29.0669 19.5181 29.3335Z" fill="#334353"/>
<path d="M19.4728 30.4382C19.3977 30.6066 19.2284 30.7239 19.0319 30.7239H17.1128C16.9163 30.7239 16.747 30.6066 16.6719 30.4382C16.747 30.2705 16.9163 30.1533 17.1128 30.1533H19.0319C19.2284 30.1533 19.3977 30.2706 19.4728 30.4382Z" fill="#2E3140"/>
<path d="M19.5203 29.3335V29.8777H17.8184C17.5508 29.8777 17.3345 29.6613 17.3345 29.3938V28.8496H19.0363C19.3038 28.8497 19.5203 29.0669 19.5203 29.3335Z" fill="#3E4E60"/>
<path d="M23.3722 29.3335V30.241C23.3722 30.312 23.3574 30.3789 23.3293 30.4392C23.2541 30.6077 23.0848 30.7249 22.8883 30.7249H20.9693C20.7728 30.7249 20.6035 30.6077 20.5283 30.4392C20.5003 30.3789 20.4854 30.312 20.4854 30.241V29.3335C20.4854 29.0668 20.7017 28.8496 20.9693 28.8496H22.8883C23.1558 28.8497 23.3722 29.0669 23.3722 29.3335Z" fill="#334353"/>
<path d="M23.3269 30.4382C23.2518 30.6066 23.0825 30.7239 22.886 30.7239H20.9669C20.7705 30.7239 20.6012 30.6066 20.526 30.4382C20.6012 30.2705 20.7705 30.1533 20.9669 30.1533H22.886C23.0826 30.1533 23.2518 30.2706 23.3269 30.4382Z" fill="#2E3140"/>
<path d="M23.3743 29.3335V29.8777H21.6724C21.4049 29.8777 21.1885 29.6613 21.1885 29.3938V28.8496H22.8904C23.1579 28.8497 23.3743 29.0669 23.3743 29.3335Z" fill="#3E4E60"/>
<path d="M27.2207 29.3335V30.241C27.2207 30.312 27.2059 30.3789 27.1778 30.4392C27.1026 30.6077 26.9333 30.7249 26.7368 30.7249H24.8178C24.6213 30.7249 24.452 30.6077 24.3768 30.4392C24.3488 30.3789 24.3339 30.312 24.3339 30.241V29.3335C24.3339 29.0668 24.5502 28.8496 24.8178 28.8496H26.7368C27.0043 28.8497 27.2207 29.0669 27.2207 29.3335Z" fill="#334353"/>
<path d="M27.1755 30.4382C27.1003 30.6066 26.931 30.7239 26.7345 30.7239H24.8155C24.619 30.7239 24.4497 30.6066 24.3745 30.4382C24.4497 30.2705 24.619 30.1533 24.8155 30.1533H26.7345C26.931 30.1533 27.1003 30.2706 27.1755 30.4382Z" fill="#2E3140"/>
<path d="M27.2229 29.3335V29.8777H25.521C25.2534 29.8777 25.0371 29.6613 25.0371 29.3938V28.8496H26.739C27.0065 28.8497 27.2229 29.0669 27.2229 29.3335Z" fill="#3E4E60"/>
<path d="M7.86964 15.5661C7.96073 15.6577 8.00721 15.7729 8.00721 15.9119C8.00721 16.0513 7.96073 16.1665 7.86964 16.2577C7.77854 16.3493 7.66323 16.3953 7.52385 16.3953H5.81112V18.0968C5.81112 18.2357 5.76557 18.3532 5.67354 18.4479C5.58245 18.5431 5.46714 18.5909 5.32776 18.5909C5.18925 18.5909 5.07401 18.5431 4.98198 18.4479C4.89089 18.3532 4.84526 18.2357 4.84526 18.0968V16.3953H3.13253C2.99315 16.3953 2.87792 16.3493 2.78675 16.2577C2.69472 16.1666 2.64917 16.0513 2.64917 15.9119C2.64917 15.773 2.69472 15.6577 2.78675 15.5661C2.87784 15.4746 2.99315 15.429 3.13253 15.429H4.84526V13.7163C4.84526 13.5774 4.89081 13.4621 4.98198 13.3705C5.07401 13.2789 5.18925 13.2334 5.32776 13.2334C5.46714 13.2334 5.58237 13.2789 5.67354 13.3705C5.76557 13.4621 5.81112 13.5773 5.81112 13.7163V15.429H7.52385C7.66323 15.4289 7.77846 15.4746 7.86964 15.5661Z" fill="#CDE6F6"/>
<path d="M23.6857 8.20074C23.5836 8.10942 23.5326 7.98285 23.5326 7.82113C23.5326 7.65988 23.5836 7.53121 23.6857 7.43637C23.7874 7.3416 23.9401 7.29395 24.1442 7.29395H28.6848C28.8885 7.29395 29.0417 7.34152 29.1433 7.43637C29.2454 7.53113 29.2964 7.6598 29.2964 7.82113C29.2964 7.98285 29.2454 8.10942 29.1433 8.20074C29.0417 8.29207 28.8885 8.33754 28.6848 8.33754H24.1442C23.9401 8.33762 23.7874 8.29215 23.6857 8.20074Z" fill="#CDE6F6"/>
<path d="M11.0972 7.18504C10.8122 6.8516 10.6697 6.3634 10.6697 5.72051C10.6697 5.08395 10.8122 4.59871 11.0972 4.2652C11.3822 3.93168 11.7793 3.7648 12.2886 3.7648C12.7982 3.7648 13.1969 3.93176 13.4848 4.2652C13.7727 4.59863 13.9167 5.08387 13.9167 5.72051C13.9167 6.3634 13.7727 6.8516 13.4848 7.18504C13.1968 7.51848 12.7982 7.68504 12.2886 7.68504C11.7793 7.68504 11.3822 7.51848 11.0972 7.18504ZM12.7934 6.66207C12.8997 6.47106 12.9526 6.15723 12.9526 5.72051C12.9526 5.29598 12.8982 4.98692 12.789 4.79262C12.6798 4.59871 12.5129 4.50168 12.2886 4.50168C12.0643 4.50168 11.8989 4.59715 11.793 4.78816C11.6868 4.97918 11.6339 5.29004 11.6339 5.72051C11.6339 6.15723 11.6868 6.47106 11.793 6.66207C11.8989 6.85309 12.0644 6.94856 12.2886 6.94856C12.5191 6.94856 12.6872 6.85301 12.7934 6.66207ZM13.0984 10.3595C13.0191 10.408 12.9403 10.4321 12.8619 10.4321C12.7526 10.4321 12.6572 10.3929 12.5751 10.314C12.4933 10.2352 12.4526 10.1353 12.4526 10.0139C12.4526 9.91059 12.4826 9.8077 12.5433 9.7045L15.8543 3.98332C15.9091 3.88637 15.9757 3.81348 16.0545 3.76496C16.133 3.71645 16.2122 3.69238 16.291 3.69238C16.4002 3.69238 16.4957 3.7316 16.5775 3.81043C16.6593 3.88926 16.7004 3.98918 16.7004 4.11059C16.7004 4.21387 16.6697 4.31676 16.6094 4.41996L13.2984 10.1411C13.2438 10.2381 13.1769 10.3106 13.0984 10.3595ZM15.6725 9.83168C15.3871 9.49825 15.2447 9.00707 15.2447 8.35825C15.2447 7.72168 15.3887 7.23793 15.6769 6.90739C15.9649 6.57684 16.3605 6.41184 16.8639 6.41184C17.3732 6.41184 17.7703 6.57879 18.0553 6.91184C18.3403 7.24567 18.4831 7.73051 18.4831 8.36746C18.4831 9.00996 18.3402 9.49817 18.0553 9.83161C17.7703 10.1654 17.3732 10.332 16.8639 10.332C16.3546 10.3321 15.9571 10.1655 15.6725 9.83168ZM17.3643 9.30871C17.4735 9.1177 17.5279 8.80387 17.5279 8.36754C17.5279 7.94301 17.4735 7.63364 17.3643 7.43965C17.2551 7.24567 17.0882 7.1484 16.8639 7.1484C16.6396 7.1484 16.4727 7.24574 16.3635 7.43965C16.2543 7.63356 16.1999 7.94301 16.1999 8.36754C16.1999 8.80387 16.2543 9.11778 16.3635 9.30871C16.4727 9.49973 16.6396 9.5952 16.8639 9.5952C17.0882 9.5952 17.2551 9.49973 17.3643 9.30871Z" fill="#CDE6F6"/>
<path d="M32.0214 20.5258C31.9232 20.5695 31.8207 20.5816 31.7149 20.562C31.5814 20.5372 31.471 20.4699 31.3842 20.3609C31.2975 20.2517 31.2676 20.127 31.2936 19.987C31.3047 19.9272 31.3256 19.8688 31.3571 19.8127L35.0271 12.9709C35.0905 12.8517 35.1705 12.7697 35.2687 12.726C35.3662 12.6822 35.4686 12.6701 35.5752 12.6899C35.7087 12.7146 35.8184 12.7813 35.9059 12.891C35.9918 12.9999 36.0227 13.1244 35.9966 13.2644C35.9855 13.3246 35.9646 13.3827 35.933 13.4392L32.2631 20.281C32.1996 20.4001 32.1188 20.4815 32.0214 20.5258Z" fill="#CDE6F6"/>
<path d="M35.6508 26.5236C35.727 26.6103 35.765 26.7161 35.765 26.8409C35.765 26.9657 35.727 27.0732 35.6508 27.1633C35.5738 27.2535 35.4671 27.2949 35.3284 27.2882L34.3095 27.2361L34.8706 28.0782C34.9188 28.1547 34.9434 28.2309 34.9434 28.3071C34.9434 28.4251 34.8935 28.5271 34.7928 28.6139C34.692 28.7006 34.5795 28.7438 34.4551 28.7438C34.2952 28.7438 34.1775 28.671 34.1013 28.5254L33.6435 27.6208L33.1857 28.5254C33.1028 28.6782 32.9852 28.7543 32.8328 28.7543C32.7076 28.7543 32.595 28.7112 32.4943 28.6244C32.3936 28.5377 32.3437 28.4353 32.3437 28.3176C32.3437 28.2343 32.3682 28.1581 32.4165 28.0887L32.9784 27.2361L31.9586 27.2882C31.8199 27.295 31.7132 27.2552 31.6371 27.1684C31.56 27.0817 31.522 26.9759 31.522 26.8511C31.522 26.7267 31.56 26.6192 31.6371 26.529C31.7132 26.4389 31.8199 26.3975 31.9586 26.4042L32.9784 26.4562L32.4165 25.6138C32.3683 25.5444 32.3437 25.4682 32.3437 25.3849C32.3437 25.2672 32.3936 25.1665 32.4943 25.0836C32.595 25.0003 32.7076 24.9588 32.8328 24.9588C32.9919 24.9588 33.1095 25.0316 33.1857 25.1771L33.6435 26.0818L34.1013 25.1771C34.1775 25.0248 34.2985 24.9482 34.4653 24.9482C34.5829 24.9482 34.692 24.9918 34.7928 25.0782C34.8935 25.1649 34.9434 25.2673 34.9434 25.385C34.9434 25.4683 34.9188 25.5445 34.8706 25.6139L34.3095 26.4563L35.3284 26.4043C35.4671 26.3975 35.5738 26.4372 35.6508 26.5236Z" fill="#CDE6F6"/>
<path d="M4.53784 26.1569C4.53784 25.0163 4.81409 23.9677 5.36628 23.0113C5.42776 22.9142 5.498 22.8414 5.57729 22.7928C5.65659 22.7441 5.73714 22.7197 5.81894 22.7197C5.90604 22.7197 5.97878 22.7466 6.03776 22.8006C6.09644 22.8543 6.12581 22.927 6.12581 23.0191C6.12581 23.0909 6.113 23.1546 6.08776 23.2107C5.70909 24.1416 5.51995 25.1236 5.51995 26.1569C5.51995 26.6736 5.56581 27.1708 5.65792 27.649C5.75003 28.1272 5.89331 28.6065 6.08776 29.0875C6.11308 29.1436 6.12581 29.2073 6.12581 29.2791C6.12581 29.3712 6.09644 29.444 6.03776 29.4976C5.97878 29.5513 5.90604 29.5782 5.81894 29.5782C5.73714 29.5782 5.65534 29.5554 5.57354 29.5092C5.49175 29.4633 5.42245 29.3915 5.36628 29.2944C4.81409 28.328 4.53784 27.2819 4.53784 26.1569Z" fill="#CDE6F6"/>
<path d="M7.66391 29.5092C7.58211 29.5554 7.5 29.5782 7.4182 29.5782C7.33141 29.5782 7.25836 29.5513 7.19969 29.4976C7.1407 29.444 7.11133 29.3712 7.11133 29.2791C7.11133 29.2073 7.12414 29.1436 7.14969 29.0875C7.34414 28.6065 7.48742 28.1272 7.57922 27.649C7.67133 27.1708 7.7175 26.6736 7.7175 26.1569C7.7175 25.1236 7.52836 24.1416 7.14969 23.2107C7.12406 23.1546 7.11133 23.0909 7.11133 23.0191C7.11133 22.927 7.1407 22.8543 7.19969 22.8006C7.25836 22.7466 7.33141 22.7197 7.4182 22.7197C7.5 22.7197 7.58055 22.7441 7.66016 22.7928C7.73914 22.8414 7.80969 22.9142 7.87086 23.0113C8.42336 23.9678 8.69961 25.0163 8.69961 26.1569C8.69961 27.2819 8.42336 28.328 7.87086 29.2944C7.81469 29.3915 7.7457 29.4633 7.66391 29.5092Z" fill="#CDE6F6"/>
</svg>
