<svg width="40" height="40" viewBox="0 0 40 40" fill="none" xmlns="http://www.w3.org/2000/svg">
<g clip-path="url(#clip0)">
<path d="M39.9999 20C39.9999 31.0453 31.0453 40 19.9999 40C14.4851 40 9.49056 37.7672 5.87259 34.157C5.60306 33.8875 5.34135 33.6117 5.08744 33.3273C4.45697 32.6227 3.87572 31.8727 3.34916 31.0828C1.23353 27.9102 -6.10352e-05 24.0992 -6.10352e-05 20C-6.10352e-05 8.95469 8.95463 0 19.9999 0C31.0453 0 39.9999 8.95469 39.9999 20Z" fill="#6C53A2"/>
<path d="M26.8446 15.1895H5.80127V26.4722L7.33822 28.0082H25.3076L26.8446 26.4722V15.1895Z" fill="#57409B"/>
<path d="M8.87506 18.5653V26.4717C8.8803 27.2999 8.19467 28.0111 7.33811 28.0077C6.48991 28.0077 5.80116 27.3199 5.80116 26.4717V18.5653C5.79811 17.7098 6.50803 17.0237 7.33811 17.0283C8.18702 17.0282 8.8753 17.7164 8.87506 18.5653Z" fill="#A583BB"/>
<path d="M8.87157 18.5665V26.473C8.87157 26.6607 8.83758 26.84 8.77625 27.006C7.79001 27.4541 6.60868 26.6866 6.62704 25.5964V17.69C6.62704 17.5032 6.66103 17.3229 6.72235 17.1569C7.71907 16.7118 8.88227 17.4704 8.87157 18.5665Z" fill="#C2AACF"/>
<path d="M8.87737 18.5663V24.3319C7.88182 24.8697 6.6169 24.1059 6.63284 22.9686V17.202C7.63628 16.6682 8.88885 17.4249 8.87737 18.5663Z" fill="#EBD9EA"/>
<path d="M8.23757 23.0075C7.88694 23.0075 7.60272 22.7233 7.60272 22.3727V19.4747C7.60272 19.1241 7.88694 18.8398 8.23757 18.8398C8.58819 18.8398 8.87241 19.1241 8.87241 19.4747V22.3727C8.87241 22.7233 8.58811 23.0075 8.23757 23.0075Z" fill="white"/>
<path d="M26.8443 18.5653V26.4717C26.8496 27.2999 26.164 28.0111 25.3074 28.0077C24.4592 28.0077 23.7705 27.3199 23.7705 26.4717V18.5653C23.7674 17.7098 24.4773 17.0237 25.3074 17.0283C26.1563 17.0282 26.8445 17.7164 26.8443 18.5653Z" fill="#A583BB"/>
<path d="M26.8409 18.5665V26.473C26.8409 26.6607 26.8069 26.84 26.7456 27.006C25.7593 27.4541 24.578 26.6866 24.5963 25.5964V17.69C24.5963 17.5032 24.6303 17.3229 24.6917 17.1569C25.6884 16.7118 26.8516 17.4704 26.8409 18.5665Z" fill="#C2AACF"/>
<path d="M26.8467 18.5663V24.3319C25.8511 24.8697 24.5862 24.1059 24.6021 22.9686V17.202C25.6056 16.6682 26.8582 17.4249 26.8467 18.5663Z" fill="#EBD9EA"/>
<path d="M26.2097 23.0075C25.859 23.0075 25.5748 22.7233 25.5748 22.3727V19.4747C25.5748 19.1241 25.859 18.8398 26.2097 18.8398C26.5603 18.8398 26.8445 19.1241 26.8445 19.4747V22.3727C26.8446 22.7233 26.5603 23.0075 26.2097 23.0075Z" fill="white"/>
<path d="M14.8675 18.5653V26.4717C14.8727 27.2999 14.1871 28.0111 13.3305 28.0077C12.4823 28.0077 11.7936 27.3199 11.7936 26.4717V18.5653C11.7905 17.7098 12.5005 17.0237 13.3305 17.0283C14.1795 17.0282 14.8677 17.7164 14.8675 18.5653Z" fill="#A583BB"/>
<path d="M14.864 18.5665V26.473C14.864 26.6607 14.83 26.84 14.7687 27.006C13.7824 27.4541 12.6011 26.6866 12.6195 25.5964V17.69C12.6195 17.5032 12.6535 17.3229 12.7148 17.1569C13.7115 16.7118 14.8748 17.4704 14.864 18.5665Z" fill="#C2AACF"/>
<path d="M14.8698 18.5663V24.3319C13.8743 24.8697 12.6093 24.1059 12.6253 22.9686V17.202C13.6287 16.6682 14.8813 17.4249 14.8698 18.5663Z" fill="#EBD9EA"/>
<path d="M14.23 23.0075C13.8794 23.0075 13.5952 22.7233 13.5952 22.3727V19.4747C13.5952 19.1241 13.8794 18.8398 14.23 18.8398C14.5806 18.8398 14.8649 19.1241 14.8649 19.4747V22.3727C14.8649 22.7233 14.5806 23.0075 14.23 23.0075Z" fill="white"/>
<path d="M20.8543 18.5653V26.4717C20.8595 27.2999 20.1739 28.0111 19.3173 28.0077C18.4691 28.0077 17.7803 27.3199 17.7803 26.4717V18.5653C17.7773 17.7098 18.4872 17.0237 19.3173 17.0283C20.1663 17.0282 20.8545 17.7164 20.8543 18.5653Z" fill="#A583BB"/>
<path d="M20.8508 18.5665V26.473C20.8508 26.6607 20.8168 26.84 20.7555 27.006C19.7692 27.4541 18.5879 26.6866 18.6062 25.5964V17.69C18.6062 17.5032 18.6402 17.3229 18.7015 17.1569C19.6983 16.7118 20.8616 17.4704 20.8508 18.5665Z" fill="#C2AACF"/>
<path d="M20.8566 18.5663V24.3319C19.861 24.8697 18.5961 24.1059 18.612 22.9686V17.202C19.6155 16.6682 20.868 17.4249 20.8566 18.5663Z" fill="#EBD9EA"/>
<path d="M20.2167 23.0075C19.8661 23.0075 19.5819 22.7233 19.5819 22.3727V19.4747C19.5819 19.1241 19.8661 18.8398 20.2167 18.8398C20.5674 18.8398 20.8516 19.1241 20.8516 19.4747V22.3727C20.8516 22.7233 20.5674 23.0075 20.2167 23.0075Z" fill="white"/>
<path d="M27.2006 28.0098H5.45634C5.2686 28.0098 5.08931 28.0438 4.92329 28.1052C3.34618 28.7101 3.73056 31.0526 5.45642 31.0837H27.2006C27.7941 31.0837 28.3092 30.7469 28.5649 30.2544C29.0976 29.2508 28.3434 27.9987 27.2006 28.0098Z" fill="#A583BB"/>
<path d="M27.1984 28.0098H5.45416C5.26643 28.0098 5.08713 28.0438 4.92111 28.1052C4.47377 29.0916 5.23979 30.2726 6.33072 30.2544H28.0749C28.2617 30.2544 28.442 30.2204 28.608 30.1591C29.0531 29.1624 28.2946 27.9991 27.1984 28.0098Z" fill="#C2AACF"/>
<path d="M27.2025 28.0098H10.7442C10.2047 28.9983 10.9746 30.2758 12.1075 30.2544H28.5668C29.1006 29.2509 28.3439 27.9984 27.2025 28.0098Z" fill="#EBD9EA"/>
<path d="M15.8425 28.6446C15.8425 28.9952 16.1267 29.2795 16.4774 29.2795H26.2941C26.6447 29.2795 26.9289 28.9952 26.9289 28.6446C26.9289 28.294 26.6447 28.0098 26.2941 28.0098H16.4774C16.1267 28.0098 15.8425 28.294 15.8425 28.6446Z" fill="white"/>
<path d="M32.5074 32.6227C32.5119 33.4528 31.8268 34.1629 30.9707 34.1602H5.87067C4.93067 33.2213 4.08567 32.1938 3.34723 31.0859H30.9707C31.8199 31.0859 32.5079 31.774 32.5074 32.6227Z" fill="#A583BB"/>
<path d="M32.5074 32.6227C32.5074 32.8399 32.4621 33.0477 32.38 33.2352C32.2144 33.2969 32.0339 33.3305 31.8472 33.3305H5.08551C4.45504 32.6258 3.87379 31.8758 3.34723 31.0859H30.9707C31.8199 31.0859 32.5079 31.774 32.5074 32.6227Z" fill="#C2AACF"/>
<path d="M30.9693 31.085H10.737C10.1976 32.0735 10.9673 33.351 12.1004 33.3296H32.3336C32.8675 32.3261 32.1107 31.0736 30.9693 31.085Z" fill="#EBD9EA"/>
<path d="M15.8354 31.7198C15.8354 32.0704 16.1196 32.3546 16.4702 32.3546H30.0609C30.4115 32.3546 30.6957 32.0704 30.6957 31.7198C30.6957 31.3692 30.4115 31.085 30.0609 31.085H16.4702C16.1196 31.085 15.8354 31.3692 15.8354 31.7198Z" fill="white"/>
<path d="M26.0338 15.9992H6.60701C5.9167 15.9992 5.59482 15.2308 5.93615 14.7377C5.99795 14.6478 6.08139 14.5675 6.18865 14.5025L15.9021 8.60926C16.159 8.45316 16.4819 8.45316 16.7387 8.60926L17.3662 8.99074C18.8655 9.90028 25.0753 13.6675 26.4522 14.5025C27.1224 14.8838 26.8795 16.0008 26.0338 15.9992Z" fill="#C2AACF"/>
<path d="M24.399 13.2563L26.4538 14.5025C26.561 14.5675 26.6445 14.6478 26.7063 14.7377C26.5697 14.9447 26.3378 15.0921 26.0354 15.0921H6.6086C6.30626 15.0921 6.07431 14.9447 5.93774 14.7377C5.99954 14.6478 6.08298 14.5675 6.19024 14.5025L15.9037 8.60926C16.1606 8.45316 16.4834 8.45316 16.7403 8.60926C16.7784 8.61465 24.1343 13.1094 24.399 13.2563Z" fill="#EBD9EA"/>
<path d="M17.8561 12.8747C17.8561 12.0259 17.1681 11.3379 16.3193 11.3379C14.2808 11.4188 14.2814 14.3309 16.3193 14.4115C17.1681 14.4115 17.8561 13.7234 17.8561 12.8747Z" fill="#57409B"/>
<path d="M24.402 13.2558C24.7017 13.8795 23.9986 14.5237 23.4007 14.1628L17.0295 10.2961C16.4331 9.93281 16.679 9.01133 17.3709 8.99023L24.402 13.2558Z" fill="white"/>
<path d="M28.1731 13.0918L29.3794 11.8855L31.6658 14.172L30.4595 15.3782L28.1731 13.0918Z" fill="#C1B7D3"/>
<path d="M29.3817 11.8838L31.6685 14.1706C31.4187 14.4204 31.0136 14.4207 30.7635 14.1706L29.3817 12.7888C29.132 12.5391 29.132 12.1336 29.3817 11.8838Z" fill="#EBD9EA"/>
<path d="M30.4619 15.3772L28.6158 13.5312C28.8175 13.3296 29.1445 13.3293 29.3464 13.5312L30.4618 14.6466C30.6635 14.8482 30.6635 15.1757 30.4619 15.3772Z" fill="#9F90AE"/>
<path d="M29.3817 11.8838L30.9272 13.4293C30.6774 13.679 30.2723 13.6793 30.0222 13.4293L29.3817 12.7888C29.132 12.5391 29.132 12.1336 29.3817 11.8838Z" fill="white"/>
<path d="M33.0207 14.3958L37.4573 18.8324C38.1032 19.4783 38.1032 20.5257 37.4573 21.1717C36.8128 21.8163 35.7655 21.8186 35.1181 21.1717L30.6815 16.735C30.3424 16.396 30.1816 15.9467 30.1986 15.5025C30.2104 14.6471 30.9869 13.892 31.8511 13.9115C32.2747 13.9114 32.6976 14.0727 33.0207 14.3958Z" fill="#22BCE0"/>
<path d="M31.4304 15.9866L35.8671 20.4232C36.2057 20.7619 36.3673 21.2111 36.3507 21.655C35.9068 21.6724 35.4572 21.5112 35.1182 21.1721L30.6815 16.7355C30.3424 16.3964 30.1816 15.9472 30.1986 15.503C30.6457 15.4873 31.0907 15.6477 31.4304 15.9866Z" fill="#22A8B9"/>
<path d="M33.0211 14.3964L37.4249 18.8002C36.7764 19.3011 35.8411 19.2542 35.2461 18.6593L30.8428 14.2559C31.4964 13.7518 32.4299 13.8049 33.0211 14.3964Z" fill="#4FCAE8"/>
<path d="M31.849 13.9111C32.2726 13.9111 32.6955 14.0723 33.0186 14.3954L35.3108 16.6876C34.6623 17.1885 33.727 17.1416 33.132 16.5467L30.8401 14.2548C31.1366 14.0257 31.493 13.9115 31.849 13.9111Z" fill="#83D5EF"/>
<path d="M25.6649 4.16504C22.7882 4.16504 20.4559 6.49738 20.4559 9.37465C20.7301 16.2847 30.6015 16.2822 30.8745 9.37457C30.8745 6.49746 28.5422 4.16504 25.6649 4.16504ZM25.6649 13.0544C23.6331 13.0544 21.9857 11.407 21.9857 9.37465C22.1796 4.49332 29.1517 4.4952 29.3447 9.37465C29.3447 11.407 27.6973 13.0544 25.6649 13.0544Z" fill="#F39E22"/>
<path d="M25.6623 4.97266C23.2313 4.97266 21.2603 6.94312 21.2603 9.37461C21.4923 15.214 29.8338 15.2118 30.0648 9.37461C30.0648 6.94312 28.0938 4.97266 25.6623 4.97266ZM25.6623 13.0544C23.6305 13.0544 21.983 11.407 21.983 9.37461C22.177 4.49328 29.149 4.49516 29.342 9.37461C29.342 11.407 27.6946 13.0544 25.6623 13.0544Z" fill="#DD8C29"/>
<path d="M28.1726 9.80754C27.9327 9.80754 27.7381 9.61301 27.7381 9.37309C27.7381 8.23191 26.8097 7.30348 25.6685 7.30348C25.4286 7.30348 25.2341 7.10894 25.2341 6.86902C25.2341 6.6291 25.4286 6.43457 25.6685 6.43457C27.2888 6.43457 28.6071 7.75285 28.6071 9.37316C28.607 9.61309 28.4126 9.80754 28.1726 9.80754Z" fill="white"/>
<path d="M25.6662 12.3135C24.0458 12.3135 22.7276 10.9952 22.7276 9.37488C22.7276 9.13496 22.9221 8.94043 23.1621 8.94043C23.402 8.94043 23.5965 9.13496 23.5965 9.37488C23.5965 10.5161 24.525 11.4445 25.6662 11.4445C26.2395 11.4615 26.2411 12.2958 25.6662 12.3135Z" fill="#C2AACF"/>
</g>
<defs>
<clipPath id="clip0">
<rect width="40" height="40" fill="white"/>
</clipPath>
</defs>
</svg>
