<svg width="40" height="40" viewBox="0 0 40 40" fill="none" xmlns="http://www.w3.org/2000/svg">
<path d="M19.9999 40C31.0456 40 39.9999 31.0457 39.9999 20C39.9999 8.9543 31.0456 0 19.9999 0C8.95424 0 -6.10352e-05 8.9543 -6.10352e-05 20C-6.10352e-05 31.0457 8.95424 40 19.9999 40Z" fill="#F39E22"/>
<path d="M27.8831 24.9504L27.0529 24.1202C26.8685 23.9358 26.7765 23.6947 26.7765 23.4532C26.7707 22.6232 27.7977 22.1912 28.3874 22.7858L29.2175 23.6158C30.0671 24.536 28.8052 25.8001 27.8831 24.9504Z" fill="#A26D5A"/>
<path d="M28.5991 24.7045L27.7685 23.8739C27.3896 23.4972 27.4026 22.8732 27.7973 22.5127C28.0116 22.5306 28.2205 22.6214 28.3847 22.7857L29.2149 23.6158C29.5974 23.996 29.5774 24.6235 29.1869 24.9771C28.9722 24.9596 28.7629 24.8683 28.5991 24.7045Z" fill="#C17E62"/>
<path d="M28.7434 24.3183C28.42 23.9948 28.42 23.4699 28.7434 23.1465L29.2136 23.6167C29.4667 23.8698 29.5459 24.2309 29.452 24.5516C29.2012 24.5889 28.9364 24.5112 28.7434 24.3183Z" fill="#EEA47D"/>
<path d="M27.1744 9.08566C28.9292 10.8256 29.9746 13.2496 30.0332 15.7197C30.2678 21.4282 25.2198 26.2282 19.5597 25.7512C15.0534 25.4979 11.1028 21.7881 10.5724 17.3096C9.75924 11.4466 14.4153 6.12527 20.3984 6.22301C22.9201 6.24941 25.3965 7.29261 27.1744 9.08566Z" fill="#22A8B9"/>
<path d="M27.1749 9.08644C28.5812 10.4863 29.5432 12.3218 29.8856 14.2765C29.8999 14.3521 29.9207 14.4292 29.8961 14.5046C29.867 14.667 29.8374 14.8318 29.7995 14.9914C29.6819 15.5282 29.5124 16.0526 29.3067 16.5614C27.8336 20.196 24.1849 22.6473 20.2607 22.622C16.3945 22.6441 12.7965 20.2716 11.281 16.7171L11.2816 16.7166C11.2071 16.5481 11.141 16.3746 11.0772 16.2017C10.9898 15.9626 10.9122 15.7198 10.8435 15.4742C10.8441 15.4736 10.8435 15.4731 10.8441 15.4725C10.7475 15.1273 10.6684 14.7776 10.6121 14.424C10.9292 12.4696 11.8407 10.5935 13.3477 9.08644C14.5106 7.92026 15.9722 7.05362 17.5567 6.60331C20.9165 5.61394 24.7149 6.58542 27.1749 9.08644Z" fill="#CDE6F6"/>
<path d="M13.3519 11.2221C12.1181 12.4559 11.2836 13.9374 10.8473 15.5064C13.6056 24.9963 26.9285 24.9911 29.6835 15.5064C27.7825 8.39267 18.5397 5.92665 13.3519 11.2221Z" fill="#4FCAE8"/>
<path d="M23.9595 6.94633V9.05V10.9382C23.9595 12.0497 23.2878 13.0043 22.3277 13.4186C22.4813 13.4959 22.6254 13.5992 22.7536 13.7274L23.8778 14.8516C23.8882 14.8622 23.8978 14.8737 23.9088 14.8826L26.2096 17.1834C26.7328 17.7066 26.7328 18.5551 26.2096 19.0783L25.3075 19.9804C24.7844 20.5035 23.9359 20.5035 23.4127 19.9804L22.262 18.8297L21.0102 20.0815C20.3577 20.7339 19.3004 20.7339 18.648 20.0815L17.5238 18.9573C16.8713 18.3048 16.8713 17.2475 17.5238 16.5951L20.3914 13.7274C20.4229 13.6959 20.4555 13.6666 20.4881 13.6384H18.6883C17.1978 13.6384 15.9886 12.4291 15.988 10.9382C15.9873 10.0304 15.9886 8.1211 15.988 7.20383C18.4509 5.99399 21.4232 5.9018 23.9595 6.94633Z" fill="#50755C"/>
<path d="M13.5961 17.8642L18.2321 22.5002C19.0861 23.3542 19.248 24.6375 18.7188 25.6551C14.6177 25.0994 11.0309 21.418 10.5788 17.3118C11.5859 16.8596 12.7822 17.0538 13.5961 17.8642Z" fill="#50755C"/>
<path d="M29.2837 12.2227C29.9069 13.708 30.1508 15.3487 29.9946 16.9509C29.7156 17.0619 29.4063 17.0752 29.1202 16.9901L29.1196 16.9906C28.9124 16.9293 28.7169 16.8166 28.5528 16.6525L27.6507 15.7504C27.1276 15.2273 27.1276 14.3788 27.6507 13.8555L29.2837 12.2227Z" fill="#50755C"/>
<path d="M11.4447 17.0821C11.3281 16.8407 11.2226 16.5948 11.1281 16.3457C11.2237 16.5948 11.3292 16.8407 11.4458 17.0821C12.212 17.0163 13.0008 17.276 13.5875 17.8627L18.108 22.3832C15.3255 21.8006 12.6828 19.7347 11.4447 17.0821Z" fill="#528F66"/>
<path d="M11.0042 15.976C10.9748 15.8889 10.9465 15.8015 10.9197 15.7139C10.9465 15.8016 10.9748 15.8889 11.0042 15.976Z" fill="#53B976"/>
<path d="M10.9142 15.713C10.905 15.6831 10.8963 15.653 10.8875 15.623C10.8963 15.653 10.905 15.6831 10.9142 15.713Z" fill="#53B976"/>
<path d="M11.0308 16.0573C11.0215 16.0304 11.0123 16.0035 11.0032 15.9766C11.0122 16.0034 11.0215 16.0304 11.0308 16.0573Z" fill="#53B976"/>
<path d="M10.8473 15.4745C10.8474 15.4739 10.8477 15.4733 10.8478 15.4727C10.8619 15.5232 10.8759 15.5738 10.8908 15.6242C10.8761 15.5744 10.8612 15.5245 10.8473 15.4745Z" fill="#53B976"/>
<path d="M11.1318 16.3448C11.0951 16.2489 11.0605 16.1525 11.027 16.0557C11.0606 16.1524 11.0951 16.2489 11.1318 16.3448Z" fill="#53B976"/>
<path d="M28.9547 17.3311C29.0127 17.219 29.0686 17.1046 29.1222 16.9902C29.0691 17.1052 29.0133 17.2184 28.9547 17.3311Z" fill="#53B976"/>
<path d="M29.2839 12.2217C29.5781 12.925 29.7895 13.6629 29.912 14.4154C29.8559 14.7715 29.7771 15.1229 29.6805 15.4711C29.681 15.4716 29.6805 15.4722 29.681 15.4727C29.5777 15.846 29.4495 16.2131 29.3038 16.5715C29.3017 16.5747 29.2998 16.5786 29.2988 16.5819C29.2428 16.7191 29.1831 16.8558 29.1198 16.9896C28.9126 16.9283 28.7171 16.8156 28.553 16.6515L27.6509 15.7493C27.1278 15.2262 27.1278 14.3777 27.6509 13.8545L29.2839 12.2217Z" fill="#53B976"/>
<path d="M23.9595 6.94633V9.05V10.9382C23.9595 12.0497 23.2878 13.0043 22.3277 13.4186C22.4813 13.4959 22.6254 13.5992 22.7536 13.7274L23.8778 14.8516C23.8882 14.8622 23.8978 14.8737 23.9088 14.8826L26.2096 17.1834C26.7328 17.7066 26.7328 18.5551 26.2096 19.0783L25.3075 19.9804C24.7844 20.5035 23.9359 20.5035 23.4127 19.9804L22.262 18.8297L21.0102 20.0815C20.3577 20.7339 19.3004 20.7339 18.648 20.0815L17.5238 18.9573C16.8713 18.3048 16.8713 17.2475 17.5238 16.5951L20.3914 13.7274C20.4229 13.6959 20.4555 13.6666 20.4881 13.6384H18.6883C17.1978 13.6384 15.9886 12.4291 15.988 10.9382C15.9873 10.0304 15.9886 8.1211 15.988 7.20383C18.4509 5.99399 21.4232 5.9018 23.9595 6.94633Z" fill="#53B976"/>
<path d="M23.9588 10.939C23.9588 12.0505 23.2871 13.0051 22.3269 13.4194C22.4805 13.4967 22.6247 13.6 22.7529 13.7282L23.8771 14.8524C23.8875 14.863 23.8971 14.8745 23.908 14.8834L26.2089 17.1842C26.732 17.7073 26.732 18.5559 26.2089 19.0791L25.3068 19.9812C24.7837 20.5043 23.9351 20.5043 23.4119 19.9812L22.2612 18.8305L21.0094 20.0823C20.357 20.7347 19.2997 20.7347 18.6472 20.0823L17.523 18.958C16.8706 18.3056 16.8706 17.2483 17.523 16.5959L20.3907 13.7282C20.4222 13.6967 20.4547 13.6674 20.4873 13.6392H18.6875C17.1971 13.6392 15.9879 12.4299 15.9873 10.939V9.30821C18.4882 8.09235 21.4 8.00673 23.9589 9.05079L23.9588 10.939Z" fill="#528F66"/>
<path d="M28.5677 12.9404C29.0644 13.7387 29.4361 14.5933 29.6808 15.4755C29.5368 15.9931 29.35 16.5022 29.1196 16.9925C28.9124 16.9311 28.7169 16.8185 28.5528 16.6543L27.6507 15.7522C27.1276 15.2291 27.1276 14.3806 27.6507 13.8574L28.5677 12.9404Z" fill="#528F66"/>
<path d="M11.3086 8.38393L12.1387 9.21408C12.3232 9.39854 12.5643 9.49057 12.8058 9.49057C13.6358 9.49635 14.0677 8.46932 13.4732 7.87963L12.6431 7.04955C11.723 6.19994 10.4589 7.46182 11.3086 8.38393Z" fill="#A26D5A"/>
<path d="M11.5524 7.66638L12.383 8.49692C12.7598 8.87583 13.3837 8.86286 13.7442 8.46817C13.7263 8.25388 13.6355 8.04497 13.4713 7.88075L12.6411 7.0506C12.2609 6.6681 11.6334 6.68802 11.2798 7.07857C11.2973 7.29326 11.3886 7.50255 11.5524 7.66638Z" fill="#C17E62"/>
<path d="M11.941 7.5203C12.2644 7.84373 12.7893 7.84373 13.1128 7.5203L12.6426 7.05006C12.3895 6.79694 12.0284 6.71772 11.7077 6.81162C11.6704 7.06256 11.748 7.32733 11.941 7.5203Z" fill="#EEA47D"/>
<path d="M10.0995 26.1644C15.9 31.9648 25.3382 31.9643 31.1387 26.1638C31.6055 25.702 31.3094 24.8883 30.6592 24.8336C30.4355 24.8131 30.2051 24.8877 30.0339 25.059C24.8172 30.3109 16.2543 30.1716 11.2044 25.0595C5.9503 19.8572 6.09999 11.2574 11.2044 6.22951C11.3756 6.05826 11.4502 5.82787 11.4298 5.60419C11.3788 4.96201 10.5616 4.65263 10.0995 5.12466C4.29905 10.9251 4.2985 20.3633 10.0995 26.1644Z" fill="#A26D5A"/>
<path d="M10.7995 25.4592C16.0154 30.7654 25.0138 30.9425 30.4289 25.4586C30.6001 25.2874 30.6747 25.057 30.6543 24.8333C30.4305 24.8128 30.2002 24.8874 30.029 25.0586C24.8122 30.3106 16.2494 30.1712 11.1995 25.0592C6.9331 20.7929 6.17295 14.3283 8.9185 9.27803C9.51404 8.18311 10.2741 7.15451 11.1994 6.2292C11.3707 6.05795 11.4453 5.82756 11.4248 5.60389C11.2011 5.58342 10.9708 5.65803 10.7995 5.82928C9.63943 6.98936 8.72795 8.30522 8.06553 9.71115C5.57928 14.9083 6.66107 21.3785 10.7995 25.4592Z" fill="#C17E62"/>
<path d="M27.1534 35.1652C27.1583 35.9263 26.5269 36.5823 25.7401 36.5785H14.78C14.3902 36.5785 14.0362 36.4207 13.7808 36.1645C12.8988 35.2936 13.5223 33.7483 14.78 33.752H25.7401C26.521 33.7516 27.1529 34.385 27.1534 35.1652Z" fill="#A26D5A"/>
<path d="M27.1557 35.1652C27.1557 35.3191 27.1307 35.4668 27.0854 35.6059H17.1159C16.1678 35.6186 15.4666 34.6461 15.7729 33.752H25.7425C26.5233 33.7516 27.1552 34.385 27.1557 35.1652Z" fill="#C17E62"/>
<path d="M25.1345 34.9238H23.1854C22.8618 34.9238 22.5994 34.6615 22.5994 34.3379C22.5994 34.0143 22.8618 33.752 23.1854 33.752H25.1345C25.9097 33.7784 25.9104 34.897 25.1345 34.9238Z" fill="#EEA47D"/>
<path d="M21.6237 29.7793V33.4832C21.6282 34.2173 21.021 34.8481 20.2628 34.8449C19.5104 34.8449 18.9011 34.2348 18.9011 33.4832V29.7793H21.6237Z" fill="#A26D5A"/>
<path d="M21.6224 31.5518V33.483C21.6224 33.6541 21.5893 33.8249 21.5294 33.9775C20.6955 34.1663 19.8674 33.5048 19.8778 32.6463V31.5518H21.6224Z" fill="#C17E62"/>
<path d="M21.6217 32.0299V33.4815C21.6217 33.4963 21.6216 33.512 21.6209 33.5268C21.1147 33.727 20.5299 33.326 20.5412 32.7784C20.5299 32.2303 21.1152 31.8297 21.6217 32.0299Z" fill="#EEA47D"/>
<path d="M23.4713 12.5184C21.1118 10.0456 15.6816 6.81 13.3503 9.105C10.9853 11.5537 14.4813 17.1514 17.0406 19.5016C19.4173 21.9927 24.8444 25.2043 27.1611 22.9155C29.5198 20.4719 26.0512 14.8916 23.4713 12.5184ZM25.8771 16.0787C27.0717 17.8743 28.3567 21.2344 26.8847 22.6394C26.1003 23.4238 24.6833 23.515 22.8945 22.8962C20.8104 22.1551 18.9725 20.8346 17.3166 19.2254C15.5885 17.5134 14.154 15.5744 13.37 13.3719C12.7514 11.5831 12.8419 10.1655 13.6264 9.38109C14.901 8.02539 17.9571 9.02109 19.7285 10.1115C22.0832 11.4751 24.4226 13.7708 25.8771 16.0787Z" fill="#CDE6F6"/>
<path d="M26.2293 15.9199C22.5629 17.4359 19.0895 21.6929 19.5593 25.7509C19.6919 25.7597 19.8234 25.7664 19.9554 25.7702C19.3193 20.8307 25.0904 15.0613 30.0328 15.7193C30.0294 15.5868 30.0234 15.4547 30.014 15.3227C28.8556 15.163 27.5419 15.3718 26.2293 15.9199Z" fill="#CDE6F6"/>
<path d="M20.7548 6.23508C20.6523 6.22906 20.5517 6.22562 20.4493 6.22461C20.9971 11.1158 15.3804 16.7379 10.4885 16.2109C10.4919 16.3423 10.4968 16.4733 10.5056 16.6048C15.6415 17.0837 21.3426 11.3767 20.8438 6.24C20.8139 6.23781 20.7841 6.23672 20.7548 6.23508Z" fill="#CDE6F6"/>
<path d="M27.1735 9.08562C27.2199 9.13203 27.2652 9.17844 27.31 9.22539L13.4866 23.0488C13.3928 22.9595 13.3 22.8666 13.2103 22.7726L27.0336 8.94922C27.0807 8.99398 27.1271 9.03922 27.1735 9.08562Z" fill="#CDE6F6"/>
</svg>
