<svg width="40" height="40" viewBox="0 0 40 40" fill="none" xmlns="http://www.w3.org/2000/svg">
<path d="M39.9999 20C39.9999 22.8297 39.4116 25.5227 38.3514 27.9625C37.9421 28.9047 37.4624 29.8094 36.9186 30.6695C36.6382 31.1141 36.3397 31.5469 36.0257 31.9672C35.4218 32.775 34.7577 33.5352 34.0413 34.2422C33.6936 34.5844 33.3343 34.9148 32.9624 35.2305C32.3046 35.7914 31.6108 36.3094 30.8835 36.782C30.5311 37.0109 30.171 37.2289 29.8038 37.4359C29.1811 37.7867 28.5374 38.1055 27.8749 38.3891C27.521 38.5414 27.1608 38.6836 26.796 38.8148C26.2155 39.025 25.6225 39.2086 25.0186 39.3648C24.6624 39.457 24.303 39.5391 23.9397 39.6117C23.4827 39.7031 23.0194 39.7789 22.5507 39.8383C22.1944 39.8844 21.8343 39.9203 21.4718 39.9461C20.9858 39.982 20.4952 40 19.9999 40C19.7421 40 19.4858 39.9953 19.2303 39.9852C18.8686 39.9719 18.5085 39.9484 18.1514 39.9156C15.4733 39.6703 12.9475 38.8969 10.6803 37.7C10.3132 37.5062 9.95378 37.3023 9.60066 37.0867C6.86003 35.4156 4.553 33.1023 2.88738 30.357C2.48972 29.7023 2.12957 29.0219 1.80847 28.3203C1.753 28.2016 1.69988 28.0828 1.64832 27.9625C0.588159 25.5227 -0.00012207 22.8297 -0.00012207 20C-0.00012207 8.95469 8.95457 0 19.9999 0C31.0452 0 39.9999 8.95469 39.9999 20Z" fill="#78C795"/>
<path d="M1.64746 27.9629C5.13184 36.0692 13.7745 41.0079 22.5498 39.8386C29.4641 38.9961 35.6054 34.3577 38.3506 27.9629H1.64746Z" fill="#D48D77"/>
<path d="M35.3528 27.9629C35.3958 29.1861 34.1306 30.3663 32.9605 31.0137C30.2869 32.5182 27.0132 33.1387 23.9379 33.463C20.4608 33.801 16.665 33.6966 13.2168 33.0684C9.91613 32.4634 4.75995 30.9084 4.64331 27.963H35.3528V27.9629Z" fill="#C17E62"/>
<path d="M22.5455 37.0135V39.8393C22.1892 39.8854 21.8291 39.9213 21.4666 39.9471V37.0135C21.4916 36.2987 22.5206 36.2991 22.5455 37.0135Z" fill="#C17E62"/>
<path d="M22.5455 27.9629V29.6238C22.5455 29.9215 22.3041 30.1629 22.0056 30.1629C21.708 30.1629 21.4666 29.9215 21.4666 29.6238V27.9629H22.5455Z" fill="#C17E62"/>
<path d="M18.3908 30.2668V39.9363C18.0302 39.9094 17.6688 39.8692 17.3119 39.8215V30.2668C17.3335 29.5548 18.3692 29.5538 18.3908 30.2668Z" fill="#C17E62"/>
<path d="M14.297 27.9629V35.8535C14.297 36.1512 14.0556 36.3926 13.758 36.3926C13.4595 36.3926 13.2181 36.1512 13.2181 35.8535V27.9629H14.297Z" fill="#C17E62"/>
<path d="M10.1395 33.9159V37.405C9.773 37.1966 9.41231 36.9764 9.05981 36.7456V33.9159C9.08466 33.2024 10.1148 33.2026 10.1395 33.9159Z" fill="#C17E62"/>
<path d="M6.41533 27.9629V31.1496C6.41533 31.4473 6.17392 31.6887 5.87549 31.6887C5.57783 31.6887 5.33643 31.4473 5.33643 31.1496V27.9629H6.41533Z" fill="#C17E62"/>
<path d="M2.88421 27.9629V30.3574C2.48655 29.7027 2.12639 29.0223 1.8053 28.3207V27.9629H2.88421Z" fill="#C17E62"/>
<path d="M25.0107 30.2665V39.365C24.6544 39.4572 24.295 39.5392 23.9318 39.6118V30.2665C23.9564 29.554 24.9863 29.5521 25.0107 30.2665Z" fill="#C17E62"/>
<path d="M27.8715 27.9629V33.7074C27.8715 34.0051 27.6301 34.2465 27.3324 34.2465C27.034 34.2465 26.7926 34.0051 26.7926 33.7074V27.9629H27.8715Z" fill="#C17E62"/>
<path d="M27.8715 38.3243V38.3899C27.5176 38.5422 27.1574 38.6844 26.7926 38.8157V38.3243C26.8142 37.6108 27.8503 37.6105 27.8715 38.3243Z" fill="#C17E62"/>
<path d="M30.8801 29.2663V36.7843C30.5278 37.0132 30.1676 37.2312 29.8004 37.4382V29.2663C29.8249 28.5519 30.8557 28.5518 30.8801 29.2663Z" fill="#C17E62"/>
<path d="M34.0353 27.9629V34.2426C33.6877 34.5848 33.3283 34.9152 32.9564 35.2309V27.9629H34.0353Z" fill="#C17E62"/>
<path d="M36.9115 30.6688C36.631 31.1133 36.3326 31.5461 36.0185 31.9664V31.0766C36.0115 30.6191 36.5752 30.3665 36.9115 30.6688Z" fill="#C17E62"/>
<path d="M22.5578 27.9629V29.6238C22.5578 29.9215 22.3164 30.1629 22.0179 30.1629C21.7203 30.1629 21.4789 29.9215 21.4789 29.6238V27.9629H22.5578Z" fill="#A26D5A"/>
<path d="M18.4 30.2666V33.6205C18.0367 33.6072 17.6765 33.5885 17.321 33.565V30.2666C17.321 29.9689 17.5625 29.7275 17.8601 29.7275C18.1584 29.7275 18.4 29.9682 18.4 30.2666Z" fill="#A26D5A"/>
<path d="M14.3024 27.9629V33.2465C13.9352 33.1926 13.5759 33.1332 13.2235 33.0684V27.9629H14.3024Z" fill="#A26D5A"/>
<path d="M6.41876 27.9629V30.6168C5.9836 30.3113 5.6211 29.9902 5.33984 29.6551V27.9629H6.41876Z" fill="#A26D5A"/>
<path d="M25.0246 30.2666V33.34C24.6707 33.3861 24.3105 33.4268 23.9457 33.4627V30.2666C23.9457 29.9689 24.1879 29.7275 24.4855 29.7275C24.7829 29.7275 25.0249 29.9686 25.0246 30.2666Z" fill="#A26D5A"/>
<path d="M27.8769 27.9629V32.8473C27.5261 32.9254 27.1659 32.998 26.798 33.0652V27.9629H27.8769Z" fill="#A26D5A"/>
<path d="M30.8855 29.2634V31.9751C30.5409 32.1033 30.1808 32.2251 29.8058 32.34V29.2634C29.8305 28.5486 30.8612 28.5492 30.8855 29.2634Z" fill="#A26D5A"/>
<path d="M34.0405 27.9629V30.2684C33.7303 30.5277 33.3694 30.777 32.9615 31.0137V27.9629H34.0405Z" fill="#A26D5A"/>
<path d="M5.9953 10.2237V27.3156C5.98741 28.2955 6.80217 29.1402 7.81467 29.135H9.20006C10.2049 29.135 11.0194 28.3205 11.0194 27.3156V10.2237C11.0194 9.22969 10.2221 8.42148 9.23178 8.40523C9.22178 8.4043 9.21092 8.4043 9.20006 8.4043H7.81467C6.80983 8.4043 5.9953 9.21883 5.9953 10.2237Z" fill="#BF5E39"/>
<path d="M5.98853 10.2228V27.3147C5.98853 27.5032 6.01751 27.6853 6.07009 27.8565C6.08009 27.8575 6.09095 27.8575 6.10087 27.8575H7.48712C8.49196 27.8575 9.30649 27.0429 9.30649 26.0381V8.9452C9.30649 8.75676 9.27751 8.57551 9.22493 8.40426C9.21493 8.40332 9.20407 8.40332 9.19321 8.40332H7.8079C6.80306 8.4034 5.98853 9.21793 5.98853 10.2228Z" fill="#DD5E26"/>
<path d="M7.24624 22.6638C7.94007 22.6638 8.50249 22.1014 8.50249 21.4076V12.2162C8.50249 11.5224 7.94007 10.96 7.24624 10.96C6.55241 10.96 5.98999 11.5224 5.98999 12.2162V21.4076C5.98999 22.1013 6.55249 22.6638 7.24624 22.6638Z" fill="#EA792E"/>
<path d="M34.015 10.2246V27.3166C34.0229 28.2965 33.2081 29.1412 32.1956 29.136H30.8102C29.8054 29.136 28.9908 28.3214 28.9908 27.3166V10.2246C28.9908 9.23066 29.7882 8.42246 30.7785 8.40621C30.7885 8.40527 30.7994 8.40527 30.8102 8.40527H32.1956C33.2005 8.40527 34.015 9.2198 34.015 10.2246Z" fill="#BF5E39"/>
<path d="M34.0122 10.2237V27.3157C34.0122 27.5041 33.9832 27.6863 33.9306 27.8575C33.9206 27.8584 33.9098 27.8584 33.8998 27.8584H32.5136C31.5087 27.8584 30.6942 27.0439 30.6942 26.0391V8.94617C30.6942 8.75773 30.7232 8.57648 30.7758 8.40523C30.7858 8.4043 30.7966 8.4043 30.8075 8.4043H32.1929C33.1977 8.40438 34.0122 9.21891 34.0122 10.2237Z" fill="#DD5E26"/>
<path d="M32.7582 22.6638C32.0644 22.6638 31.502 22.1014 31.502 21.4076V12.2162C31.502 11.5224 32.0644 10.96 32.7582 10.96C33.452 10.96 34.0145 11.5224 34.0145 12.2162V21.4076C34.0145 22.1013 33.452 22.6638 32.7582 22.6638Z" fill="#EA792E"/>
<path d="M29.3044 11.4626H10.7024C10.3338 11.4626 10.035 11.1638 10.035 10.7953C10.035 10.4267 10.3339 10.1279 10.7024 10.1279H29.3044C30.1837 10.1594 30.1944 11.4265 29.3044 11.4626Z" fill="#334353"/>
<path d="M27.0164 10.9584H12.711C12.1663 10.9434 12.1575 10.145 12.711 10.127H27.0164C27.5611 10.142 27.5699 10.9404 27.0164 10.9584Z" fill="#3E4E60"/>
<path d="M25.1612 10.9584H18.3395C18.1099 10.9584 17.9238 10.7723 17.9238 10.5427C17.9238 10.313 18.1099 10.127 18.3395 10.127H25.1612C25.7086 10.1431 25.7123 10.941 25.1612 10.9584Z" fill="#3F5D77"/>
<path d="M29.3044 17.9665H10.7024C10.3338 17.9665 10.035 17.6677 10.035 17.2992C10.035 16.9306 10.3339 16.6318 10.7024 16.6318H29.3044C30.1837 16.6632 30.1944 17.9304 29.3044 17.9665Z" fill="#334353"/>
<path d="M27.0164 17.4623H12.711C12.1663 17.4473 12.1575 16.6489 12.711 16.6309H27.0164C27.5611 16.6459 27.5699 17.4443 27.0164 17.4623Z" fill="#3E4E60"/>
<path d="M25.1612 17.4623H18.3395C18.1099 17.4623 17.9238 17.2762 17.9238 17.0466C17.9238 16.817 18.1099 16.6309 18.3395 16.6309H25.1612C25.7086 16.647 25.7123 17.4448 25.1612 17.4623Z" fill="#3F5D77"/>
<path d="M29.3044 24.4704H10.7024C10.3338 24.4704 10.035 24.1716 10.035 23.8031C10.035 23.4345 10.3339 23.1357 10.7024 23.1357H29.3044C30.1837 23.1671 30.1944 24.4343 29.3044 24.4704Z" fill="#334353"/>
<path d="M27.0164 23.9662H12.711C12.1663 23.9512 12.1575 23.1528 12.711 23.1348H27.0164C27.5611 23.1498 27.5699 23.9482 27.0164 23.9662Z" fill="#3E4E60"/>
<path d="M25.1612 23.9662H18.3395C18.1099 23.9662 17.9238 23.7801 17.9238 23.5505C17.9238 23.3209 18.1099 23.1348 18.3395 23.1348H25.1612C25.7086 23.1509 25.7123 23.9488 25.1612 23.9662Z" fill="#3F5D77"/>
<path d="M16.4419 9.606V11.9808C16.4419 12.1412 16.4111 12.2933 16.354 12.4329C15.8458 13.6401 14.0573 13.3035 14.0372 11.9808V9.606C14.0372 9.09678 14.3535 8.66099 14.8011 8.48615C15.5643 8.17146 16.4596 8.77459 16.4419 9.606Z" fill="#C0405C"/>
<path d="M16.4428 9.60618V11.981C16.4428 12.1413 16.412 12.2935 16.3549 12.4331C15.5921 12.7503 14.6963 12.1447 14.714 11.3141V8.93836C14.714 8.77797 14.7448 8.62579 14.8019 8.48625C15.5651 8.17118 16.4604 8.77516 16.4428 9.60618Z" fill="#E9465E"/>
<path d="M15.6683 11.4448C15.3897 11.4448 15.1638 11.219 15.1638 10.9403V9.72937C15.1867 9.0618 16.1498 9.06133 16.1729 9.72937V10.9403C16.173 11.219 15.947 11.4448 15.6683 11.4448Z" fill="#EE6781"/>
<path d="M19.926 9.606V11.9808C19.926 12.1412 19.8953 12.2933 19.8382 12.4329C19.33 13.6401 17.5414 13.3035 17.5214 11.9808V9.606C17.5214 9.09678 17.8376 8.66099 18.2852 8.48615C19.0484 8.17146 19.9437 8.77459 19.926 9.606Z" fill="#C0405C"/>
<path d="M19.9269 9.60618V11.981C19.9269 12.1413 19.8961 12.2935 19.839 12.4331C19.0763 12.7503 18.1804 12.1447 18.1981 11.3141V8.93836C18.1981 8.77797 18.2289 8.62579 18.286 8.48625C19.0492 8.17118 19.9445 8.77516 19.9269 9.60618Z" fill="#E9465E"/>
<path d="M19.1525 11.4448C18.8738 11.4448 18.6479 11.219 18.6479 10.9403V9.72937C18.6708 9.0618 19.634 9.06133 19.657 9.72937V10.9403C19.657 11.219 19.4312 11.4448 19.1525 11.4448Z" fill="#EE6781"/>
<path d="M22.4269 16.1099V18.4847C22.4269 18.6451 22.3961 18.7972 22.339 18.9368C21.8308 20.144 20.0423 19.8074 20.0222 18.4847V16.1099C20.0222 15.6007 20.3385 15.1649 20.786 14.9901C21.5492 14.6754 22.4445 15.2785 22.4269 16.1099Z" fill="#50755C"/>
<path d="M22.4278 16.1101V18.4848C22.4278 18.6452 22.397 18.7974 22.3399 18.937C21.5771 19.2541 20.6813 18.6486 20.699 17.818V15.4423C20.699 15.2819 20.7298 15.1297 20.7869 14.9902C21.5501 14.6751 22.4454 15.2791 22.4278 16.1101Z" fill="#528F66"/>
<path d="M21.6533 17.9488C21.3747 17.9488 21.1488 17.7229 21.1488 17.4442V16.2333C21.1717 15.5657 22.1348 15.5652 22.1579 16.2333V17.4442C22.1579 17.7229 21.932 17.9488 21.6533 17.9488Z" fill="#53B976"/>
<path d="M25.9127 16.1099V18.4847C25.9127 18.6451 25.882 18.7972 25.8248 18.9368C25.3166 20.144 23.5281 19.8074 23.5081 18.4847V16.1099C23.5081 15.6007 23.8243 15.1649 24.2719 14.9901C25.035 14.6754 25.9304 15.2785 25.9127 16.1099Z" fill="#50755C"/>
<path d="M25.9132 16.1101V18.4848C25.9132 18.6452 25.8824 18.7974 25.8253 18.937C25.0626 19.2541 24.1667 18.6486 24.1845 17.818V15.4423C24.1845 15.2819 24.2152 15.1297 24.2724 14.9902C25.0355 14.6751 25.9308 15.2791 25.9132 16.1101Z" fill="#528F66"/>
<path d="M25.1392 17.9488C24.8605 17.9488 24.6346 17.7229 24.6346 17.4442V16.2333C24.6575 15.5657 25.6207 15.5652 25.6437 16.2333V17.4442C25.6437 17.7229 25.4178 17.9488 25.1392 17.9488Z" fill="#53B976"/>
<path d="M17.7471 22.6138V24.9885C17.7471 25.1489 17.7163 25.3011 17.6592 25.4406C17.151 26.6478 15.3625 26.3113 15.3424 24.9885V22.6138C15.3424 22.1046 15.6587 21.6688 16.1062 21.4939C16.8694 21.1793 17.7647 21.7824 17.7471 22.6138Z" fill="#22A8B9"/>
<path d="M17.7481 22.614V24.9887C17.7481 25.1491 17.7173 25.3013 17.6602 25.4408C16.8974 25.758 16.0016 25.1525 16.0193 24.3219V21.9462C16.0193 21.7858 16.0501 21.6336 16.1072 21.4941C16.8704 21.179 17.7657 21.783 17.7481 22.614Z" fill="#22BCE0"/>
<path d="M16.9735 24.4526C16.6949 24.4526 16.469 24.2268 16.469 23.9481V22.7372C16.4919 22.0696 17.455 22.0691 17.4781 22.7372V23.9481C17.4781 24.2268 17.2522 24.4526 16.9735 24.4526Z" fill="#4FCAE8"/>
<path d="M21.2312 22.6138V24.9885C21.2312 25.1489 21.2004 25.3011 21.1433 25.4406C20.6351 26.6478 18.8466 26.3113 18.8265 24.9885V22.6138C18.8265 22.1046 19.1428 21.6688 19.5904 21.4939C20.3535 21.1793 21.2489 21.7824 21.2312 22.6138Z" fill="#22A8B9"/>
<path d="M21.2322 22.614V24.9887C21.2322 25.1491 21.2014 25.3013 21.1443 25.4408C20.3816 25.758 19.4857 25.1525 19.5034 24.3219V21.9462C19.5034 21.7858 19.5342 21.6336 19.5913 21.4941C20.3545 21.179 21.2499 21.783 21.2322 22.614Z" fill="#22BCE0"/>
<path d="M20.4576 24.4526C20.179 24.4526 19.9531 24.2268 19.9531 23.9481V22.7372C19.976 22.0696 20.9391 22.0691 20.9622 22.7372V23.9481C20.9622 24.2268 20.7363 24.4526 20.4576 24.4526Z" fill="#4FCAE8"/>
</svg>
