<svg width="20" height="20" viewBox="0 0 20 20" fill="none" xmlns="http://www.w3.org/2000/svg">
<path d="M18.751 10.1941C18.751 9.47471 18.6914 8.94971 18.5625 8.40527H10.1796V11.6525H15.1001C15.001 12.4594 14.4653 13.6747 13.2748 14.4913L13.2581 14.6L15.9086 16.6123L16.0922 16.6303C17.7787 15.1039 18.751 12.858 18.751 10.1941Z" fill="#4285F4"/>
<path d="M10.1792 18.75C12.5899 18.75 14.6137 17.9722 16.0919 16.6305L13.2744 14.4916C12.5205 15.0068 11.5086 15.3666 10.1792 15.3666C7.81816 15.3666 5.81421 13.8402 5.09986 11.7305L4.99516 11.7392L2.23911 13.8295L2.20306 13.9277C3.6713 16.786 6.68717 18.75 10.1792 18.75Z" fill="#34A853"/>
<path d="M5.10008 11.7302C4.91159 11.1858 4.80251 10.6024 4.80251 9.99967C4.80251 9.39686 4.91159 8.81355 5.09016 8.26911L5.08517 8.15316L2.29458 6.0293L2.20327 6.07186C1.59814 7.25798 1.25092 8.58995 1.25092 9.99967C1.25092 11.4094 1.59814 12.7413 2.20327 13.9274L5.10008 11.7302Z" fill="#FBBC05"/>
<path d="M10.1793 4.63331C11.8559 4.63331 12.9868 5.34303 13.6317 5.93613L16.1515 3.525C14.6039 2.11528 12.59 1.25 10.1793 1.25C6.68719 1.25 3.67131 3.21387 2.20306 6.07218L5.08996 8.26944C5.81423 6.15972 7.81819 4.63331 10.1793 4.63331Z" fill="#EB4335"/>
</svg>
