<svg width="20" height="20" viewBox="0 0 20 20" fill="none" xmlns="http://www.w3.org/2000/svg">
<path d="M7.50033 4.16699H5.83366C5.39163 4.16699 4.96771 4.34259 4.65515 4.65515C4.34259 4.96771 4.16699 5.39163 4.16699 5.83366V15.8337C4.16699 16.2757 4.34259 16.6996 4.65515 17.0122C4.96771 17.3247 5.39163 17.5003 5.83366 17.5003H14.167C14.609 17.5003 15.0329 17.3247 15.3455 17.0122C15.6581 16.6996 15.8337 16.2757 15.8337 15.8337V5.83366C15.8337 5.39163 15.6581 4.96771 15.3455 4.65515C15.0329 4.34259 14.609 4.16699 14.167 4.16699H12.5003" stroke="white" stroke-width="1.5" stroke-linecap="round" stroke-linejoin="round"/>
<path d="M10.8333 2.5H9.16667C8.24619 2.5 7.5 3.24619 7.5 4.16667C7.5 5.08714 8.24619 5.83333 9.16667 5.83333H10.8333C11.7538 5.83333 12.5 5.08714 12.5 4.16667C12.5 3.24619 11.7538 2.5 10.8333 2.5Z" stroke="white" stroke-width="1.5" stroke-linecap="round" stroke-linejoin="round"/>
<path d="M7.5 10H7.50792" stroke="white" stroke-width="1.5" stroke-linecap="round" stroke-linejoin="round"/>
<path d="M10.833 10H12.4997" stroke="white" stroke-width="1.5" stroke-linecap="round" stroke-linejoin="round"/>
<path d="M7.5 13.333H7.50792" stroke="white" stroke-width="1.5" stroke-linecap="round" stroke-linejoin="round"/>
<path d="M10.833 13.333H12.4997" stroke="white" stroke-width="1.5" stroke-linecap="round" stroke-linejoin="round"/>
</svg>
