<svg width="14" height="14" viewBox="0 0 14 14" fill="none" xmlns="http://www.w3.org/2000/svg">
<path fill-rule="evenodd" clip-rule="evenodd" d="M10.3405 8.73433C10.6165 8.73433 10.8405 8.51033 10.8405 8.23433V6.99966C10.8405 6.72366 10.6165 6.49966 10.3405 6.49966H6.54578C6.32978 5.78833 5.67512 5.26566 4.89378 5.26566C3.93778 5.26566 3.15978 6.04366 3.15978 6.99966C3.15978 7.95633 3.93778 8.73433 4.89378 8.73433C5.67512 8.73433 6.32978 8.21166 6.54578 7.49966H7.95378V8.23433C7.95378 8.51033 8.17778 8.73433 8.45378 8.73433C8.72978 8.73433 8.95378 8.51033 8.95378 8.23433V7.49966H9.84045V8.23433C9.84045 8.51033 10.0645 8.73433 10.3405 8.73433ZM4.11045 0.333008H9.88978C12.1484 0.333008 13.6664 1.91834 13.6664 4.27767V9.72234C13.6664 12.0817 12.1484 13.6663 9.88911 13.6663H4.11045C1.85111 13.6663 0.333115 12.0817 0.333115 9.72234V4.27767C0.333115 1.91834 1.85111 0.333008 4.11045 0.333008ZM4.15917 7.00027C4.15917 6.59493 4.48917 6.2656 4.89384 6.2656C5.2985 6.2656 5.6285 6.59493 5.6285 7.00027C5.6285 7.40493 5.2985 7.73427 4.89384 7.73427C4.48917 7.73427 4.15917 7.40493 4.15917 7.00027Z" fill="#F9BD2C"/>
</svg>
