<svg width="58" height="68" viewBox="0 0 58 68" fill="none" xmlns="http://www.w3.org/2000/svg">
<path d="M53.0115 67.2001C55.6625 67.2001 57.8115 65.051 57.8115 62.4001V4.80009C57.8116 2.14903 55.6626 0 53.0115 0H4.98979C2.33873 0 0.189697 2.14903 0.189697 4.79995V62.4C0.189697 65.0509 2.33873 67.1999 4.98965 67.1999H53.0115V67.2001Z" fill="#FFDC67"/>
<path d="M43.3898 62.3998H46.9898C47.5537 62.3998 48.0442 62.0076 48.1609 61.4558C48.5672 59.5361 50.17 57.9528 52.0644 57.5494C52.6172 57.4317 53.0116 56.9427 53.0116 56.3775V10.8221C53.0116 10.2569 52.6172 9.76795 52.0644 9.65024C50.1702 9.24679 48.5672 7.66349 48.1609 5.74382C48.0442 5.19201 47.5537 4.7998 46.9898 4.7998H11.0117C10.4478 4.7998 9.95732 5.19201 9.84046 5.74382C9.43434 7.66349 7.83136 9.24679 5.937 9.65024C5.3842 9.76795 4.98975 10.2569 4.98975 10.8221V56.3777C4.98975 56.9429 5.3842 57.4318 5.937 57.5495C7.83121 57.953 9.4342 59.5363 9.84046 61.4559C9.95718 62.0077 10.4477 62.4 11.0117 62.4H28.9899H43.3898V62.3998Z" fill="#F9F5F5"/>
<path d="M53.0107 0H49.6787C52.3296 0 54.4787 2.14903 54.4787 4.79995V62.4C54.4787 65.0509 52.3296 67.1999 49.6787 67.1999H53.0107C55.6616 67.1999 57.8106 65.0509 57.8106 62.4V4.79995C57.8108 2.14903 55.6617 0 53.0107 0V0Z" fill="#FFB957"/>
<path d="M52.0658 9.65024C50.1715 9.24679 48.5685 7.66349 48.1623 5.74382C48.0456 5.19201 47.5551 4.7998 46.9912 4.7998H43.6592C44.2231 4.7998 44.7136 5.19201 44.8303 5.74382C45.2364 7.66349 46.8394 9.24679 48.7338 9.65024C49.2866 9.76795 49.681 10.2569 49.681 10.8221V56.3777C49.681 56.9429 49.2866 57.4318 48.7338 57.5495C46.8396 57.953 45.2366 59.5363 44.8303 61.4559C44.7136 62.0077 44.2231 62.4 43.6592 62.4H46.9912C47.5551 62.4 48.0456 62.0077 48.1623 61.4559C48.5684 59.5363 50.1714 57.953 52.0658 57.5495C52.6185 57.4318 53.013 56.9429 53.013 56.3777V10.8221C53.0129 10.2569 52.6185 9.76795 52.0658 9.65024Z" fill="#E2D8EC"/>
<path d="M37.4644 16.8001H20.5144C19.8931 16.8001 19.3894 16.2964 19.3894 15.6751V13.125C19.3894 12.5037 19.8931 12 20.5144 12H37.4644C38.0856 12 38.5894 12.5037 38.5894 13.125V15.675C38.5894 16.2964 38.0856 16.8001 37.4644 16.8001Z" fill="#7DA8FF"/>
<path d="M53.0017 61.0137C52.4016 61.0137 51.9153 61.5001 51.9153 62.1001V62.7002C51.9153 63.3002 52.4017 63.7867 53.0017 63.7867C53.6019 63.7867 54.0882 63.3002 54.0882 62.7002V62.1001C54.0882 61.5001 53.6018 61.0137 53.0017 61.0137Z" fill="#FFB456"/>
<path d="M53.0017 3.41309C52.4016 3.41309 51.9153 3.89951 51.9153 4.49955V5.0996C51.9153 5.69965 52.4017 6.18607 53.0017 6.18607C53.6019 6.18607 54.0882 5.69965 54.0882 5.0996V4.49955C54.0882 3.89951 53.6018 3.41309 53.0017 3.41309Z" fill="#FFB456"/>
<path d="M4.99028 3.41309C4.39009 3.41309 3.90381 3.89951 3.90381 4.49955V5.0996C3.90381 5.69965 4.39023 6.18607 4.99028 6.18607C5.59046 6.18607 6.07675 5.69965 6.07675 5.0996V4.49955C6.07675 3.89951 5.59046 3.41309 4.99028 3.41309Z" fill="#FFB456"/>
<path d="M4.99028 61.0137C4.39009 61.0137 3.90381 61.5001 3.90381 62.1001V62.7002C3.90381 63.3002 4.39023 63.7867 4.99028 63.7867C5.59046 63.7867 6.07675 63.3002 6.07675 62.7002V62.1001C6.07675 61.5001 5.59046 61.0137 4.99028 61.0137Z" fill="#FFB456"/>
<path d="M14.5894 22.6866H43.3894C43.9894 22.6866 44.4759 22.2002 44.4759 21.6001C44.4759 21.0001 43.9894 20.5137 43.3894 20.5137H14.5894C13.9892 20.5137 13.5029 21.0001 13.5029 21.6001C13.5029 22.2002 13.9892 22.6866 14.5894 22.6866Z" fill="#365E7D"/>
<path d="M43.3884 25.3135H14.5884C13.9882 25.3135 13.502 25.7999 13.502 26.3999C13.502 27 13.9884 27.4864 14.5884 27.4864H43.3884C43.9885 27.4864 44.4749 27 44.4749 26.3999C44.4749 25.7999 43.9886 25.3135 43.3884 25.3135Z" fill="#365E7D"/>
<path d="M43.3884 30.1133H14.5884C13.9882 30.1133 13.502 30.5997 13.502 31.1997C13.502 31.7998 13.9884 32.2862 14.5884 32.2862H43.3884C43.9885 32.2862 44.4749 31.7998 44.4749 31.1997C44.4749 30.5997 43.9886 30.1133 43.3884 30.1133Z" fill="#365E7D"/>
<path d="M43.3884 35H14.5884C13.9882 35 13.502 35.4864 13.502 36.0865C13.502 36.6865 13.9884 37.1729 14.5884 37.1729H43.3884C43.9885 37.1729 44.4749 36.6865 44.4749 36.0865C44.4749 35.4864 43.9886 35 43.3884 35Z" fill="#365E7D"/>
<path d="M36.1914 39.7998H21.7915C21.1914 39.7998 20.7051 40.2862 20.7051 40.8863C20.7051 41.4863 21.1915 41.9727 21.7915 41.9727H36.1914C36.7914 41.9727 37.2779 41.4863 37.2779 40.8863C37.278 40.2862 36.7916 39.7998 36.1914 39.7998Z" fill="#365E7D"/>
<path d="M37.4299 12H34.0979C34.738 12 35.2568 12.5189 35.2568 13.159V15.6412C35.2568 16.2812 34.7379 16.8001 34.0979 16.8001H37.4299C38.0699 16.8001 38.5888 16.2812 38.5888 15.6412V13.159C38.5888 12.5189 38.0699 12 37.4299 12Z" fill="#7092FF"/>
</svg>
