<svg width="24" height="24" viewBox="0 0 24 24" fill="none" xmlns="http://www.w3.org/2000/svg">
<g clip-path="url(#clip0)">
<path d="M12 24C18.6274 24 24 18.6274 24 12C24 5.37258 18.6274 0 12 0C5.37258 0 0 5.37258 0 12C0 18.6274 5.37258 24 12 24Z" fill="#32BA7C"/>
<path d="M8.93384 17.4132L15.1042 23.5835C20.2146 22.2208 24.0001 17.5646 24.0001 12C24.0001 11.8864 24.0001 11.7728 24.0001 11.6593L19.1547 7.19238L8.93384 17.4132Z" fill="#0AA06E"/>
<path d="M12.3026 14.6882C12.8325 15.2182 12.8325 16.1267 12.3026 16.6567L11.2048 17.7545C10.6748 18.2844 9.76628 18.2844 9.23631 17.7545L4.42873 12.909C3.89876 12.3791 3.89876 11.4706 4.42873 10.9406L5.52652 9.84279C6.05649 9.31282 6.96501 9.31282 7.49498 9.84279L12.3026 14.6882Z" fill="white"/>
<path d="M16.5041 6.32228C17.0341 5.79231 17.9426 5.79231 18.4726 6.32228L19.5704 7.42007C20.1003 7.95004 20.1003 8.85856 19.5704 9.38853L11.2423 17.6787C10.7123 18.2087 9.8038 18.2087 9.27383 17.6787L8.17604 16.581C7.64607 16.051 7.64607 15.1425 8.17604 14.6125L16.5041 6.32228Z" fill="white"/>
</g>
<defs>
<clipPath id="clip0">
<rect width="24" height="24" fill="white"/>
</clipPath>
</defs>
</svg>
