<svg width="343" height="84" viewBox="0 0 343 84" fill="none" xmlns="http://www.w3.org/2000/svg">
<mask id="mask0" mask-type="alpha" maskUnits="userSpaceOnUse" x="0" y="0" width="343" height="84">
<rect width="343" height="84" rx="10" fill="#3378FF"/>
</mask>
<g mask="url(#mask0)">
<path d="M57.4656 70.8333L56.0323 68.8384L53.5017 68.8491C53.2105 68.8491 53.0538 68.538 53.2217 68.3128L54.7558 66.393L53.972 64.0977C53.8824 63.8403 54.1399 63.5936 54.4199 63.6794L56.8049 64.4838L58.8428 63.0574C59.078 62.8965 59.4027 63.0574 59.3915 63.3362L59.3355 65.7602L61.3847 67.1759C61.6198 67.3368 61.5526 67.68 61.2839 67.7658L58.8652 68.463L58.0926 70.7689C57.9918 71.0049 57.6335 71.0585 57.4656 70.8333Z" fill="#1565FF"/>
<path d="M191.475 41.4541L190.042 39.4592L187.511 39.4699C187.22 39.4699 187.063 39.1589 187.231 38.9337L188.765 37.0138L187.981 34.7186C187.892 34.4612 188.149 34.2145 188.429 34.3003L190.814 35.1047L192.852 33.6782C193.087 33.5173 193.412 33.6782 193.401 33.9571L193.345 36.381L195.394 37.7968C195.629 37.9577 195.562 38.3009 195.293 38.3867L192.875 39.0838L192.102 41.3898C192.001 41.6257 191.643 41.6794 191.475 41.4541Z" fill="#1565FF"/>
<path d="M319.041 30.2774L317.608 28.2824L315.077 28.2932C314.786 28.2932 314.629 27.9821 314.797 27.7569L316.331 25.8371L315.548 23.5418C315.458 23.2844 315.716 23.0377 315.996 23.1235L318.381 23.9279L320.419 22.5015C320.654 22.3406 320.978 22.5015 320.967 22.7803L320.911 25.2043L322.96 26.62C323.195 26.7809 323.128 27.1241 322.86 27.2099L320.441 27.9071L319.668 30.213C319.568 30.449 319.209 30.5026 319.041 30.2774Z" fill="#1565FF"/>
<path d="M279.096 58.6985L277.663 56.7036L275.132 56.7143C274.841 56.7143 274.684 56.4033 274.852 56.178L276.386 54.2582L275.602 51.963C275.513 51.7056 275.77 51.4589 276.05 51.5447L278.435 52.3491L280.473 50.9226C280.708 50.7617 281.033 50.9226 281.022 51.2015L280.966 53.6254L283.015 55.0412C283.25 55.202 283.183 55.5452 282.914 55.6311L280.496 56.3282L279.723 58.6342C279.622 58.8701 279.264 58.9237 279.096 58.6985Z" fill="#1565FF"/>
<path d="M221.434 38.5801L220.001 36.5852L217.47 36.5959C217.179 36.5959 217.023 36.2849 217.19 36.0596L218.725 34.1398L217.941 31.8446C217.851 31.5872 218.109 31.3405 218.389 31.4263L220.774 32.2307L222.812 30.8042C223.047 30.6433 223.371 30.8042 223.36 31.0831L223.304 33.507L225.353 34.9227C225.589 35.0836 225.521 35.4268 225.253 35.5126L222.834 36.2098L222.061 38.5157C221.961 38.7517 221.602 38.8053 221.434 38.5801Z" fill="#1565FF"/>
<path d="M336.677 69.9708L334.41 69.5979L333.086 71.4419L330.579 70.8617L329.809 73.2444L326.945 72.7057L325.946 74.8086L323.104 74.7258L323.136 73.7002L325.263 73.7623L326.315 71.5454L329.06 72.053L329.852 69.6393L332.619 70.2816L333.911 68.4791L336.016 68.8209L336.601 67.4639L337.6 67.8679L336.677 69.9708Z" fill="#1565FF"/>
<path d="M200.146 18.4319L198.52 18.9301L197.436 16.4072L194.97 16.8418L193.843 15.0928L192.96 15.6652L194.459 17.9973L196.798 17.5945L197.925 20.2022L200.37 19.4601L200.146 18.4319Z" fill="#1565FF"/>
<path d="M184.361 57.3911L182.735 57.8894L181.651 55.3665L179.184 55.8011L178.058 54.052L177.175 54.6244L178.674 56.9565L181.013 56.5537L182.14 59.1614L184.584 58.4194L184.361 57.3911Z" fill="#1565FF"/>
<path d="M52.6068 39.5081L50.9804 40.0063L49.8962 37.4834L47.43 37.918L46.3032 36.1689L45.4209 36.7414L46.9197 39.0735L49.2584 38.6706L50.3851 41.2783L52.8301 40.5363L52.6068 39.5081Z" fill="#1565FF"/>
<path d="M89.1551 57.2454L86.6548 58.7677L89.2538 70.4318C89.4731 71.4394 90.6246 71.9323 91.5129 71.3956C92.0721 71.0561 92.3463 70.3989 92.2037 69.7637L91.5677 67.0257L94.1996 65.4267L96.3709 67.2447C96.8644 67.6609 97.5663 67.7157 98.1256 67.3761L98.1694 67.3433C99.0577 66.8066 99.1454 65.5581 98.3558 64.9009L89.1551 57.2454ZM90.8439 64.2657L90.3614 62.1191L92.0502 63.5319L90.8439 64.2657Z" fill="#1565FF"/>
<path d="M164.16 32.1927L161.313 31.4854L154.719 41.4835C154.146 42.3436 154.596 43.5042 155.604 43.7584C156.24 43.9173 156.906 43.6521 157.264 43.1068L158.794 40.7415L161.787 41.4884L161.995 44.2984C162.039 44.9392 162.491 45.4748 163.127 45.6337L163.181 45.6418C164.189 45.8961 165.151 45.0851 165.073 44.0661L164.16 32.1927ZM160.278 38.2986L161.488 36.4556L161.651 38.6403L160.278 38.2986Z" fill="#1565FF"/>
<path d="M261.68 30.951C261.81 30.6248 261.766 29.4504 263.391 28.3195C264.063 27.8628 264.604 27.4714 264.756 26.9386C265.016 26.0143 264.041 25.5685 263.077 25.5794C262.579 25.5794 262.167 25.177 262.156 24.6768C262.145 24.1658 262.535 23.7417 263.044 23.7199C263.597 23.6982 264.247 23.7417 264.94 23.9374C267.009 24.5137 267.637 25.9273 267.28 27.2322C266.944 28.4283 265.991 29.0155 265.211 29.5048C263.9 30.3421 263.9 31.2772 263.792 31.5382L261.68 30.951ZM260.672 33.0062C260.9 32.1689 261.647 31.7339 262.47 31.9623C263.315 32.2015 263.705 32.9518 263.489 33.7891C263.261 34.6046 262.525 35.0613 261.68 34.833C260.846 34.6046 260.445 33.8326 260.672 33.0062Z" fill="#1565FF"/>
<path d="M197.168 55.968C197.823 56.0217 199.089 56.2795 200.255 56.6018C201.687 56.9992 202.519 57.3752 203.152 58.0089C203.763 58.5782 204.085 59.4053 203.818 60.3184C203.552 61.2099 202.775 61.8974 201.476 61.994L201.465 62.0263C202.553 62.6708 203.174 63.7664 202.797 65.0661C202.531 65.9684 201.887 66.57 201.087 66.8922C200.166 67.2682 198.8 67.2467 196.746 66.6774C195.592 66.3551 194.759 66.0436 194.249 65.8288L197.168 55.968ZM198.356 60.4473L199.122 60.6621C200.355 61.0058 201.154 60.6943 201.376 59.9531C201.598 59.1905 201.121 58.6319 200.055 58.3312C199.544 58.1915 199.244 58.1378 199.033 58.1163L198.356 60.4473ZM197.035 64.8943C197.257 64.9909 197.535 65.0661 197.934 65.1735C199 65.4636 200.044 65.3347 200.355 64.282C200.654 63.2723 199.833 62.6063 198.667 62.2841L197.868 62.0585L197.035 64.8943Z" fill="#1565FF"/>
<path d="M255.475 38.085C256.13 38.1387 257.396 38.3965 258.562 38.7187C259.994 39.1162 260.827 39.4921 261.459 40.1259C262.07 40.6952 262.392 41.5223 262.125 42.4353C261.859 43.3268 261.082 44.0143 259.783 44.111L259.772 44.1432C260.86 44.7877 261.482 45.8833 261.104 47.1831C260.838 48.0854 260.194 48.6869 259.394 49.0091C258.473 49.3851 257.107 49.3636 255.054 48.7943C253.899 48.4721 253.066 48.1606 252.556 47.9457L255.475 38.085ZM256.663 42.5642L257.429 42.779C258.662 43.1228 259.461 42.8113 259.683 42.0701C259.905 41.3074 259.428 40.7489 258.362 40.4481C257.851 40.3085 257.552 40.2548 257.341 40.2333L256.663 42.5642ZM255.342 47.0112C255.564 47.1079 255.842 47.1831 256.241 47.2905C257.307 47.5805 258.351 47.4516 258.662 46.3989C258.961 45.3892 258.14 44.7233 256.974 44.401L256.175 44.1754L255.342 47.0112Z" fill="#1565FF"/>
<path d="M224.55 9.34473C225.205 9.39843 226.471 9.65623 227.636 9.97848C229.069 10.3759 229.901 10.7519 230.534 11.3856C231.145 11.9549 231.467 12.782 231.2 13.6951C230.934 14.5866 230.157 15.2741 228.858 15.3708L228.847 15.403C229.935 16.0475 230.556 17.1431 230.179 18.4428C229.912 19.3451 229.268 19.9467 228.469 20.2689C227.548 20.6449 226.182 20.6234 224.128 20.0541C222.974 19.7318 222.141 19.4203 221.63 19.2055L224.55 9.34473ZM225.738 13.824L226.504 14.0388C227.736 14.3825 228.536 14.071 228.758 13.3299C228.98 12.5672 228.502 12.0086 227.437 11.7079C226.926 11.5682 226.626 11.5145 226.415 11.493L225.738 13.824ZM224.417 18.271C224.639 18.3677 224.917 18.4428 225.316 18.5503C226.382 18.8403 227.426 18.7114 227.736 17.6587C228.036 16.649 227.215 15.983 226.049 15.6608L225.25 15.4352L224.417 18.271Z" fill="#1565FF"/>
<path d="M75.674 35.2974C75.8089 35.8565 75.4492 36.4156 74.8645 36.5554C74.3249 36.6844 73.6278 36.7812 72.8296 36.8027C68.6922 36.9317 66.4774 34.5448 66.365 31.2869C66.2301 27.3839 69.0632 25.1152 72.6834 24.9969C73.403 24.9754 74.0326 25.0292 74.5497 25.1152C75.1681 25.2227 75.5616 25.7926 75.4267 26.3732L75.4154 26.4054C75.2918 26.9538 74.7409 27.3086 74.1562 27.2119C73.774 27.1473 73.3468 27.1151 72.8746 27.1258C70.7272 27.1903 69.097 28.4913 69.1869 31.0396C69.2656 33.3298 70.7384 34.7275 73.1556 34.6523C73.5604 34.6415 73.9764 34.5878 74.3699 34.5017C74.9657 34.3835 75.5391 34.7383 75.674 35.2974Z" fill="#1565FF"/>
<path d="M169.576 28.3564C169.296 27.5454 169.76 26.6277 170.59 26.3609C171.442 26.0834 172.229 26.4996 172.553 27.3426C172.866 28.1964 172.521 29.0394 171.626 29.3596C170.72 29.6797 169.878 29.2315 169.576 28.3564ZM169.296 25.8913L166.621 19.5737C166.406 19.0508 166.665 18.4532 167.204 18.2611L167.851 18.0264C168.39 17.8343 168.983 18.1224 169.145 18.6667L171.173 25.219L169.296 25.8913Z" fill="#1565FF"/>
<path d="M261.256 92.843C265.056 78.544 274.897 68.4712 280.343 64.4334C280.795 64.0984 281.394 64.4632 281.29 65.0129C279.385 75.1588 269.687 88.669 264.507 94.8315C264.276 95.106 263.872 95.1368 263.587 94.9196C263.214 94.636 262.913 94.4519 261.531 93.5536C261.296 93.4004 261.184 93.1135 261.256 92.843Z" fill="#1565FF"/>
<path d="M262.586 92.2325C269.83 82.982 280.05 80.4308 285.21 80.2406C285.703 80.2225 286.001 80.7388 285.735 81.1506C281.238 88.1312 270.135 93.498 264.417 95.5769C264.081 95.6992 263.714 95.5266 263.58 95.1978C263.4 94.7583 263.243 94.4461 262.512 92.9104C262.407 92.6898 262.435 92.4254 262.586 92.2325Z" fill="#1565FF"/>
<path d="M260.513 93.2735C257.805 83.928 259.669 74.8959 261.33 70.435C261.527 69.906 262.229 69.9105 262.412 70.4443C264.673 77.0298 263.932 87.8211 263.157 93.2224C263.106 93.576 262.778 93.8073 262.418 93.7839C262.18 93.7683 261.87 93.7624 261.124 93.7415C260.84 93.7335 260.591 93.5446 260.513 93.2735Z" fill="#1565FF"/>
<path d="M277.909 69.1646C275.205 72.6158 268.934 81.3552 265.48 88.7022" stroke="#1565FF" stroke-width="0.659615" stroke-linecap="round"/>
<path d="M280.189 83.6497C277.4 84.817 270.748 88.1419 266.447 92.1023" stroke="#1565FF" stroke-width="0.659615" stroke-linecap="round"/>
<path d="M261.644 74.5598C261.099 77.5134 260.473 84.9142 262.33 90.8883" stroke="#1565FF" stroke-width="0.659615" stroke-linecap="round"/>
<path d="M254.953 86.9751C246.61 74.7131 245.457 60.7339 245.985 54.0138C246.029 53.4561 246.696 53.2507 247.045 53.6895C253.487 61.7956 257.344 77.9338 258.604 85.8602C258.66 86.2142 258.418 86.5365 258.067 86.6057C257.605 86.6965 257.268 86.7991 255.671 87.2385C255.401 87.3128 255.111 87.2069 254.953 86.9751Z" fill="#1565FF"/>
<path d="M255.367 85.5811C253.124 74.0817 257.928 64.7803 261.185 60.8093C261.496 60.4302 262.082 60.5477 262.22 61.0164C264.552 68.9701 261.304 80.7852 259.111 86.4194C258.982 86.7512 258.61 86.911 258.273 86.7946C257.82 86.6386 257.48 86.5502 255.831 86.0821C255.595 86.0152 255.414 85.8206 255.367 85.5811Z" fill="#1565FF"/>
<path d="M254.79 87.8128C245.914 83.6699 240.291 76.325 238.003 72.1465C237.731 71.6508 238.196 71.1319 238.721 71.347C245.207 74.0016 252.906 81.6685 256.493 85.8075C256.728 86.0789 256.688 86.476 256.433 86.728C256.265 86.8954 256.055 87.1229 255.546 87.6667C255.353 87.8728 255.047 87.9329 254.79 87.8128Z" fill="#1565FF"/>
<path d="M247.969 58.9519C248.804 63.2425 251.3 73.6782 254.596 81.0965" stroke="#1565FF" stroke-width="0.659615" stroke-linecap="round"/>
<path d="M260.459 66.801C259.507 69.6493 257.644 76.8 257.813 82.6165" stroke="#1565FF" stroke-width="0.659615" stroke-linecap="round"/>
<path d="M241.339 74.6331C243.22 76.9864 248.421 82.3316 254.178 84.8851" stroke="#1565FF" stroke-width="0.659615" stroke-linecap="round"/>
<path d="M2.85433 81.1943C6.65496 66.8953 16.4954 56.8225 21.942 52.7847C22.3938 52.4497 22.9923 52.8145 22.8891 53.3642C20.9837 63.5101 11.2857 77.0203 6.10518 83.1828C5.87446 83.4573 5.47047 83.4881 5.18519 83.2709C4.81277 82.9873 4.51197 82.8032 3.12984 81.9049C2.89418 81.7517 2.78243 81.4648 2.85433 81.1943Z" fill="#1565FF"/>
<path d="M4.18441 80.5843C11.4283 71.3338 21.6487 68.7826 26.8086 68.5924C27.3014 68.5743 27.5992 69.0906 27.3339 69.5025C22.8364 76.483 11.7341 81.8498 6.01558 83.9287C5.67927 84.051 5.3131 83.8784 5.17867 83.5496C4.999 83.1102 4.84171 82.7979 4.11065 81.2622C4.00561 81.0416 4.0334 80.7772 4.18441 80.5843Z" fill="#1565FF"/>
<path d="M2.11045 81.625C-0.596985 72.2796 1.2666 63.2474 2.92775 58.7866C3.12475 58.2576 3.82624 58.262 4.00949 58.7958C6.27039 65.3813 5.52936 76.1726 4.75428 81.574C4.70353 81.9276 4.37526 82.1589 4.016 82.1354C3.77793 82.1199 3.46752 82.1139 2.72159 82.0931C2.43727 82.0851 2.18901 81.8962 2.11045 81.625Z" fill="#1565FF"/>
<path d="M19.5078 57.5161C16.804 60.9674 10.5328 69.7067 7.07828 77.0538" stroke="#1565FF" stroke-width="0.659615" stroke-linecap="round"/>
<path d="M21.7876 72.0012C18.999 73.1686 12.3465 76.4934 8.04593 80.4539" stroke="#1565FF" stroke-width="0.659615" stroke-linecap="round"/>
<path d="M3.24268 62.9114C2.69753 65.865 2.0716 73.2657 3.92906 79.2399" stroke="#1565FF" stroke-width="0.659615" stroke-linecap="round"/>
<path d="M114.368 -2.48459C125.609 7.23853 130.348 20.4528 131.581 27.0822C131.683 27.6323 131.09 28.0013 130.639 27.666C122.312 21.4726 114.401 6.86037 111.128 -0.477779C110.982 -0.805143 111.133 -1.17802 111.455 -1.33468C111.878 -1.53997 112.177 -1.72513 113.605 -2.55584C113.847 -2.69673 114.155 -2.66845 114.368 -2.48459Z" fill="#1565FF"/>
<path d="M114.329 -1.03165C119.478 9.50942 117.248 19.7217 115.13 24.3896C114.927 24.8352 114.33 24.8709 114.075 24.4528C109.76 17.3601 109.835 5.11498 110.493 -0.888236C110.532 -1.24159 110.85 -1.49056 111.207 -1.46408C111.684 -1.42862 112.036 -1.4298 113.75 -1.39773C113.996 -1.39314 114.222 -1.25126 114.329 -1.03165Z" fill="#1565FF"/>
<path d="M114.309 -3.33545C123.96 -1.59331 131.299 4.07129 134.594 7.52648C134.985 7.9363 134.67 8.55662 134.106 8.48261C127.15 7.56939 117.722 2.12197 113.183 -0.963807C112.885 -1.16599 112.822 -1.56017 113.002 -1.86861C113.122 -2.07334 113.265 -2.3465 113.616 -3.00097C113.749 -3.24962 114.029 -3.38599 114.309 -3.33545Z" fill="#1565FF"/>
<path d="M128.384 22.8179C126.464 18.8844 121.346 9.43514 116.237 3.10592" stroke="#1565FF" stroke-width="0.659615" stroke-linecap="round"/>
<path d="M114.277 18.4148C114.459 15.4195 114.405 8.03431 112.734 2.45634" stroke="#1565FF" stroke-width="0.659615" stroke-linecap="round"/>
<path d="M130.724 5.97437C128.295 4.17938 121.883 0.339147 115.658 -0.661893" stroke="#1565FF" stroke-width="0.659615" stroke-linecap="round"/>
<path d="M317.72 -4.06497C312.324 9.71941 301.406 18.6325 295.536 22.039C295.049 22.3215 294.495 21.8914 294.66 21.3565C297.703 11.4871 308.87 -0.857168 314.715 -6.40338C314.976 -6.65017 315.38 -6.63546 315.64 -6.38759C315.977 -6.06463 316.256 -5.84795 317.526 -4.80243C317.743 -4.62369 317.822 -4.32582 317.72 -4.06497Z" fill="#1565FF"/>
<path d="M316.329 -3.60676C308.083 4.77841 297.639 6.17579 292.49 5.79045C291.998 5.75366 291.761 5.20679 292.071 4.82699C297.332 -1.60839 308.971 -5.705 314.889 -7.13404C315.237 -7.21805 315.581 -7.0056 315.677 -6.66374C315.806 -6.20726 315.927 -5.87927 316.479 -4.27262C316.559 -4.04146 316.501 -3.78162 316.329 -3.60676Z" fill="#1565FF"/>
<path d="M318.508 -4.40985C320.139 5.17738 317.264 13.9445 315.108 18.1925C314.853 18.6962 314.156 18.6134 314.034 18.0626C312.534 11.2668 314.493 0.626758 315.875 -4.65378C315.965 -4.99939 316.318 -5.19251 316.672 -5.12919C316.907 -5.08727 317.215 -5.04679 317.953 -4.9431C318.235 -4.90351 318.46 -4.68809 318.508 -4.40985Z" fill="#1565FF"/>
<path d="M298.49 17.6094C301.567 14.4809 308.789 6.49509 313.054 -0.420921" stroke="#1565FF" stroke-width="0.659615" stroke-linecap="round"/>
<path d="M297.866 2.96191C300.769 2.11239 307.756 -0.450806 312.478 -3.9074" stroke="#1565FF" stroke-width="0.659615" stroke-linecap="round"/>
<path d="M315.263 14.0591C316.139 11.1849 317.599 3.90061 316.431 -2.24255" stroke="#1565FF" stroke-width="0.659615" stroke-linecap="round"/>
<path d="M149.945 83.5281C153.511 71.87 161.838 63.8121 166.543 60.5109C167.003 60.1877 167.585 60.5721 167.456 61.1165C165.475 69.4768 157.151 80.2802 152.657 85.279C152.417 85.5456 152.012 85.5632 151.731 85.3403C151.463 85.128 151.173 84.932 150.196 84.2483C149.966 84.087 149.863 83.7958 149.945 83.5281Z" fill="#1565FF"/>
<path d="M151.096 83.0791C157.342 75.6883 165.798 73.8073 170.166 73.7492C170.659 73.7427 170.937 74.2676 170.653 74.6666C166.654 80.2674 157.419 84.364 152.585 85.9487C152.245 86.0602 151.889 85.8738 151.763 85.5418C151.639 85.2164 151.494 84.8955 150.998 83.752C150.9 83.5278 150.938 83.2662 151.096 83.0791Z" fill="#1565FF"/>
<path d="M149.27 83.8653C147.348 76.1464 149.059 68.8147 150.556 65.0694C150.766 64.5452 151.46 64.5723 151.616 65.1145C153.211 70.6632 152.313 79.4024 151.521 83.8722C151.458 84.2239 151.122 84.4422 150.763 84.4126C150.584 84.3977 150.334 84.3833 149.864 84.3541C149.581 84.3364 149.338 84.1392 149.27 83.8653Z" fill="#1565FF"/>
<path d="M164.556 64.2678C162.192 67.0778 156.687 74.2098 153.58 80.2581" stroke="#1565FF" stroke-width="0.659615" stroke-linecap="round"/>
<path d="M166.037 76.4553C163.669 77.3516 158.004 79.9415 154.289 83.1314" stroke="#1565FF" stroke-width="0.659615" stroke-linecap="round"/>
<path d="M150.787 68.3125C150.243 70.7684 149.502 76.9435 150.88 81.9966" stroke="#1565FF" stroke-width="0.659615" stroke-linecap="round"/>
<path d="M14.0698 3.5845C28.8849 5.27828 40.3411 13.4968 45.1499 18.2668C45.5487 18.6623 45.2671 19.3048 44.7032 19.2815C34.3008 18.8532 19.4335 11.2614 12.5449 7.05628C12.239 6.86949 12.1519 6.47717 12.3286 6.16533C12.5581 5.76059 12.6997 5.43816 13.3979 3.95836C13.5179 3.70396 13.7893 3.55244 14.0698 3.5845Z" fill="#1565FF"/>
<path d="M14.8683 4.80357C25.1345 10.594 29.1367 20.2576 30.0616 25.294C30.15 25.775 29.6751 26.1416 29.2256 25.9396C21.616 22.5189 14.6779 12.3898 11.7888 7.07539C11.6191 6.76323 11.7399 6.3795 12.0495 6.20049C12.4622 5.96193 12.7521 5.7628 14.1795 4.82817C14.3855 4.6933 14.6541 4.68274 14.8683 4.80357Z" fill="#1565FF"/>
<path d="M13.5342 2.91634C22.4789 -1.06972 31.7613 -0.527435 36.4525 0.467313C37.0087 0.585253 37.1039 1.27593 36.5968 1.5317C30.3423 4.6866 19.463 5.49515 13.9605 5.50332C13.6006 5.50385 13.3233 5.21428 13.2955 4.85794C13.2771 4.62238 13.2389 4.31703 13.1538 3.584C13.1212 3.30321 13.2746 3.03204 13.5342 2.91634Z" fill="#1565FF"/>
<path d="M40.0825 16.5552C36.2516 14.3934 26.6328 9.48388 18.805 7.13996" stroke="#1565FF" stroke-width="0.659615" stroke-linecap="round"/>
<path d="M25.9443 20.8535C24.3818 18.2834 20.1151 12.2292 15.5485 8.57306" stroke="#1565FF" stroke-width="0.659615" stroke-linecap="round"/>
<path d="M32.3804 1.36353C29.3536 1.24901 21.8749 1.6882 16.1741 4.36108" stroke="#1565FF" stroke-width="0.659615" stroke-linecap="round"/>
<path d="M3.23059 -1.84616C14.4722 7.87696 19.2109 21.0912 20.4433 27.7207C20.5456 28.2708 19.9527 28.6398 19.5017 28.3044C11.1747 22.111 3.26383 7.4988 -0.00887861 0.160649C-0.154878 -0.166715 -0.0042945 -0.539592 0.31807 -0.696256C0.740489 -0.901542 1.03968 -1.0867 2.46773 -1.91742C2.70992 -2.0583 3.01802 -2.03002 3.23059 -1.84616Z" fill="#1565FF"/>
<path d="M3.19186 -0.393226C8.34038 10.1478 6.11044 20.3602 3.99239 25.028C3.79017 25.4737 3.19243 25.5093 2.93802 25.0912C-1.37735 17.9985 -1.30231 5.75341 -0.644035 -0.249808C-0.605287 -0.603166 -0.287045 -0.852135 0.0694925 -0.82565C0.546907 -0.790189 0.898557 -0.791375 2.61276 -0.759304C2.85834 -0.754709 3.0846 -0.612833 3.19186 -0.393226Z" fill="#1565FF"/>
<path d="M3.17213 -2.69726C12.8228 -0.95513 20.1614 4.70947 23.4565 8.16466C23.8473 8.57449 23.5327 9.1948 22.9689 9.1208C16.0124 8.20757 6.58503 2.76015 2.04563 -0.325623C1.7482 -0.527808 1.68445 -0.921983 1.86494 -1.23043C1.98475 -1.43516 2.1279 -1.70831 2.47836 -2.36278C2.61151 -2.61143 2.89214 -2.7478 3.17213 -2.69726Z" fill="#1565FF"/>
<path d="M17.2466 23.4561C15.3265 19.5226 10.209 10.0733 5.10025 3.74411" stroke="#1565FF" stroke-width="0.659615" stroke-linecap="round"/>
<path d="M3.13965 19.053C3.32184 16.0576 3.26827 8.67249 1.59649 3.09453" stroke="#1565FF" stroke-width="0.659615" stroke-linecap="round"/>
<path d="M19.5864 6.61255C17.1583 4.81756 10.7458 0.977331 4.52082 -0.0237096" stroke="#1565FF" stroke-width="0.659615" stroke-linecap="round"/>
</g>
</svg>
