<svg width="16" height="16" viewBox="0 0 16 16" fill="none" xmlns="http://www.w3.org/2000/svg">
<path d="M2.40813 0.758457C1.95252 0.302845 1.21382 0.302845 0.758213 0.758457C0.302601 1.21407 0.302601 1.95276 0.758213 2.40837L6.34992 8.00008L0.758213 13.5918C0.302601 14.0474 0.302601 14.7861 0.758213 15.2417C1.21382 15.6973 1.95252 15.6973 2.40813 15.2417L7.99984 9.65L13.5915 15.2417C14.0472 15.6973 14.7859 15.6973 15.2415 15.2417C15.6971 14.7861 15.6971 14.0474 15.2415 13.5918L9.64975 8.00008L15.2415 2.40837C15.6971 1.95276 15.6971 1.21407 15.2415 0.758457C14.7859 0.302845 14.0472 0.302845 13.5915 0.758457L7.99984 6.35017L2.40813 0.758457Z" fill="#14142B"/>
</svg>
